<?xml version="1.0" encoding="iso-8859-1"?>
<!-- Generator: Adobe Illustrator 19.0.0, SVG Export Plug-In . SVG Version: 6.00 Build 0)  -->
<svg xmlns="http://www.w3.org/2000/svg" xmlns:xlink="http://www.w3.org/1999/xlink" version="1.1" id="Layer_1" x="0px" y="0px" viewBox="0 0 512.009 512.009" style="enable-background:new 0 0 512.009 512.009;" xml:space="preserve" width="512" height="512">
<g>
	<g>
		<path style="fill:#714C2F;" d="M120.009,272.005H61.196c-23.32,0-44.297-12.964-54.727-33.823    c-13.228-26.455-5.654-58.55,18.003-76.304l30.776-23.071l17.988,23.994l-30.762,23.071c-12.056,9.053-15.908,25.415-9.17,38.892    c5.317,10.635,15.996,17.241,27.891,17.241h58.813V272.005z"/>
	</g>
	<path style="fill:#714C2F;" d="M174.487,446.731l-9.478-37.866c-4.863-19.453-1.86-39.609,8.452-56.792   s26.689-29.312,46.128-34.175l62.787-15.439l7.266,29.092l-62.787,15.454c-11.66,2.915-21.489,10.195-27.671,20.508   c-6.182,10.298-7.983,22.412-5.068,34.072l9.463,37.852L174.487,446.731z"/>
	<path style="fill:#714C2F;" d="M317.009,512.005h-87.137c-44.502,0-84.316-28.213-99.067-70.21l28.301-9.932   c10.532,29.985,38.979,50.142,70.767,50.142h87.137V512.005z"/>
	<g>
		<path style="fill:#714C2F;" d="M199.287,458.538c-53.276,0-106.274-17.446-150.688-51.797l18.369-23.73    c70.4,54.507,167.381,60.571,243.992,15.454l76.143-44.81l15.205,25.869l-76.143,44.81    C287.258,447.215,242.177,458.538,199.287,458.538z"/>
	</g>
	<g>
		<path style="fill:#895D3C;" d="M90.009,512.005h-90v-94.38c0-89.824,49.907-170.566,130.254-210.747    c85.633-42.816,126.67-7.506,204.588-44.619l80.801-38.438l-63.853,62.695c-49.33,48.438-104.176,43.606-147.752,55.298    c-84.831,16.182-142.844,97.364-128.364,184.263L90.009,512.005z"/>
	</g>
	<path style="fill:#FFB6FA;" d="M512.009,347.005c0-24.901-20.099-45-45-45c-0.901,0-1.8,0.3-2.701,0.3   c-5.999-17.701-22.5-30.3-42.299-30.3s-36.301,12.599-42.299,30.3c-0.901,0-1.8-0.3-2.701-0.3c-24.901,0-45,20.099-45,45   c0,15.899,8.401,30,21,37.8c-3.6,6.599-6,14.099-6,22.2c0,24.899,20.099,45,45,45c11.7,0,21.899-4.501,30-11.7   c8.101,7.2,18.3,11.7,30,11.7c24.901,0,45-20.101,45-45c0-8.101-2.401-15.601-6-22.2   C503.608,377.005,512.009,362.904,512.009,347.005z"/>
	<path style="fill:#FF9AC9;" d="M491.009,384.805c3.6,6.599,6,14.099,6,22.2c0,24.899-20.099,45-45,45c-11.7,0-21.899-4.501-30-11.7   v-168.3c19.799,0,36.301,12.599,42.299,30.3c0.901,0,1.8-0.3,2.701-0.3c24.901,0,45,20.099,45,45   C512.009,362.904,503.608,377.005,491.009,384.805z"/>
	<rect x="407.009" y="347.005" style="fill:#FF9AC9;" width="30" height="30"/>
	<rect x="422.009" y="347.005" style="fill:#FF7CB9;" width="15" height="30"/>
	<path style="fill:#FFB6FA;" d="M512.009,77.005c0-24.901-20.099-46-45-46c-0.901,0-1.8,0.3-2.701,0.3   c-5.999-17.701-22.5-31.3-42.299-31.3s-36.301,13.599-42.299,31.3c-0.901,0-1.8-0.3-2.701-0.3c-24.901,0-45,21.099-45,46   c0,15.899,8.401,30,21,37.8c-3.6,6.599-6,14.099-6,22.2c0,24.899,20.099,45,45,45c11.7,0,21.899-4.501,30-11.7   c8.101,7.2,18.3,11.7,30,11.7c24.901,0,45-20.101,45-45c0-8.101-2.401-15.601-6-22.2   C503.608,107.005,512.009,92.904,512.009,77.005z"/>
	<path style="fill:#FF9AC9;" d="M491.009,114.805c3.6,6.599,6,14.099,6,22.2c0,24.899-20.099,45-45,45c-11.7,0-21.899-4.501-30-11.7   V0.005c19.799,0,36.301,13.599,42.299,31.3c0.901,0,1.8-0.3,2.701-0.3c24.901,0,45,21.099,45,46   C512.009,92.904,503.608,107.005,491.009,114.805z"/>
	<rect x="407.009" y="77.005" style="fill:#FF9AC9;" width="30" height="30"/>
	<rect x="422.009" y="77.005" style="fill:#FF7CB9;" width="15" height="30"/>
	<path style="fill:#FFB6FA;" d="M210.009,77.005c0-24.901-20.099-46-45-46c-0.901,0-1.8,0.3-2.701,0.3   c-5.999-17.701-22.5-31.3-42.299-31.3s-36.301,13.599-42.299,31.3c-0.901,0-1.8-0.3-2.701-0.3c-24.901,0-45,21.099-45,46   c0,15.899,8.401,30,21,37.8c-3.6,6.599-6,14.099-6,22.2c0,24.899,20.099,45,45,45c11.7,0,21.899-4.501,30-11.7   c8.101,7.2,18.3,11.7,30,11.7c24.901,0,45-20.101,45-45c0-8.101-2.401-15.601-6-22.2   C201.608,107.005,210.009,92.904,210.009,77.005z"/>
	<path style="fill:#FF9AC9;" d="M189.009,114.805c3.6,6.599,6,14.099,6,22.2c0,24.899-20.099,45-45,45c-11.7,0-21.899-4.501-30-11.7   V0.005c19.799,0,36.301,13.599,42.299,31.3c0.901,0,1.8-0.3,2.701-0.3c24.901,0,45,21.099,45,46   C210.009,92.904,201.608,107.005,189.009,114.805z"/>
	<rect x="105.009" y="77.005" style="fill:#FF9AC9;" width="30" height="30"/>
	<rect x="120.009" y="77.005" style="fill:#FF7CB9;" width="15" height="30"/>
</g>















</svg>
