<svg id="Layer_1" data-name="Layer 1" xmlns="http://www.w3.org/2000/svg" xmlns:xlink="http://www.w3.org/1999/xlink" width="1000" height="1000" viewBox="0 0 1000 1000"><defs><style>.cls-1,.cls-102,.cls-103,.cls-105,.cls-106,.cls-17,.cls-2,.cls-45,.cls-55,.cls-56,.cls-57,.cls-83,.cls-85{fill:none;}.cls-2{clip-rule:evenodd;}.cls-3{fill:#faa919;}.cls-4{fill:#ffc10d;}.cls-5{fill:#ff6c00;}.cls-52,.cls-6,.cls-66,.cls-67,.cls-68,.cls-74{fill:#fff;}.cls-7{fill:#ffa200;}.cls-8{fill:#e3e3e3;}.cls-9{fill:#d33131;}.cls-10{fill:#f93d3d;}.cls-11{fill:#af2828;}.cls-12{fill:#e83838;}.cls-13{fill:#f77f7f;opacity:0.3;}.cls-14{fill:#e02804;}.cls-15{fill:#ec0000;}.cls-16{fill:#353535;}.cls-17,.cls-45{stroke:#fff;stroke-linejoin:round;}.cls-102,.cls-103,.cls-105,.cls-106,.cls-17,.cls-45{stroke-linecap:round;}.cls-17{stroke-width:2.5px;}.cls-18{fill:#1cb0f6;}.cls-19{fill:#36c5f2;opacity:0.25;}.cls-20,.cls-72{fill:#7ac70c;}.cls-21{fill:#ffb103;}.cls-22{fill:#00adf8;}.cls-23{fill:#7a3922;}.cls-24{fill:#472213;}.cls-25{fill:#b71515;}.cls-26{fill:#e5e5e5;}.cls-27{fill:#79a100;}.cls-28{fill:#1caff6;}.cls-29{fill:#cbcbcb;}.cls-30{fill:#ec0b1b;}.cls-31{fill:#9c0;}.cls-32{fill:#b0b0b0;}.cls-33{fill:#494949;}.cls-34{fill:#e8e8e8;}.cls-35{fill:#2e2e2e;}.cls-36{fill:#8dbc00;}.cls-37{fill:#c2c2c2;}.cls-38{fill:#c4c4c4;}.cls-39{fill:#9e9e9e;}.cls-40{fill:#6fb500;}.cls-41,.cls-44{fill:#9b9b9b;}.cls-42{opacity:0.08;}.cls-43{fill:#5a8900;}.cls-44,.cls-66{opacity:0.7;}.cls-45{stroke-width:2.57px;}.cls-46{fill:#16a8e7;}.cls-47{fill:#eceeec;}.cls-48{fill:#df4a32;}.cls-49{fill:#3b5999;}.cls-50{clip-path:url(#clip-path);}.cls-51{clip-path:url(#clip-path-2);}.cls-52{stroke:#231f20;stroke-opacity:0.08;}.cls-102,.cls-103,.cls-105,.cls-106,.cls-52,.cls-55,.cls-56,.cls-57,.cls-83,.cls-85{stroke-miterlimit:10;}.cls-52,.cls-55,.cls-56{stroke-width:3px;}.cls-53{fill:#e2e2e2;}.cls-54{fill:#93cc17;}.cls-55{stroke:#a5d20c;}.cls-56{stroke:#d6d6d6;}.cls-57{stroke:#bababa;}.cls-103,.cls-106,.cls-57,.cls-83,.cls-85{stroke-width:2px;}.cls-58{fill:#ffb094;}.cls-59{fill:#0af;}.cls-60{opacity:0.19;}.cls-61{fill:#88c11a;}.cls-62{fill:#774335;}.cls-63{fill:#934928;}.cls-64{fill:#ad582d;}.cls-65{fill:#cc2f2f;}.cls-67{opacity:0.28;}.cls-68{opacity:0.39;}.cls-69{fill:#7f3f22;}.cls-70{fill:#d6d6d6;}.cls-71{fill:#a5d20c;}.cls-72{opacity:0.65;}.cls-73{fill:#ec0a1b;opacity:0.35;}.cls-74{opacity:0.8;}.cls-75{fill:#b7b7b7;}.cls-76{fill:#f6ab00;}.cls-77{fill:#f6bb03;}.cls-78{fill:#5fa8dc;}.cls-79{fill:#dcdcdc;}.cls-80{fill:#e7e7e7;}.cls-81{fill:#6eaa05;}.cls-82{clip-path:url(#clip-path-3);}.cls-102,.cls-103,.cls-83{stroke:#1cb0f6;}.cls-84{clip-path:url(#clip-path-4);}.cls-105,.cls-106,.cls-85{stroke:#979797;}.cls-86{clip-path:url(#clip-path-5);}.cls-87{clip-path:url(#clip-path-6);}.cls-88{clip-path:url(#clip-path-7);}.cls-89{clip-path:url(#clip-path-8);}.cls-90{clip-path:url(#clip-path-9);}.cls-91{clip-path:url(#clip-path-10);}.cls-92{clip-path:url(#clip-path-11);}.cls-93{clip-path:url(#clip-path-12);}.cls-94{clip-path:url(#clip-path-13);}.cls-95{fill:#979797;}.cls-96{clip-path:url(#clip-path-14);}.cls-97{clip-path:url(#clip-path-15);}.cls-98{clip-path:url(#clip-path-16);}.cls-99{clip-path:url(#clip-path-17);}.cls-100{clip-path:url(#clip-path-18);}.cls-101{clip-path:url(#clip-path-19);}.cls-102,.cls-105{stroke-width:2.14px;}.cls-104{clip-path:url(#clip-path-20);}</style><clipPath id="clip-path"><rect class="cls-1" x="63.23" y="70" width="14.57" height="11.84"/></clipPath><clipPath id="clip-path-2"><rect class="cls-1" x="63.23" y="69.96" width="14.6" height="11.88"/></clipPath><clipPath id="clip-path-3"><rect class="cls-1" x="710" y="90" width="37" height="34"/></clipPath><clipPath id="clip-path-4"><rect class="cls-1" x="750" y="90" width="37" height="34"/></clipPath><clipPath id="clip-path-5"><rect class="cls-1" x="790" y="90" width="42" height="32"/></clipPath><clipPath id="clip-path-6"><path class="cls-2" d="M803.61,107.77a7.37,7.37,0,0,1-7.36-7.36v-3a7.36,7.36,0,1,1,14.72,0v3a7.37,7.37,0,0,1-7.36,7.36m0-13.48c-2.81,0-5.1.26-5.1,3.08v3a5.1,5.1,0,1,0,10.2,0v-3c0-2.82-2.29-3.08-5.1-3.08"/></clipPath><clipPath id="clip-path-7"><path class="cls-2" d="M806.87,100.5a3.26,3.26,0,1,1-6.51,0h6.51Z"/></clipPath><clipPath id="clip-path-8"><path class="cls-2" d="M820.45,107.77a7.37,7.37,0,0,1-7.36-7.36V94.52h14.72v5.88A7.37,7.37,0,0,1,820.45,107.77Zm-5.1-13.22v5.86a5.1,5.1,0,1,0,10.2,0V94.55h-10.2Z"/></clipPath><clipPath id="clip-path-9"><path class="cls-2" d="M823.71,100.5a3.26,3.26,0,1,1-6.51,0h6.51Z"/></clipPath><clipPath id="clip-path-10"><path class="cls-2" d="M827.43,94.55H813.09a4.29,4.29,0,0,1,4.29-4.29h14.34a4.29,4.29,0,0,1-4.29,4.29"/></clipPath><clipPath id="clip-path-11"><path class="cls-2" d="M790.83,99.06v8.71a4.29,4.29,0,0,0,4.29-4.29V94.76a4.29,4.29,0,0,0-4.29,4.29"/></clipPath><clipPath id="clip-path-12"><rect class="cls-1" x="835" y="90" width="42" height="32"/></clipPath><clipPath id="clip-path-13"><path class="cls-2" d="M848.61,107.77a7.37,7.37,0,0,1-7.36-7.36v-3a7.36,7.36,0,1,1,14.72,0v3a7.37,7.37,0,0,1-7.36,7.36m0-13.48c-2.81,0-5.1.26-5.1,3.08v3a5.1,5.1,0,1,0,10.2,0v-3c0-2.82-2.29-3.08-5.1-3.08"/></clipPath><clipPath id="clip-path-14"><path class="cls-2" d="M851.87,100.5a3.26,3.26,0,1,1-6.51,0h6.51Z"/></clipPath><clipPath id="clip-path-15"><path class="cls-2" d="M865.45,107.77a7.37,7.37,0,0,1-7.36-7.36V94.52h14.72v5.88A7.37,7.37,0,0,1,865.45,107.77Zm-5.1-13.22v5.86a5.1,5.1,0,1,0,10.2,0V94.55h-10.2Z"/></clipPath><clipPath id="clip-path-16"><path class="cls-2" d="M868.71,100.5a3.26,3.26,0,1,1-6.51,0h6.51Z"/></clipPath><clipPath id="clip-path-17"><path class="cls-2" d="M872.43,94.55H858.09a4.29,4.29,0,0,1,4.29-4.29h14.34a4.29,4.29,0,0,1-4.29,4.29"/></clipPath><clipPath id="clip-path-18"><path class="cls-2" d="M835.83,99.06v8.71a4.29,4.29,0,0,0,4.29-4.29V94.76a4.29,4.29,0,0,0-4.29,4.29"/></clipPath><clipPath id="clip-path-19"><rect class="cls-1" x="880" y="90" width="38" height="30"/></clipPath><clipPath id="clip-path-20"><rect class="cls-1" x="920" y="90" width="38" height="30"/></clipPath></defs><title>icon-sprite</title><circle class="cls-3" cx="14.88" cy="54.88" r="14.88"/><path class="cls-4" d="M25.55,49.39L9.1,65.4a11.92,11.92,0,0,0,4.77,1.43l13-12.63A11.93,11.93,0,0,0,25.55,49.39Z"/><path class="cls-4" d="M16.84,43L3,56.52a12,12,0,0,0,3.56,7L23.74,46.78A12,12,0,0,0,16.84,43Z"/><path class="cls-5" d="M41.55,68.88a10.41,10.41,0,0,1-6.74-18.33,1.63,1.63,0,0,0,.64-1.05,1,1,0,0,1,1.7-.77,2.52,2.52,0,0,1,.73,2.06,5.3,5.3,0,0,1-.05.73,8,8,0,0,1-.25,1.15,5.32,5.32,0,0,1-.18.5,3.89,3.89,0,0,0-.18.49,1.58,1.58,0,0,0,0,.57,1.13,1.13,0,0,0,.43.67,1.1,1.1,0,0,0,.75.28,1.4,1.4,0,0,0,.43-0.08c1-.33.86-1.77,0.72-2.6a10.44,10.44,0,0,0-.46-1.62,8.22,8.22,0,0,1-.58-2.69,7.91,7.91,0,0,1,.2-1.78,7.13,7.13,0,0,1,1-2.34,9.69,9.69,0,0,1,1-1.25l0.3-.33A1.49,1.49,0,0,1,41.78,42L42,42a1,1,0,0,1,1,1,1.71,1.71,0,0,1-.08.45c-0.5,1.71,1.09,3.18,2.33,4.13a19.56,19.56,0,0,1,5,5A10.41,10.41,0,0,1,41.55,68.88Z"/><path class="cls-6" d="M42,43a0.74,0.74,0,0,1,0,.19c-0.76,2.59,1.81,4.56,2.67,5.23a18.62,18.62,0,0,1,4.73,4.8,9.41,9.41,0,1,1-13.9-1.91,2.47,2.47,0,0,0,1-1.87l0.05,0a1.65,1.65,0,0,1,.38,1.29,4.35,4.35,0,0,1,0,.59,6.92,6.92,0,0,1-.22,1,4.37,4.37,0,0,1-.16.43,4.74,4.74,0,0,0-.21.59,2.58,2.58,0,0,0-.05.94,2.24,2.24,0,0,0,2.17,1.83A2.41,2.41,0,0,0,39.12,56C39.83,55.79,41,55,40.5,52.33a11.39,11.39,0,0,0-.5-1.79,7.31,7.31,0,0,1-.52-2.36,6.91,6.91,0,0,1,.17-1.56,6.14,6.14,0,0,1,.86-2,9,9,0,0,1,.94-1.13l0.3-.33A0.5,0.5,0,0,1,42,43m0-2a2,2,0,0,0-.43,0,2.47,2.47,0,0,0-1.3.78L40,42.13a10.69,10.69,0,0,0-1.14,1.38,8.14,8.14,0,0,0-1.14,2.66,8.83,8.83,0,0,0-.21,1.55,2,2,0,0,0-3,1.73,1.33,1.33,0,0,1-.29.32A11.41,11.41,0,1,0,51,52.09a20.62,20.62,0,0,0-5.19-5.28c-1.56-1.2-2.19-2.21-1.94-3.06A2.59,2.59,0,0,0,44,43.08,2,2,0,0,0,42,41h0ZM38.17,54a0.5,0.5,0,0,1,0-.14,3.35,3.35,0,0,1,.13-0.34,6.33,6.33,0,0,0,.23-0.63l0-.09a2,2,0,0,1-.08,1.3l-0.12,0a0.11,0.11,0,0,1-.08,0L38.17,54h0Z"/><path class="cls-5" d="M367.12,49.38a4.18,4.18,0,0,0,.15-0.41,6.61,6.61,0,0,0,.21-1,4.16,4.16,0,0,0,0-.57,1.58,1.58,0,0,0-.36-1.24l-0.05,0a2.36,2.36,0,0,1-.95,1.78,9,9,0,1,0,13.28,1.82,17.8,17.8,0,0,0-4.52-4.58c-0.83-.64-3.27-2.52-2.55-5a0.71,0.71,0,0,0,0-.18,0.48,0.48,0,0,0-.24.15l-0.29.32a8.6,8.6,0,0,0-.9,1.08,5.87,5.87,0,0,0-.82,1.92A6.6,6.6,0,0,0,370,45a7,7,0,0,0,.5,2.25,10.89,10.89,0,0,1,.48,1.71c0.43,2.54-.64,3.31-1.32,3.55a2.3,2.3,0,0,1-.73.13,2.14,2.14,0,0,1-2.08-1.75,2.46,2.46,0,0,1,.05-0.89A4.53,4.53,0,0,1,367.12,49.38Z"/><path class="cls-7" d="M646.48,68.06a10.2,10.2,0,0,1-6.61-18,1.23,1.23,0,0,0,.51-0.76,1.25,1.25,0,0,1,2.1-1,2.71,2.71,0,0,1,.8,2.19,5.3,5.3,0,0,1-.05.73,7.81,7.81,0,0,1-.25,1.14,5.27,5.27,0,0,1-.19.52,3.64,3.64,0,0,0-.15.42,1.27,1.27,0,0,0,0,.43,0.89,0.89,0,0,0,.31.45,0.75,0.75,0,0,0,.52.19,1.06,1.06,0,0,0,.31-0.06c0.7-.24.61-1.45,0.49-2.14a9.68,9.68,0,0,0-.43-1.51,8,8,0,0,1-.57-2.64,7.79,7.79,0,0,1,.2-1.76,7.13,7.13,0,0,1,1-2.32,9.68,9.68,0,0,1,1-1.23l0.28-.31a1.72,1.72,0,0,1,.89-0.54,1.25,1.25,0,0,1,1.52,1.25,1.94,1.94,0,0,1-.09.51c-0.42,1.46,1,2.76,2.11,3.62a18.92,18.92,0,0,1,4.78,4.87A10.2,10.2,0,0,1,646.48,68.06Z"/><path class="cls-6" d="M646.9,43.13a0.71,0.71,0,0,1,0,.18c-0.72,2.47,1.72,4.34,2.54,5a17.72,17.72,0,0,1,4.5,4.56A9,9,0,1,1,640.68,51a2.35,2.35,0,0,0,.95-1.78l0.05,0a1.57,1.57,0,0,1,.36,1.23,4.15,4.15,0,0,1,0,.56,6.59,6.59,0,0,1-.21,1,4.16,4.16,0,0,1-.15.41,4.5,4.5,0,0,0-.2.57,2.45,2.45,0,0,0,0,.89,2.13,2.13,0,0,0,2.07,1.74,2.29,2.29,0,0,0,.72-0.13c0.67-.23,1.74-1,1.31-3.53a10.84,10.84,0,0,0-.48-1.7,7,7,0,0,1-.5-2.24,6.57,6.57,0,0,1,.17-1.48,5.84,5.84,0,0,1,.81-1.91,8.56,8.56,0,0,1,.89-1.07l0.29-.31a0.47,0.47,0,0,1,.23-0.15m0-2.5a2.5,2.5,0,0,0-.53.06,2.94,2.94,0,0,0-1.56.92l-0.27.29a10.65,10.65,0,0,0-1.14,1.39A8.34,8.34,0,0,0,642.24,46q-0.09.39-.14,0.78a2.5,2.5,0,0,0-3,2.26l-0.07.07A11.45,11.45,0,1,0,656,51.45a20.21,20.21,0,0,0-5.08-5.17c-1.53-1.19-1.74-1.88-1.64-2.26a3.18,3.18,0,0,0,.14-0.78,2.5,2.5,0,0,0-2.5-2.61h0Z"/><path class="cls-8" d="M671.11,68.06a10.2,10.2,0,0,1-6.61-18,1.23,1.23,0,0,0,.51-0.76,1.25,1.25,0,0,1,2.1-1,2.71,2.71,0,0,1,.8,2.19,5.24,5.24,0,0,1-.05.74,7.77,7.77,0,0,1-.25,1.14,5.27,5.27,0,0,1-.19.52,3.34,3.34,0,0,0-.15.42,1.22,1.22,0,0,0,0,.43,0.89,0.89,0,0,0,.31.45,0.74,0.74,0,0,0,.52.19,1.06,1.06,0,0,0,.31-0.06c0.7-.24.61-1.45,0.49-2.14a9.67,9.67,0,0,0-.43-1.51,8,8,0,0,1-.56-2.64,7.79,7.79,0,0,1,.2-1.76,7.09,7.09,0,0,1,1-2.32,9.58,9.58,0,0,1,1-1.23l0.28-.3a1.72,1.72,0,0,1,.89-0.53,1.25,1.25,0,0,1,1.52,1.29,2,2,0,0,1-.09.49c-0.42,1.45,1,2.75,2.11,3.6a18.92,18.92,0,0,1,4.78,4.87A10.2,10.2,0,0,1,671.11,68.06Z"/><path class="cls-6" d="M671.53,43.13a0.71,0.71,0,0,1,0,.18c-0.72,2.47,1.72,4.34,2.54,5a17.72,17.72,0,0,1,4.5,4.56A9,9,0,1,1,665.31,51a2.35,2.35,0,0,0,.95-1.78l0.05,0a1.57,1.57,0,0,1,.36,1.23,4.15,4.15,0,0,1,0,.56,6.59,6.59,0,0,1-.21,1,4.17,4.17,0,0,1-.15.41,4.5,4.5,0,0,0-.2.57,2.45,2.45,0,0,0,0,.89,2.13,2.13,0,0,0,2.07,1.74,2.29,2.29,0,0,0,.72-0.13c0.67-.23,1.74-1,1.31-3.53a10.83,10.83,0,0,0-.48-1.7,7,7,0,0,1-.5-2.24,6.57,6.57,0,0,1,.17-1.48,5.84,5.84,0,0,1,.81-1.91A8.56,8.56,0,0,1,671,43.6l0.29-.31a0.47,0.47,0,0,1,.23-0.15m0-2.5a2.5,2.5,0,0,0-.53.06,2.94,2.94,0,0,0-1.56.92l-0.27.29A10.65,10.65,0,0,0,668,43.3,8.34,8.34,0,0,0,666.87,46q-0.09.39-.14,0.78a2.5,2.5,0,0,0-3,2.26l-0.07.07a11.45,11.45,0,1,0,16.91,2.32,20.21,20.21,0,0,0-5.08-5.17c-1.53-1.19-1.74-1.88-1.64-2.26a3.18,3.18,0,0,0,.14-0.78,2.5,2.5,0,0,0-2.5-2.61h0Z"/><polygon class="cls-9" points="54.15 63.13 54.15 47.9 63.62 42.42 73.1 47.9 73.1 63.13 63.62 68.6 54.15 63.13"/><path class="cls-6" d="M63.62,43.57l8.48,4.9V62.56l-8.48,4.9-8.48-4.9V48.47l8.48-4.9m0-2.29-1,.57-8.48,4.9-1,.57V63.7l1,0.57,8.48,4.9,1,0.57,1-.57,8.48-4.9,1-.57V47.32l-1-.57-8.48-4.9-1-.57h0Z"/><polygon class="cls-10" points="63.63 43.58 63.62 43.57 55.15 48.46 58.71 51.43 63.63 49.81 63.63 43.58"/><polygon class="cls-11" points="63.63 67.43 63.64 67.44 72.11 62.55 68.56 59.58 63.63 61.19 63.63 67.43"/><polygon class="cls-12" points="63.62 48.59 68.54 51.43 68.54 59.59 63.62 62.43 58.71 59.59 58.71 51.43 63.62 48.59"/><path class="cls-6" d="M59.28,53.72a0.07,0.07,0,0,1-.07,0,4.53,4.53,0,0,0-2.43-2.48,0.07,0.07,0,0,1,0-.13,4.54,4.54,0,0,0,2.43-2.48,0.07,0.07,0,0,1,.07,0h0a0.07,0.07,0,0,1,.07,0,4.54,4.54,0,0,0,2.43,2.48,0.07,0.07,0,0,1,0,.13,4.53,4.53,0,0,0-2.43,2.48A0.07,0.07,0,0,1,59.28,53.72Z"/><path class="cls-6" d="M59.28,48.62a4.59,4.59,0,0,0,2.47,2.52,4.59,4.59,0,0,0-2.47,2.52,4.59,4.59,0,0,0-2.47-2.52,4.59,4.59,0,0,0,2.47-2.52m0-.15a0.15,0.15,0,0,0-.14.09A4.46,4.46,0,0,1,56.75,51a0.15,0.15,0,0,0,0,.27,4.46,4.46,0,0,1,2.39,2.44,0.15,0.15,0,0,0,.27,0,4.46,4.46,0,0,1,2.39-2.44,0.15,0.15,0,0,0,0-.27,4.46,4.46,0,0,1-2.39-2.44,0.15,0.15,0,0,0-.14-0.09h0Z"/><polygon class="cls-13" points="65.5 49.68 58.71 56.48 58.71 59.59 59.52 60.07 68.3 51.29 65.5 49.68"/><polygon class="cls-13" points="61.92 61.45 68.54 54.83 68.54 52.66 60.55 60.66 61.92 61.45"/><polygon class="cls-9" points="106.59 140 132.93 155.21 132.93 198.96 106.59 214.17 80.24 198.96 80.24 155.21 106.59 140"/><polygon class="cls-10" points="106.63 140.02 106.59 140 80.29 155.18 91.33 164.41 106.63 159.39 106.63 140.02"/><polygon class="cls-11" points="106.61 214.09 106.65 214.11 132.94 198.93 121.91 189.7 106.61 194.72 106.61 214.09"/><polygon class="cls-12" points="106.59 155.6 121.85 164.41 121.85 189.76 106.59 198.57 91.33 189.76 91.33 164.41 106.59 155.6"/><path class="cls-6" d="M93.1,169.81a0.18,0.18,0,0,1-.17-0.11,11.07,11.07,0,0,0-5.94-6,0.18,0.18,0,0,1,0-.33,11.06,11.06,0,0,0,5.94-6,0.18,0.18,0,0,1,.17-0.11h0a0.18,0.18,0,0,1,.17.11,11.06,11.06,0,0,0,5.94,6,0.18,0.18,0,0,1,0,.33,11.06,11.06,0,0,0-5.94,6A0.18,0.18,0,0,1,93.1,169.81Z"/><path class="cls-6" d="M93.1,157.34a11.2,11.2,0,0,0,6,6.15,11.2,11.2,0,0,0-6,6.15,11.2,11.2,0,0,0-6-6.15,11.2,11.2,0,0,0,6-6.15m0-.36a0.36,0.36,0,0,0-.33.22,10.88,10.88,0,0,1-5.84,5.95,0.36,0.36,0,0,0,0,.66,10.88,10.88,0,0,1,5.84,5.95,0.36,0.36,0,0,0,.66,0,10.88,10.88,0,0,1,5.84-5.95,0.36,0.36,0,0,0,0-.66,10.88,10.88,0,0,1-5.84-5.95A0.36,0.36,0,0,0,93.1,157h0Z"/><polygon class="cls-13" points="112.43 158.97 91.33 180.08 91.33 189.76 93.86 191.22 121.1 163.98 112.43 158.97"/><polygon class="cls-13" points="101.3 195.52 121.85 174.96 121.85 168.23 97.03 193.05 101.3 195.52"/><rect class="cls-6" x="37.48" y="52.58" width="1.96" height="2.38"/><path class="cls-14" d="M87.25,60A1,1,0,0,1,86.93,60a0.9,0.9,0,0,1-.25-0.14c-5.45-3.93-8-6.06-9.59-7.86A7.69,7.69,0,0,1,75,46.32s0,0,0-.06A6.54,6.54,0,0,1,81.77,40a7,7,0,0,1,5.48,2.59A7,7,0,0,1,92.73,40a6.54,6.54,0,0,1,6.77,6.26s0,0,0,.06A7.69,7.69,0,0,1,97.41,52c-1.54,1.79-4.14,3.92-9.6,7.86a0.91,0.91,0,0,1-.22.12A1,1,0,0,1,87.25,60Z"/><path class="cls-8" d="M138.5,60a1,1,0,0,1-.32-0.05,0.92,0.92,0,0,1-.26-0.14c-5.56-3.93-8.21-6.06-9.79-7.86A7.6,7.6,0,0,1,126,46.32s0,0,0-.06c0-3.45,3.1-6.26,6.91-6.26a7.21,7.21,0,0,1,5.59,2.59A7.22,7.22,0,0,1,144.09,40c3.81,0,6.91,2.81,6.91,6.26,0,0,0,0,0,.06A7.6,7.6,0,0,1,148.87,52c-1.57,1.79-4.23,3.92-9.79,7.86a0.94,0.94,0,0,1-.23.12A1,1,0,0,1,138.5,60Z"/><path class="cls-8" d="M138.25,60a1,1,0,0,1-.32-0.05,0.9,0.9,0,0,1-.25-0.14c-5.45-3.93-8-6.06-9.59-7.86A7.69,7.69,0,0,1,126,46.32s0,0,0-.06A6.54,6.54,0,0,1,132.77,40a7,7,0,0,1,5.48,2.59A7,7,0,0,1,143.73,40a6.54,6.54,0,0,1,6.77,6.26s0,0,0,.06A7.69,7.69,0,0,1,148.41,52c-1.54,1.79-4.14,3.92-9.6,7.86a0.91,0.91,0,0,1-.22.12A1,1,0,0,1,138.25,60Z"/><path class="cls-15" d="M409.14,62.42a0.85,0.85,0,0,1-.28,0,0.79,0.79,0,0,1-.22-0.12c-4.74-3.38-7-5.21-8.35-6.74a6.55,6.55,0,0,1-1.81-4.86s0,0,0-.05a5.66,5.66,0,0,1,5.89-5.37,6.14,6.14,0,0,1,4.77,2.22,6.14,6.14,0,0,1,4.77-2.22,5.66,5.66,0,0,1,5.89,5.37s0,0,0,.05A6.55,6.55,0,0,1,418,55.51c-1.34,1.54-3.61,3.37-8.35,6.75a0.8,0.8,0,0,1-.19.11A0.86,0.86,0,0,1,409.14,62.42Z"/><path class="cls-16" d="M115.13,52.85a0.93,0.93,0,0,1,1.24-.07L124,45.14a2,2,0,0,0,0-2.83l-1.18-1.18a2,2,0,0,0-2.83,0l-7.4,7.4a0.93,0.93,0,0,1-1.28,1.28l-0.86.86a2,2,0,0,0-.13,2.66l-6,6-0.72-.72-2.77,3.73,1.71,1.71,3.73-2.77-0.8-.8,6-6,0.16,0.16a2,2,0,0,0,2.83,0l0.6-.6A0.93,0.93,0,0,1,115.13,52.85Z"/><path class="cls-16" d="M117.57,53.93l-2.75,2.75,6.5,7,3.44-3.25Zm3.88,7.69a1.25,1.25,0,1,1,1.25-1.25A1.25,1.25,0,0,1,121.44,61.62Z"/><polygon class="cls-16" points="107.04 51.39 112.11 46.2 109.79 41.21 106.09 40 105.48 41.41 107.63 43.37 107.93 45.13 106.05 46.95 104.29 46.65 102.49 44.42 101.2 44.85 102.02 48.96 107.04 51.39"/><path class="cls-6" d="M182.88,45.38c-3.93,0-3.34,4.78-6.25,4.48a11.28,11.28,0,0,0-10.44-7c-5.07,0-9.67,4.42-10.5,9.27-1.52-.27-2-1.83-2.74-1.83-1.55,0,.33,3.9,4.11,6.68a7,7,0,0,0,1,.75c-0.26,1.1-.95,2-1,3.1-0.12,1.37.4,1.92,1.4,2s2.16-.38,2.33-3.06a4.61,4.61,0,0,1,.1-0.76,20.24,20.24,0,0,0,5.13.92,26.06,26.06,0,0,0,5.42-.41,8.21,8.21,0,0,0,.36,2.43c0.52,1.27,1.23,1.52,2.16,1.14s1.75-1.33.67-3.79a4.6,4.6,0,0,1-.26-0.73A4.88,4.88,0,0,0,177.37,54a12.13,12.13,0,0,0-.22-2.31c1.35,0.26,2,1.38,4.92,1.38a4.24,4.24,0,0,0,4.56-3.56C186.78,48.54,186.88,45.38,182.88,45.38Z"/><path class="cls-17" d="M190.75,45.25a11,11,0,0,1-.12,8"/><path class="cls-17" d="M196,42s3.06,7.48-.23,14.5"/><circle class="cls-18" cx="215.2" cy="55.02" r="14.91"/><path class="cls-6" d="M218.43,48l-1.48,1.64L218,50.4l-1.67,4,0.7-3.42-1.49-1.14,1.53-3a3.76,3.76,0,0,0-1.94-.58c-3.72,0-6.74,6.44-6.74,10.16a6.74,6.74,0,0,0,13.47,0A14,14,0,0,0,218.43,48Z"/><path class="cls-19" d="M221.46,53.59a8,8,0,0,1-8.13,6.92,8.58,8.58,0,0,1-4.17-1.06,6.7,6.7,0,0,0,6,3.5,6.52,6.52,0,0,0,6.74-6.47A11,11,0,0,0,221.46,53.59Z"/><path class="cls-9" d="M241.71,61.25a10.1,10.1,0,1,1,10.1-10.1A10.12,10.12,0,0,1,241.71,61.25Z"/><path class="cls-6" d="M241.71,42a9.1,9.1,0,1,1-9.1,9.1,9.1,9.1,0,0,1,9.1-9.1m0-2a11.1,11.1,0,1,0,11.1,11.1A11.12,11.12,0,0,0,241.71,40h0Z"/><polygon class="cls-6" points="278.71 52.67 278.34 50.35 281.4 49.85 290.09 50.17 293.59 50.35 293.77 52.6 291.27 57.42 286.71 58.85 281.46 57.04 279.09 54.92 278.71 52.67"/><circle class="cls-6" cx="245.94" cy="48.86" r="1.3"/><circle class="cls-6" cx="237.46" cy="48.86" r="1.3"/><path class="cls-6" d="M236.85,55.92a4.82,4.82,0,0,1,9.65,0"/><path class="cls-20" d="M286.4,61.17A10.06,10.06,0,1,1,296.46,51.1,10.07,10.07,0,0,1,286.4,61.17Zm-5.56-9.24a5.68,5.68,0,0,0,11.17,0H280.84Z"/><path class="cls-6" d="M286.4,42a9.06,9.06,0,1,1-9.06,9.06A9.06,9.06,0,0,1,286.4,42m0,15.56a6.68,6.68,0,0,0,6.68-6.68H279.75a6.68,6.68,0,0,0,6.68,6.68m0-17.56A11.06,11.06,0,1,0,297.46,51.1,11.08,11.08,0,0,0,286.4,40h0Zm-4.2,12.89h8.45a4.67,4.67,0,0,1-8.45,0h0Z"/><circle class="cls-6" cx="290.65" cy="47.89" r="1.29"/><circle class="cls-6" cx="282.21" cy="47.89" r="1.29"/><path class="cls-21" d="M264.09,42a9.15,9.15,0,1,0,9.15,9.15A9.15,9.15,0,0,0,264.09,42Zm5.11,12.59H259.07a1,1,0,0,1,0-2H269.2A1,1,0,0,1,269.2,54.59Z"/><path class="cls-21" d="M264.09,61.29a10.15,10.15,0,1,1,10.15-10.15A10.16,10.16,0,0,1,264.09,61.29Z"/><path class="cls-6" d="M264.09,42a9.15,9.15,0,1,1-9.15,9.15A9.15,9.15,0,0,1,264.09,42m0-2a11.15,11.15,0,1,0,11.15,11.15A11.16,11.16,0,0,0,264.09,40h0Z"/><circle class="cls-6" cx="268.33" cy="48.81" r="1.3"/><circle class="cls-6" cx="259.81" cy="48.81" r="1.3"/><path class="cls-6" d="M270.18,53.61a1,1,0,0,1-1,1H259.07a1,1,0,0,1-1-1h0a1,1,0,0,1,1-1H269.2a1,1,0,0,1,1,1h0Z"/><path class="cls-22" d="M310.83,49.15l-8.29-8.29a2.42,2.42,0,0,0-3.42,3.42l6.59,6.59-6.59,6.59a2.42,2.42,0,0,0,3.42,3.42l8.29-8.29A2.45,2.45,0,0,0,310.83,49.15Z"/><polygon class="cls-6" points="339.94 49 312.84 49 316.52 40 336.39 40 339.94 49"/><rect class="cls-23" x="315" y="59" width="23" height="5"/><rect class="cls-23" x="315" y="50" width="3" height="10"/><rect class="cls-23" x="335" y="50" width="3" height="10"/><polygon class="cls-24" points="337.47 60 315.14 60 316.72 56 335.89 56 337.47 60"/><polygon class="cls-25" points="312.81 49 318.11 49 320.63 40 316.4 40 312.81 49"/><polygon class="cls-25" points="339.93 49 334.63 49 332.11 40 336.46 40 339.93 49"/><polygon class="cls-25" points="323.66 49 329.08 49 328.57 40 324.16 40 323.66 49"/><path class="cls-25" d="M318.11,49.18a2.65,2.65,0,1,1-5.3,0"/><path class="cls-25" d="M329.08,49.18a2.71,2.71,0,1,1-5.42,0"/><path class="cls-25" d="M339.92,49.18a2.65,2.65,0,1,1-5.3,0"/><path class="cls-26" d="M334.62,49.18a2.77,2.77,0,1,1-5.54,0"/><path class="cls-26" d="M323.64,49.18a2.77,2.77,0,1,1-5.54,0"/><path class="cls-4" d="M351.09,65.13a3.57,3.57,0,0,1-3.52-3h-3a1,1,0,0,1-.29,0h-2.25a1,1,0,0,1-.82-1.57L343.61,57V50.38a1,1,0,0,1,0-.22,7.47,7.47,0,0,1,4.23-6.48,3.19,3.19,0,0,1,6.28-.07,7.44,7.44,0,0,1,4.36,6.55,1,1,0,0,1,0,.21v6.75l2.14,3.38a1,1,0,0,1-.85,1.53h-2a0.93,0.93,0,0,1-.28,0h-2.91A3.57,3.57,0,0,1,351.09,65.13Z"/><path class="cls-6" d="M351,42a2.19,2.19,0,0,1,2.19,2.19s0,0.07,0,.11a6.43,6.43,0,0,1,4.32,6.08h0v7L359.82,61h-2.29v0H353.6a2.56,2.56,0,1,1-5,0h-4v0h-2.54l2.5-3.62h0v-7h0a6.43,6.43,0,0,1,4.2-6c0-.05,0-0.1,0-0.16A2.19,2.19,0,0,1,351,42m0-2a4.19,4.19,0,0,0-4,3A8.48,8.48,0,0,0,342.64,50a2,2,0,0,0,0,.33v6.36l-2.19,3.17A2,2,0,0,0,342.07,63h2.14a1.93,1.93,0,0,0,.4,0h2.18a4.56,4.56,0,0,0,8.6,0h2.14a2,2,0,0,0,.41,0h1.88A2,2,0,0,0,361.51,60l-2-3.14V50.38a2,2,0,0,0,0-.33,8.44,8.44,0,0,0-4.5-7.13A4.19,4.19,0,0,0,351,40h0Z"/><path class="cls-27" d="M389.53,64.19a2.31,2.31,0,0,1-1.65-.68l-2.63-2.63a2.32,2.32,0,0,1,3.28-3.28l1,1,4-4a2.32,2.32,0,1,1,3.28,3.28l-5.63,5.63a2.3,2.3,0,0,1-1.64.68h0Z"/><path class="cls-6" d="M395.18,54.92a1.32,1.32,0,0,1,.93,2.25l-5.63,5.63a1.31,1.31,0,0,1-.93.39h0a1.31,1.31,0,0,1-.93-0.39L386,60.17a1.32,1.32,0,1,1,1.87-1.87L389.54,60l4.71-4.71a1.32,1.32,0,0,1,.93-0.39m0-2a3.3,3.3,0,0,0-2.35,1l-3.3,3.3-0.3-.3a3.32,3.32,0,1,0-4.7,4.7l2.63,2.63a3.35,3.35,0,0,0,4.72,0l5.63-5.63a3.32,3.32,0,0,0-2.35-5.67h0Z"/><polygon class="cls-28" points="471.19 40.06 483.07 51.67 494.63 40.06 471.19 40.06"/><polygon class="cls-28" points="470.13 41.56 478.02 50.21 470.13 58.85 470.13 41.56"/><polygon class="cls-28" points="496.02 41.56 488.13 50.21 496.02 58.85 496.02 41.56"/><polygon class="cls-28" points="471.44 59.92 494.61 59.92 486.73 51.63 482.9 55.04 479.32 51.63 471.44 59.92"/><polygon class="cls-6" points="497.19 40.06 509.07 51.67 520.63 40.06 497.19 40.06"/><polygon class="cls-6" points="496.13 41.56 504.02 50.21 496.13 58.85 496.13 41.56"/><polygon class="cls-6" points="522.02 41.56 514.13 50.21 522.02 58.85 522.02 41.56"/><polygon class="cls-6" points="497.44 59.92 520.61 59.92 512.73 51.63 508.9 55.04 505.32 51.63 497.44 59.92"/><path d="M540.71,48h-5.46V42.52a2.54,2.54,0,0,0-5.08,0V48h-5.46a2.54,2.54,0,1,0,0,5.08h5.46v5.46a2.54,2.54,0,1,0,5.08,0V53.06h5.46A2.54,2.54,0,0,0,540.71,48Z"/><path class="cls-6" d="M573.29,75.49h-3.55V71.94a1.65,1.65,0,0,0-3.31,0v3.55h-3.55a1.65,1.65,0,1,0,0,3.31h3.55v3.55a1.65,1.65,0,1,0,3.31,0V78.8h3.55A1.65,1.65,0,0,0,573.29,75.49Z"/><path class="cls-6" d="M563.9,50.92V48.29l-2.16-.3a7.54,7.54,0,0,0-1-2.57L562,43.77l-1.86-1.86-1.55,1.18a7.56,7.56,0,0,0-2.71-1.2L555.65,40H553l-0.25,1.81A7.56,7.56,0,0,0,550,43l-1.47-1.11-1.86,1.86,1.16,1.53a7.55,7.55,0,0,0-1,2.72l-2,.27v2.63l2.12,0.29A7.56,7.56,0,0,0,548,53.64l-1.36,1.8,1.86,1.86,1.89-1.44a7.54,7.54,0,0,0,2.29.9L553,59.17h2.63L556,56.71a7.55,7.55,0,0,0,2.21-.91l2,1.49L562,55.44l-1.45-1.91a7.56,7.56,0,0,0,1-2.3Zm-9.65,1.75a3.35,3.35,0,1,1,3.35-3.35A3.35,3.35,0,0,1,554.25,52.67Z"/><path class="cls-6" d="M591,79.24V77.09l-1.77-.24a6.16,6.16,0,0,0-.78-2.1l1-1.35L588,71.88l-1.27,1a6.18,6.18,0,0,0-2.22-1l-0.21-1.51h-2.14l-0.2,1.48a6.18,6.18,0,0,0-2.29,1l-1.2-.91-1.52,1.52,0.95,1.25a6.16,6.16,0,0,0-.85,2.22l-1.63.22v2.14l1.73,0.24a6.18,6.18,0,0,0,.91,2l-1.11,1.47,1.52,1.52L580,83.28a6.16,6.16,0,0,0,1.87.73l0.27,2h2.14l0.28-2a6.17,6.17,0,0,0,1.81-.74L588,84.45l1.52-1.52-1.18-1.56a6.18,6.18,0,0,0,.84-1.88Zm-7.88,1.43a2.74,2.74,0,1,1,2.74-2.74A2.74,2.74,0,0,1,583.14,80.67Z"/><polygon class="cls-6" points="566.28 58.94 562.63 64.28 558.98 58.94 566.28 58.94"/><path d="M575.46,44.81l3.05-3.05a1,1,0,1,0-1.39-1.39l-3.74,3.74a1,1,0,0,0,0,1.39l3.74,3.74a1,1,0,1,0,1.39-1.39Z"/><path d="M480.12,78.24l5.2-5.2A1.67,1.67,0,0,0,483,70.67l-6.38,6.38a1.69,1.69,0,0,0,0,2.38L483,85.8a1.67,1.67,0,0,0,2.37-2.37Z"/><path class="cls-6" d="M490.12,78.24l5.2-5.2A1.67,1.67,0,0,0,493,70.67l-6.38,6.38a1.69,1.69,0,0,0,0,2.38L493,85.8a1.67,1.67,0,0,0,2.37-2.37Z"/><path class="cls-29" d="M412.12,78.24l5.2-5.2A1.67,1.67,0,0,0,415,70.67l-6.38,6.38a1.69,1.69,0,0,0,0,2.38L415,85.8a1.67,1.67,0,0,0,2.37-2.37Z"/><path class="cls-28" d="M422.12,78.24l5.2-5.2A1.67,1.67,0,0,0,425,70.67l-6.38,6.38a1.69,1.69,0,0,0,0,2.38L425,85.8a1.67,1.67,0,0,0,2.37-2.37Z"/><path d="M582.43,44.81l-3.05,3.05a1,1,0,0,0,1.39,1.39l3.74-3.74a1,1,0,0,0,0-1.39l-3.74-3.74a1,1,0,0,0-1.39,1.39Z"/><path class="cls-28" d="M575.46,54.81l3.05-3.05a1,1,0,1,0-1.39-1.39l-3.74,3.74a1,1,0,0,0,0,1.39l3.74,3.74a1,1,0,1,0,1.39-1.39Z"/><path class="cls-28" d="M582.43,54.81l-3.05,3.05a1,1,0,0,0,1.39,1.39l3.74-3.74a1,1,0,0,0,0-1.39l-3.74-3.74a1,1,0,0,0-1.39,1.39Z"/><path class="cls-30" d="M123.42,85.83l-5.25-5.25A1.69,1.69,0,0,0,115.78,83l6.44,6.44a1.7,1.7,0,0,0,2.4,0L131.06,83a1.69,1.69,0,0,0-2.39-2.39Z"/><path class="cls-31" d="M123.42,74.1l5.25,5.25A1.69,1.69,0,0,0,131.06,77l-6.44-6.44a1.7,1.7,0,0,0-2.4,0L115.78,77a1.69,1.69,0,0,0,2.39,2.39Z"/><path class="cls-29" d="M106.42,85.83l-5.25-5.25A1.69,1.69,0,1,0,98.78,83l6.44,6.44a1.7,1.7,0,0,0,2.4,0L114.06,83a1.69,1.69,0,1,0-2.39-2.39Z"/><path class="cls-29" d="M106.42,74.1l5.25,5.25A1.69,1.69,0,0,0,114.06,77l-6.44-6.44a1.7,1.7,0,0,0-2.4,0L98.78,77a1.69,1.69,0,0,0,2.39,2.39Z"/><path class="cls-16" d="M13.42,70.35a1,1,0,0,0-1.38,0L6.88,75.51,1.66,70.29A1,1,0,1,0,.29,71.66L6,77.36a1,1,0,0,0,.17.25,1,1,0,0,0,1.38,0l5.89-5.89A1,1,0,0,0,13.42,70.35Z"/><path class="cls-16" d="M89.5,70.29a1,1,0,0,0,0,1.38l5.16,5.16L89.44,82a1,1,0,0,0,1.38,1.38l5.7-5.7a1,1,0,0,0,.25-0.17,1,1,0,0,0,0-1.38l-5.89-5.89A1,1,0,0,0,89.5,70.29Z"/><path class="cls-32" d="M13.42,78.45a1,1,0,0,0-1.38,0L6.88,83.61,1.66,78.39A1,1,0,1,0,.29,79.76L6,85.46a1,1,0,0,0,.17.25,1,1,0,0,0,1.38,0l5.89-5.89A1,1,0,0,0,13.42,78.45Z"/><circle class="cls-31" cx="24" cy="80" r="10"/><path class="cls-6" d="M29.46,76.6a1,1,0,0,0-1.43,0L22.66,82l-2.31-2.31a1,1,0,0,0-1.43,1.43l2.81,2.81a1,1,0,0,0,.18.26,1,1,0,0,0,1.43,0L29.46,78A1,1,0,0,0,29.46,76.6Z"/><path class="cls-16" d="M44.75,76V74.14a4.14,4.14,0,0,0-8.28,0V76H35.23v8.08H46V76H44.75Zm-6.42-1.86a2.28,2.28,0,0,1,4.55,0V76H38.33V74.14Z"/><path class="cls-6" d="M628,51.56v-2.2a4.91,4.91,0,0,0-9.82,0v2.2h-1.46v9.59h12.75V51.56H628Zm-7.61-2.2a2.7,2.7,0,0,1,5.4,0v2.2h-5.4v-2.2Z"/><path class="cls-33" d="M53.57,73.25a3.25,3.25,0,1,0-4.52,3L47,82.93h6.56L51.43,76.3A3.25,3.25,0,0,0,53.57,73.25Z"/><path class="cls-32" d="M83,70a4.62,4.62,0,0,0-3.73,7.35L83,84l3.75-6.66A4.62,4.62,0,0,0,83,70Zm0,6.31a1.69,1.69,0,1,1,1.69-1.69A1.69,1.69,0,0,1,83,76.31Z"/><path class="cls-29" d="M145.67,82L142,78.33a5.47,5.47,0,1,0-1.67,1.6L144,83.67A1.16,1.16,0,0,0,145.67,82Zm-8.23-3.66a3.06,3.06,0,1,1,3.06-3.06A3.06,3.06,0,0,1,137.44,78.38Z"/><path class="cls-34" d="M166.69,81.09V78.41l-2.21-.3a7.69,7.69,0,0,0-1-2.62l1.27-1.68-1.89-1.89-1.58,1.2a7.71,7.71,0,0,0-2.77-1.22L158.28,70H155.6l-0.26,1.85a7.71,7.71,0,0,0-2.86,1.2L151,71.91,149.1,73.8l1.18,1.56a7.69,7.69,0,0,0-1.06,2.77l-2,.28v2.68l2.16,0.3a7.71,7.71,0,0,0,1.13,2.48L149.1,85.7,151,87.59l1.93-1.46a7.69,7.69,0,0,0,2.34.91l0.34,2.46h2.68l0.35-2.5a7.69,7.69,0,0,0,2.26-.93l2,1.52,1.89-1.89-1.47-1.95a7.71,7.71,0,0,0,1-2.34Zm-9.84,1.78a3.42,3.42,0,1,1,3.42-3.42A3.42,3.42,0,0,1,156.86,82.87Z"/><path class="cls-28" d="M186.69,81.09V78.41l-2.21-.3a7.69,7.69,0,0,0-1-2.62l1.27-1.68-1.89-1.89-1.58,1.2a7.71,7.71,0,0,0-2.77-1.22L178.28,70H175.6l-0.26,1.85a7.71,7.71,0,0,0-2.86,1.2L171,71.91,169.1,73.8l1.18,1.56a7.69,7.69,0,0,0-1.06,2.77l-2,.28v2.68l2.16,0.3a7.71,7.71,0,0,0,1.13,2.48L169.1,85.7,171,87.59l1.93-1.46a7.69,7.69,0,0,0,2.34.91l0.34,2.46h2.68l0.35-2.5a7.69,7.69,0,0,0,2.26-.93l2,1.52,1.89-1.89-1.47-1.95a7.71,7.71,0,0,0,1-2.34Zm-9.84,1.78a3.42,3.42,0,1,1,3.42-3.42A3.42,3.42,0,0,1,176.86,82.87Z"/><path class="cls-18" d="M223.42,70.35a1,1,0,0,0-1.38,0l-5.16,5.16-5.22-5.22a1,1,0,0,0-1.38,1.38l5.7,5.7a1,1,0,0,0,.17.25,1,1,0,0,0,1.38,0l5.89-5.89A1,1,0,0,0,223.42,70.35Z"/><path class="cls-6" d="M223.42,78.45a1,1,0,0,0-1.38,0l-5.16,5.16-5.22-5.22a1,1,0,0,0-1.38,1.38l5.7,5.7a1,1,0,0,0,.17.25,1,1,0,0,0,1.38,0l5.89-5.89A1,1,0,0,0,223.42,78.45Z"/><path class="cls-6" d="M313.42,70.31a1,1,0,0,0,0,1.38l5.16,5.16-5.22,5.22a1,1,0,0,0,1.38,1.38l5.7-5.7a1,1,0,0,0,.25-0.17,1,1,0,0,0,0-1.38l-5.89-5.89A1,1,0,0,0,313.42,70.31Z"/><path class="cls-5" d="M228.44,77.14a3.16,3.16,0,0,0,.12-0.31,5,5,0,0,0,.16-0.73,3.15,3.15,0,0,0,0-.43,1.19,1.19,0,0,0-.27-0.94l0,0a1.79,1.79,0,0,1-.72,1.35,6.8,6.8,0,1,0,10,1.38A13.47,13.47,0,0,0,234.34,74c-0.62-.48-2.48-1.91-1.93-3.78a0.54,0.54,0,0,0,0-.13,0.36,0.36,0,0,0-.18.12l-0.22.24a6.5,6.5,0,0,0-.68.81,4.44,4.44,0,0,0-.62,1.45,5,5,0,0,0-.13,1.12,5.28,5.28,0,0,0,.38,1.7,8.24,8.24,0,0,1,.36,1.29c0.33,1.92-.48,2.51-1,2.68a1.74,1.74,0,0,1-.55.1,1.62,1.62,0,0,1-1.57-1.33,1.86,1.86,0,0,1,0-.68A3.43,3.43,0,0,1,228.44,77.14Z"/><path class="cls-35" d="M254.6,80.08l3.9-3.9a3.29,3.29,0,1,0-4.66-4.66l-3.9,3.9-3.9-3.9a3.29,3.29,0,0,0-4.66,4.66l3.9,3.9-3.9,3.9A3.29,3.29,0,0,0,246,88.64l3.9-3.9,3.9,3.9A3.29,3.29,0,1,0,258.5,84Z"/><path class="cls-30" d="M230.91,105.44l6.33-6.33a5.34,5.34,0,0,0-7.55-7.55l-6.33,6.33L217,91.56a5.34,5.34,0,0,0-7.55,7.55l6.33,6.33-6.33,6.33a5.34,5.34,0,0,0,7.55,7.55l6.33-6.33,6.33,6.33a5.34,5.34,0,0,0,7.55-7.55Z"/><path class="cls-6" d="M269.16,75.48l2.25-2.25a1.89,1.89,0,1,0-2.68-2.68l-2.25,2.25-2.25-2.25a1.89,1.89,0,0,0-2.68,2.68l2.25,2.25-2.25,2.25a1.89,1.89,0,0,0,2.68,2.68l2.25-2.25,2.25,2.25a1.89,1.89,0,1,0,2.68-2.68Z"/><path class="cls-6" d="M198.74,80a0.7,0.7,0,0,1-.63-1,5.43,5.43,0,0,0,.06-3.93,0.7,0.7,0,0,1,1.3-.53,6.84,6.84,0,0,1-.08,5.05A0.7,0.7,0,0,1,198.74,80Z"/><path class="cls-6" d="M201.63,81.83a0.7,0.7,0,0,1-.63-1,10.53,10.53,0,0,0,.11-7.57,0.7,0.7,0,0,1,1.3-.53,11.78,11.78,0,0,1-.14,8.7A0.7,0.7,0,0,1,201.63,81.83Z"/><path class="cls-6" d="M189.41,74.19H191a0.41,0.41,0,0,0,.26-0.09l4.34-3.6a0.41,0.41,0,0,1,.67.32V83.14a0.41,0.41,0,0,1-.67.32L191.36,80a0.41,0.41,0,0,0-.26-0.09h-1.46A1.63,1.63,0,0,1,188,78.31V75.6A1.41,1.41,0,0,1,189.41,74.19Z"/><path class="cls-6" d="M148.43,125.62a2.55,2.55,0,0,1-2.31-3.63c3.19-6.82.24-14.21,0.2-14.28a2.55,2.55,0,0,1,4.72-1.93c0.16,0.39,3.82,9.56-.31,18.38A2.55,2.55,0,0,1,148.43,125.62Z"/><path class="cls-6" d="M159,132.25a2.55,2.55,0,0,1-2.31-3.63c6.13-13.11.47-27.42,0.41-27.56a2.55,2.55,0,0,1,4.73-1.93c0.27,0.67,6.59,16.47-.51,31.65A2.55,2.55,0,0,1,159,132.25Z"/><path class="cls-6" d="M114.48,104.43h5.94a1.5,1.5,0,0,0,1-.34L137.15,91a1.5,1.5,0,0,1,2.45,1.15V137a1.5,1.5,0,0,1-2.43,1.17l-15.58-12.5a1.5,1.5,0,0,0-.94-0.33h-5.32a6,6,0,0,1-5.95-5.94l0-9.86A5.11,5.11,0,0,1,114.48,104.43Z"/><path class="cls-6" d="M287.54,70.54a2,2,0,0,0-2.83,0l-6.2,5.79-1.85-1.85a2,2,0,0,0-2.83,2.83L277,80.44a2.17,2.17,0,0,0,3,.06l7.63-7.13A2,2,0,0,0,287.54,70.54Z"/><path class="cls-36" d="M204.81,91.59a5.43,5.43,0,0,0-7.67,0l-16.79,15.69-5-5a5.43,5.43,0,1,0-7.67,7.67l8.48,8.48a5.88,5.88,0,0,0,8,.17l20.67-19.32A5.43,5.43,0,0,0,204.81,91.59Z"/><path class="cls-37" d="M296.95,76.05a3.42,3.42,0,1,0-4,0,5.46,5.46,0,0,0-3.45,5.07H300.4A5.46,5.46,0,0,0,296.95,76.05Z"/><rect class="cls-37" x="301.23" y="70" width="1.83" height="10"/><polygon class="cls-37" points="304.02 76.08 307.98 75.08 307.98 76.33 311.32 76.08 311.32 71.42 308.61 71.46 308.57 70.08 304.11 70.67 304.02 76.08"/><polygon class="cls-6" points="55.32 108 0.82 108 8.22 91 48.17 91 55.32 108"/><rect class="cls-23" x="5" y="129" width="46" height="11"/><rect class="cls-23" x="5" y="110" width="3" height="22"/><rect class="cls-23" x="46" y="110" width="5" height="22"/><polygon class="cls-24" points="50.34 131 5.46 131 8.63 123 47.17 123 50.34 131"/><polygon class="cls-25" points="0.77 108 11.42 108 16.49 91 8 91 0.77 108"/><polygon class="cls-25" points="55.29 108 44.64 108 39.57 91 48.31 91 55.29 108"/><polygon class="cls-25" points="22.58 108 33.48 108 32.47 91 23.59 91 22.58 108"/><path class="cls-25" d="M11.42,107A5.32,5.32,0,1,1,.77,107"/><path class="cls-25" d="M33.48,107a5.45,5.45,0,1,1-10.9,0"/><path class="cls-25" d="M55.29,107a5.33,5.33,0,1,1-10.65,0"/><path class="cls-26" d="M44.63,107a5.57,5.57,0,1,1-11.14,0"/><path class="cls-26" d="M22.55,107a5.57,5.57,0,1,1-11.14,0"/><path class="cls-35" d="M281.72,94a8,8,0,0,1,2,4.31,10.06,10.06,0,0,1-5.85-7.19A8.4,8.4,0,0,1,281.72,94Z"/><path class="cls-35" d="M283.92,99.66a8,8,0,0,1,2.59,4,10.06,10.06,0,0,1-6.74-6.36A8.4,8.4,0,0,1,283.92,99.66Z"/><path class="cls-35" d="M286.51,95.79a8,8,0,0,1-.22,4.76,10.06,10.06,0,0,1-1.78-9.09A8.4,8.4,0,0,1,286.51,95.79Z"/><path class="cls-35" d="M289.81,100.71a8,8,0,0,1-1.16,4.63,10.06,10.06,0,0,1,.07-9.27A8.4,8.4,0,0,1,289.81,100.71Z"/><path class="cls-35" d="M292.2,105.71a8,8,0,0,1-2.79,3.87A10.06,10.06,0,0,1,292.9,101,8.4,8.4,0,0,1,292.2,105.71Z"/><path class="cls-35" d="M292,112.26a8,8,0,0,1-3.44,3.3,10.06,10.06,0,0,1,5-7.81A8.4,8.4,0,0,1,292,112.26Z"/><path class="cls-35" d="M291.75,117.79A8,8,0,0,1,287.5,120a10.06,10.06,0,0,1,7-6A8.4,8.4,0,0,1,291.75,117.79Z"/><path class="cls-35" d="M287.6,124.32a9.42,9.42,0,0,1-5.24,2,11.79,11.79,0,0,1,9-6.1A9.84,9.84,0,0,1,287.6,124.32Z"/><path class="cls-35" d="M285.06,129.06a9.55,9.55,0,0,1-5.67-.06,12,12,0,0,1,10.73-2.5A10,10,0,0,1,285.06,129.06Z"/><path class="cls-35" d="M279,132.91a9.55,9.55,0,0,1-5.37-1.82,12,12,0,0,1,11,1A10,10,0,0,1,279,132.91Z"/><path class="cls-35" d="M270.65,137.45a6.93,6.93,0,0,1-2.62-3.17,8.67,8.67,0,0,1,6.41,4.77A7.24,7.24,0,0,1,270.65,137.45Z"/><path class="cls-35" d="M273.68,135.15a9.55,9.55,0,0,1-5.16-2.34,12,12,0,0,1,10.83,2A10,10,0,0,1,273.68,135.15Z"/><path class="cls-35" d="M273.65,130.51a9.55,9.55,0,0,1-5.14,2.39,12,12,0,0,1,8.61-6.87A10,10,0,0,1,273.65,130.51Z"/><path class="cls-35" d="M281.4,125a9.06,9.06,0,0,1-3.79,3.82,11.34,11.34,0,0,1,5.39-9A9.47,9.47,0,0,1,281.4,125Z"/><path class="cls-35" d="M286.8,117a9.06,9.06,0,0,1-1.89,5,11.34,11.34,0,0,1,1.26-10.37A9.47,9.47,0,0,1,286.8,117Z"/><path class="cls-35" d="M287.79,108.51a8.24,8.24,0,0,1,.75,4.84,10.32,10.32,0,0,1-3.64-8.78A8.62,8.62,0,0,1,287.79,108.51Z"/><path class="cls-35" d="M254.33,94a8,8,0,0,0-2,4.31,10.06,10.06,0,0,0,5.85-7.19A8.4,8.4,0,0,0,254.33,94Z"/><path class="cls-35" d="M252.13,99.66a8,8,0,0,0-2.59,4,10.06,10.06,0,0,0,6.74-6.36A8.4,8.4,0,0,0,252.13,99.66Z"/><path class="cls-35" d="M249.54,95.79a8,8,0,0,0,.22,4.76,10.06,10.06,0,0,0,1.78-9.09A8.4,8.4,0,0,0,249.54,95.79Z"/><path class="cls-35" d="M246.24,100.71a8,8,0,0,0,1.16,4.63,10.06,10.06,0,0,0-.07-9.27A8.4,8.4,0,0,0,246.24,100.71Z"/><path class="cls-35" d="M243.85,105.71a8,8,0,0,0,2.79,3.87,10.06,10.06,0,0,0-3.49-8.58A8.4,8.4,0,0,0,243.85,105.71Z"/><path class="cls-35" d="M244.05,112.26a8,8,0,0,0,3.44,3.3,10.06,10.06,0,0,0-5-7.81A8.4,8.4,0,0,0,244.05,112.26Z"/><path class="cls-35" d="M244.3,117.79a8,8,0,0,0,4.25,2.17,10.06,10.06,0,0,0-7-6A8.4,8.4,0,0,0,244.3,117.79Z"/><path class="cls-35" d="M248.44,124.32a9.42,9.42,0,0,0,5.24,2,11.79,11.79,0,0,0-9-6.1A9.84,9.84,0,0,0,248.44,124.32Z"/><path class="cls-35" d="M251,129.06a9.55,9.55,0,0,0,5.67-.06,12,12,0,0,0-10.73-2.5A10,10,0,0,0,251,129.06Z"/><path class="cls-35" d="M257,132.91a9.55,9.55,0,0,0,5.37-1.82,12,12,0,0,0-11,1A10,10,0,0,0,257,132.91Z"/><path class="cls-35" d="M265.4,137.45a6.93,6.93,0,0,0,2.62-3.17,8.67,8.67,0,0,0-6.41,4.77A7.24,7.24,0,0,0,265.4,137.45Z"/><path class="cls-35" d="M262.37,135.15a9.55,9.55,0,0,0,5.16-2.34,12,12,0,0,0-10.83,2A10,10,0,0,0,262.37,135.15Z"/><path class="cls-35" d="M262.39,130.51a9.55,9.55,0,0,0,5.14,2.39,12,12,0,0,0-8.61-6.87A10,10,0,0,0,262.39,130.51Z"/><path class="cls-35" d="M254.65,125a9.06,9.06,0,0,0,3.79,3.82,11.34,11.34,0,0,0-5.39-9A9.47,9.47,0,0,0,254.65,125Z"/><path class="cls-35" d="M249.25,117a9.06,9.06,0,0,0,1.89,5,11.34,11.34,0,0,0-1.26-10.37A9.47,9.47,0,0,0,249.25,117Z"/><path class="cls-35" d="M248.26,108.51a8.24,8.24,0,0,0-.75,4.84,10.32,10.32,0,0,0,3.64-8.78A8.62,8.62,0,0,0,248.26,108.51Z"/><rect class="cls-38" x="62.93" y="159.56" width="7.69" height="5.85" transform="translate(-95.33 94.81) rotate(-45)"/><polygon class="cls-39" points="64.79 160.33 65.7 167.7 71.57 161.83 67.43 157.69 64.79 160.33"/><rect class="cls-38" x="34.33" y="149.23" width="8.88" height="5.58"/><rect class="cls-38" x="65.09" y="153.8" width="9.08" height="11.2" rx="1.69" ry="1.69" transform="translate(-92.32 95.92) rotate(-45)"/><rect class="cls-38" x="7.39" y="158.64" width="5.85" height="7.69" transform="translate(-111.87 54.89) rotate(-45)"/><polygon class="cls-39" points="12.3 160.33 11.39 167.7 5.53 161.83 9.67 157.69 12.3 160.33"/><rect class="cls-38" x="1.87" y="154.86" width="11.2" height="9.08" rx="1.69" ry="1.69" transform="translate(-110.52 51.97) rotate(-45)"/><rect class="cls-39" x="34.33" y="146.02" width="8.88" height="5.82"/><circle class="cls-38" cx="38.7" cy="190.03" r="35.97"/><circle class="cls-6" cx="38.7" cy="190.03" r="28.89"/><path class="cls-40" d="M38.76,187L59.25,210.6c5.45-5.38,8.83-11.56,8.83-19.81a29.64,29.64,0,0,0-29.64-29.64h0.33V187Z"/><path class="cls-41" d="M37.77,209.69a1,1,0,0,1,1-1h0a1,1,0,0,1,1,1v3.71a1,1,0,0,1-1,1h0a1,1,0,0,1-1-1v-3.71Z"/><path class="cls-42" d="M26.34,171.33a30,30,0,0,1,36,2.07,28.88,28.88,0,0,0-48.11,31.91A30,30,0,0,1,26.34,171.33Z"/><rect class="cls-38" x="30.69" y="140" width="16.01" height="9.22" rx="1.72" ry="1.72"/><path class="cls-41" d="M15.32,191.11a1,1,0,0,1-1-1h0a1,1,0,0,1,1-1H19a1,1,0,0,1,1,1h0a1,1,0,0,1-1,1H15.32Z"/><path class="cls-43" d="M39.83,170.38a1,1,0,0,1-1,1h0a1,1,0,0,1-1-1v-3.71a1,1,0,0,1,1-1h0a1,1,0,0,1,1,1v3.71Z"/><path class="cls-43" d="M62.05,188.94a1,1,0,0,1,1,1h0a1,1,0,0,1-1,1H58.34a1,1,0,0,1-1-1h0a1,1,0,0,1,1-1h3.71Z"/><path class="cls-44" d="M23.06,204.77a1,1,0,0,1,1.45,0h0a1,1,0,0,1,0,1.45l-1.34,1.34a1,1,0,0,1-1.45,0h0a1,1,0,0,1,0-1.45Z"/><path class="cls-44" d="M21.4,174.28a1,1,0,0,1,0-1.45h0a1,1,0,0,1,1.45,0l1.34,1.34a1,1,0,0,1,0,1.45h0a1,1,0,0,1-1.45,0Z"/><path class="cls-43" d="M55,175.95a1,1,0,0,1-1.45,0h0a1,1,0,0,1,0-1.45l1.34-1.34a1,1,0,0,1,1.45,0h0a1,1,0,0,1,0,1.45Z"/><path class="cls-43" d="M56.21,205.56a1,1,0,0,1,0,1.45h0a1,1,0,0,1-1.45,0l-1.34-1.34a1,1,0,0,1,0-1.45h0a1,1,0,0,1,1.45,0Z"/><path class="cls-44" d="M18.82,198a1,1,0,0,1,1.35.53h0a1,1,0,0,1-.53,1.35l-1.74.76a1,1,0,0,1-1.35-.53h0a1,1,0,0,1,.53-1.35Z"/><path class="cls-44" d="M28.44,169a1,1,0,0,1,.53-1.35h0a1,1,0,0,1,1.35.53l0.76,1.74a1,1,0,0,1-.53,1.35h0a1,1,0,0,1-1.35-.53Z"/><path class="cls-43" d="M59.06,182.83a1,1,0,0,1-1.35-.53h0a1,1,0,0,1,.53-1.35L60,180.2a1,1,0,0,1,1.35.53h0a1,1,0,0,1-.53,1.35Z"/><path class="cls-41" d="M49.38,210.84a1,1,0,0,1-.53,1.35h0a1,1,0,0,1-1.35-.53l-0.76-1.74a1,1,0,0,1,.53-1.35h0a1,1,0,0,1,1.35.53Z"/><path class="cls-44" d="M29.9,209.61a1,1,0,0,1,1.34-.54h0a1,1,0,0,1,.54,1.34L31,212.16a1,1,0,0,1-1.34.54h0a1,1,0,0,1-.54-1.34Z"/><path class="cls-44" d="M16.91,182a1,1,0,0,1-.54-1.34h0a1,1,0,0,1,1.34-.54l1.74,0.74a1,1,0,0,1,.54,1.34h0a1,1,0,0,1-1.34.54Z"/><path class="cls-43" d="M48.64,170.92a1,1,0,0,1-1.34.54h0a1,1,0,0,1-.54-1.34l0.74-1.74a1,1,0,0,1,1.34-.54h0a1,1,0,0,1,.54,1.34Z"/><path class="cls-9" d="M55.66,205.56L43.29,190.27c0-.13,0-0.25,0-0.38a4.55,4.55,0,1,0-4.45,4.65l0.32,0L54.84,206.4A0.59,0.59,0,0,0,55.66,205.56Z"/><path class="cls-43" d="M60.92,197.9a1,1,0,0,1,.54,1.34h0a1,1,0,0,1-1.34.54L58.38,199a1,1,0,0,1-.54-1.34h0a1,1,0,0,1,1.34-.54Z"/><circle class="cls-6" cx="38.76" cy="189.99" r="1.69" transform="translate(-4.21 0.91) rotate(-1.27)"/><path class="cls-45" d="M20.14,163.39a24.54,24.54,0,0,0-6.66,6.23"/><circle class="cls-6" cx="24.4" cy="160.64" r="1.42"/><path class="cls-46" d="M311.11,123.92a8.21,8.21,0,0,0,8.21-8.21V98.21a8.21,8.21,0,1,0-16.42,0v17.5A8.21,8.21,0,0,0,311.11,123.92Z"/><path class="cls-46" d="M323,107.2v8.51a11.87,11.87,0,1,1-23.74,0V107.2h-3v8.51a14.89,14.89,0,0,0,13.16,14.77v6.81H303v3h16.25v-3H312.4v-6.77A14.89,14.89,0,0,0,326,115.71V107.2h-3Z"/><path class="cls-6" d="M341.11,123.92a8.21,8.21,0,0,0,8.21-8.21V98.21a8.21,8.21,0,1,0-16.42,0v17.5A8.21,8.21,0,0,0,341.11,123.92Z"/><path class="cls-6" d="M353,107.2v8.51a11.87,11.87,0,1,1-23.74,0V107.2h-3v8.51a14.89,14.89,0,0,0,13.16,14.77v6.81H333v3h16.25v-3H342.4v-6.77A14.89,14.89,0,0,0,356,115.71V107.2h-3Z"/><path class="cls-47" d="M371.11,123.92a8.21,8.21,0,0,0,8.21-8.21V98.21a8.21,8.21,0,1,0-16.42,0v17.5A8.21,8.21,0,0,0,371.11,123.92Z"/><path class="cls-47" d="M383,107.2v8.51a11.87,11.87,0,1,1-23.74,0V107.2h-3v8.51a14.89,14.89,0,0,0,13.16,14.77v6.81H363v3h16.25v-3H372.4v-6.77A14.89,14.89,0,0,0,386,115.71V107.2h-3Z"/><path class="cls-18" d="M37.28,17.23c0,0.07,0,.13,0,0.19A13.47,13.47,0,0,1,37,21.07,3.65,3.65,0,0,1,35.6,22.9a3.83,3.83,0,0,1-2.21.62,3.68,3.68,0,0,1-2.19-.63,3.53,3.53,0,0,1-1.29-1.77,12.75,12.75,0,0,1-.4-3.7c0-.12,0-0.24,0-0.36V7H24.23V15.7c0,0.61,0,1.18,0,1.72a20.39,20.39,0,0,0,.59,5.16,8.07,8.07,0,0,0,3,4.26,9.21,9.21,0,0,0,5.53,1.53,9.47,9.47,0,0,0,5.2-1.31,8.14,8.14,0,0,0,3.09-3.75,17.82,17.82,0,0,0,.84-5.89c0-.5,0-1,0-1.57V7H37.28V17.23ZM21.78,0H16.56V8.15L16.31,8a11,11,0,0,0-5.53-1.47,10.43,10.43,0,0,0-7.2,2.83A10.51,10.51,0,0,0,0,17.42H0v0a10.55,10.55,0,0,0,3.16,7.73,10.37,10.37,0,0,0,7.63,3.18,11,11,0,0,0,5.56-1.44,10.54,10.54,0,0,0,4-4,10.92,10.92,0,0,0,1.44-4.77h0c0-.24,0-0.48,0-0.73s0-.45,0-0.67V0ZM14.92,21.82a5.41,5.41,0,0,1-4.08,1.7,5.35,5.35,0,0,1-4-1.68,6.12,6.12,0,0,1-1.6-4.4v0h0a6,6,0,0,1,1.62-4.31,5.36,5.36,0,0,1,4-1.69,5.41,5.41,0,0,1,4.09,1.67,6,6,0,0,1,1.6,4.33v0A6.07,6.07,0,0,1,14.92,21.82ZM64.69,12a10.63,10.63,0,0,0-4-4,11,11,0,0,0-5.53-1.47,10.44,10.44,0,0,0-7.2,2.83,10.51,10.51,0,0,0-3.57,8.08s0,0,0,0a10.55,10.55,0,0,0,3.16,7.73,10.36,10.36,0,0,0,7.63,3.18,11,11,0,0,0,5.56-1.44,10.52,10.52,0,0,0,4-4,10.9,10.9,0,0,0,1.46-5.5A10.73,10.73,0,0,0,64.69,12Zm-5.43,9.84a5.41,5.41,0,0,1-4.08,1.7,5.35,5.35,0,0,1-4-1.68,6.12,6.12,0,0,1-1.6-4.4v0a6,6,0,0,1,1.62-4.31,5.76,5.76,0,0,1,8.13,0,6,6,0,0,1,1.6,4.33v0A6.07,6.07,0,0,1,59.26,21.82Z"/><path class="cls-18" d="M84.33,28H89.6V7.9H84.33V28Zm-9-5.44a3.62,3.62,0,0,1-1.35-1.82,13.35,13.35,0,0,1-.33-3.65V0H68.41V15.52c0,0.55,0,1.07,0,1.57A17.73,17.73,0,0,0,69.27,23a8.15,8.15,0,0,0,3.09,3.75A9.48,9.48,0,0,0,77.55,28h4V23.18H77.51A3.82,3.82,0,0,1,75.3,22.56Zm34.91-10.78A8.13,8.13,0,0,0,107.11,8a9.48,9.48,0,0,0-5.2-1.31,9.21,9.21,0,0,0-5.53,1.53,8.06,8.06,0,0,0-3,4.26,20.35,20.35,0,0,0-.59,5.16c0,0.54,0,1.11,0,1.72V28h5.27V18c0-.12,0-0.24,0-0.36a13,13,0,0,1,.4-3.7,3.56,3.56,0,0,1,1.29-1.77,3.7,3.7,0,0,1,2.19-.63,3.81,3.81,0,0,1,2.21.62A3.66,3.66,0,0,1,105.52,14a13.44,13.44,0,0,1,.32,3.65c0,0.07,0,.12,0,0.19V28h5.22V19.22c0-.55,0-1.07,0-1.57A17.8,17.8,0,0,0,110.21,11.77ZM86.81,0.36A2.79,2.79,0,1,0,89.6,3.15,2.79,2.79,0,0,0,86.81.36ZM156.7,12.15a10.57,10.57,0,0,0-4-4,11,11,0,0,0-5.56-1.44,10.36,10.36,0,0,0-7.63,3.18,10.54,10.54,0,0,0-3.16,7.73v0a10.52,10.52,0,0,0,3.57,8.08,10.43,10.43,0,0,0,7.2,2.83,11.05,11.05,0,0,0,5.54-1.47,10.8,10.8,0,0,0,5.49-9.44A10.91,10.91,0,0,0,156.7,12.15Zm-3.79,5.5A6,6,0,0,1,151.31,22a5.76,5.76,0,0,1-8.14,0,6,6,0,0,1-1.61-4.31v0a6.12,6.12,0,0,1,1.6-4.39,5.35,5.35,0,0,1,4-1.68,5.4,5.4,0,0,1,4.08,1.7,6.07,6.07,0,0,1,1.63,4.37v0Zm-18.36-.87a10.82,10.82,0,0,0-1.43-4.73,10.42,10.42,0,0,0-3.95-4,10.9,10.9,0,0,0-5.51-1.43,10.27,10.27,0,0,0-7.56,3.15A10.46,10.46,0,0,0,113,17.47v0h0a10.41,10.41,0,0,0,3.54,8,10.34,10.34,0,0,0,7.14,2.8,10.91,10.91,0,0,0,5.48-1.46l0.25-.17v2.36a6,6,0,0,1-1.62,4.3,5.71,5.71,0,0,1-8,0L116.39,37l0.09,0.09a10.34,10.34,0,0,0,7.14,2.8,10.91,10.91,0,0,0,5.48-1.46,10.69,10.69,0,0,0,5.44-9.35V18.18c0-.22,0-0.44,0-0.67h0c0-.24,0-0.48,0-0.72h0Zm-5.19.72h0a6,6,0,0,1-1.58,4.29,5.71,5.71,0,0,1-8.06,0,5.94,5.94,0,0,1-1.6-4.27h0v0a6.06,6.06,0,0,1,1.59-4.35,5.29,5.29,0,0,1,4-1.67,5.36,5.36,0,0,1,4,1.69,6,6,0,0,1,1.61,4.34v0Z"/><path class="cls-6" d="M197,17.12c0,0.07,0,.13,0,0.19a13.38,13.38,0,0,1-.32,3.63,3.62,3.62,0,0,1-1.34,1.81,3.81,3.81,0,0,1-2.2.62,3.66,3.66,0,0,1-2.18-.63A3.51,3.51,0,0,1,189.72,21a12.67,12.67,0,0,1-.4-3.67c0-.12,0-0.23,0-0.36V7h-5.24v8.6c0,0.61,0,1.17,0,1.71a20.26,20.26,0,0,0,.59,5.13,8,8,0,0,0,3,4.23,9.15,9.15,0,0,0,5.5,1.52,9.41,9.41,0,0,0,5.16-1.3,8.09,8.09,0,0,0,3.07-3.73,17.71,17.71,0,0,0,.83-5.85c0-.5,0-1,0-1.56V7H197V17.12ZM181.64,0h-5.18V8.1l-0.25-.17a11,11,0,0,0-5.5-1.46,10.37,10.37,0,0,0-7.16,2.81,10.44,10.44,0,0,0-3.55,8h0v0A10.48,10.48,0,0,0,163.14,25a10.3,10.3,0,0,0,7.58,3.16,10.92,10.92,0,0,0,5.52-1.43,10.47,10.47,0,0,0,4-4A10.85,10.85,0,0,0,181.64,18h0c0-.24,0-0.48,0-0.72s0-.45,0-0.67V0Zm-6.81,21.67a5.38,5.38,0,0,1-4.05,1.69,5.32,5.32,0,0,1-4-1.67,6.08,6.08,0,0,1-1.59-4.37v0h0A6,6,0,0,1,166.77,13a5.72,5.72,0,0,1,8.08,0,6,6,0,0,1,1.59,4.3v0A6,6,0,0,1,174.83,21.68Zm49.46-9.78a10.56,10.56,0,0,0-4-4,11,11,0,0,0-5.5-1.46,10.37,10.37,0,0,0-7.16,2.81,10.44,10.44,0,0,0-3.55,8s0,0,0,0A10.49,10.49,0,0,0,207.21,25a10.3,10.3,0,0,0,7.58,3.16,10.93,10.93,0,0,0,5.52-1.43,10.45,10.45,0,0,0,4-4,10.83,10.83,0,0,0,1.45-5.47A10.66,10.66,0,0,0,224.28,11.9Zm-5.39,9.78a5.38,5.38,0,0,1-4.05,1.69,5.32,5.32,0,0,1-4-1.67,6.08,6.08,0,0,1-1.59-4.37v0A6,6,0,0,1,210.84,13a5.72,5.72,0,0,1,8.08,0,6,6,0,0,1,1.59,4.3v0A6,6,0,0,1,218.89,21.68Z"/><path class="cls-6" d="M243.8,27.82H249v-20H243.8v20Zm-9-5.41a3.6,3.6,0,0,1-1.34-1.81,13.26,13.26,0,0,1-.32-3.63V0H228V15.42c0,0.55,0,1.06,0,1.56a17.62,17.62,0,0,0,.83,5.85,8.1,8.1,0,0,0,3.07,3.73,9.42,9.42,0,0,0,5.16,1.3h4V23h-4A3.79,3.79,0,0,1,234.82,22.41ZM269.52,11.7A8.08,8.08,0,0,0,266.44,8a9.42,9.42,0,0,0-5.16-1.3,9.15,9.15,0,0,0-5.49,1.52,8,8,0,0,0-3,4.23,20.22,20.22,0,0,0-.59,5.12c0,0.54,0,1.1,0,1.71v8.6h5.24V17.9c0-.12,0-0.24,0-0.36a12.87,12.87,0,0,1,.4-3.67,3.53,3.53,0,0,1,1.29-1.76,3.67,3.67,0,0,1,2.18-.63,3.79,3.79,0,0,1,2.2.62,3.63,3.63,0,0,1,1.34,1.81,13.36,13.36,0,0,1,.32,3.63c0,0.07,0,.12,0,0.19V27.85h5.18V19.1c0-.55,0-1.06,0-1.56A17.69,17.69,0,0,0,269.52,11.7ZM246.26,0.36A2.77,2.77,0,1,0,249,3.13,2.77,2.77,0,0,0,246.26.36Zm69.45,11.72a10.5,10.5,0,0,0-4-4,10.93,10.93,0,0,0-5.52-1.43,10.3,10.3,0,0,0-7.58,3.16,10.48,10.48,0,0,0-3.14,7.68v0a10.45,10.45,0,0,0,3.55,8,10.37,10.37,0,0,0,7.16,2.81,11,11,0,0,0,5.5-1.46,10.73,10.73,0,0,0,5.46-9.38A10.84,10.84,0,0,0,315.72,12.08Zm-3.77,5.47a6,6,0,0,1-1.58,4.3,5.73,5.73,0,0,1-8.08,0,6,6,0,0,1-1.6-4.28v0a6.08,6.08,0,0,1,1.59-4.37,5.31,5.31,0,0,1,4-1.67,5.37,5.37,0,0,1,4.05,1.69A6,6,0,0,1,312,17.53v0Zm-18.24-.86a10.75,10.75,0,0,0-1.42-4.7A10.36,10.36,0,0,0,288.36,8a10.83,10.83,0,0,0-5.47-1.42,10.2,10.2,0,0,0-7.52,3.13,10.39,10.39,0,0,0-3.11,7.61v0h0a10.35,10.35,0,0,0,3.52,8,10.28,10.28,0,0,0,7.09,2.78,10.84,10.84,0,0,0,5.45-1.45l0.25-.16v2.35A6,6,0,0,1,287,33.15a5.67,5.67,0,0,1-8,0l-3.34,3.57,0.09,0.09a10.28,10.28,0,0,0,7.09,2.78,10.84,10.84,0,0,0,5.45-1.45,10.62,10.62,0,0,0,5.41-9.29V18.07c0-.22,0-0.44,0-0.66h0c0-.24,0-0.48,0-0.72h0Zm-5.15.72h0A5.93,5.93,0,0,1,287,21.66a5.68,5.68,0,0,1-8,0,5.9,5.9,0,0,1-1.59-4.24h0v0a6,6,0,0,1,1.58-4.33,5.26,5.26,0,0,1,4-1.66,5.32,5.32,0,0,1,4,1.68,6,6,0,0,1,1.6,4.31v0Z"/><path class="cls-6" d="M429.53,50.44c0-1.17,3.28-2,3.28-5.55a4.34,4.34,0,0,0-2.07-3.72l1.84-.09L434.22,40h-5.75c-3.78,0-7,1.84-7,5.58,0,4,3.78,4.52,4.67,4.52a10.13,10.13,0,0,0,1-.06,1.72,1.72,0,0,0-.39,1.23,2.43,2.43,0,0,0,.89,1.82c-6.29,0-7.63,3.31-7.63,4.86S421.34,62,426.14,62s7.63-2.42,7.63-5.58S429.53,52.06,429.53,50.44Zm-1.92-1.21c-1.47,0-3.59-1.86-3.59-5.08s2.53-3,2.53-3c1.56,0,3.7,1.73,3.7,5.1C430.25,48.19,429.08,49.23,427.61,49.23Zm0,11.54c-2.79,0-5.06-1.32-5.06-3.52s2-3.33,6.14-3.33c0,0,3.09,1.69,3.09,3.7S430.42,60.77,427.63,60.77Z"/><polygon class="cls-6" points="443.01 49.1 440.09 49.1 440.09 46.18 438.57 46.18 438.57 49.1 435.65 49.1 435.65 50.62 438.57 50.62 438.57 53.54 440.09 53.54 440.09 50.62 443.01 50.62 443.01 49.1"/><path class="cls-6" d="M395.51,78.21c0-.92,2.58-1.58,2.58-4.37a3.41,3.41,0,0,0-1.63-2.92l1.44-.07L399.2,70h-4.52c-3,0-5.49,1.44-5.49,4.38a3.53,3.53,0,0,0,3.67,3.55,8,8,0,0,0,.82-0.05,1.36,1.36,0,0,0-.31,1,1.91,1.91,0,0,0,.7,1.43c-4.94,0-6,2.6-6,3.82s1,3.19,4.77,3.19,6-1.9,6-4.38S395.51,79.48,395.51,78.21Zm-1.51-1c-1.16,0-2.82-1.46-2.82-4s2-2.36,2-2.36c1.22,0,2.91,1.36,2.91,4A2.08,2.08,0,0,1,394,77.26Zm0,9.07c-2.19,0-4-1-4-2.77s1.6-2.62,4.83-2.62c0,0,2.43,1.33,2.43,2.91S396.21,86.33,394,86.33Z"/><polygon class="cls-6" points="406.11 77.15 403.81 77.15 403.81 74.86 402.62 74.86 402.62 77.15 400.32 77.15 400.32 78.35 402.62 78.35 402.62 80.65 403.81 80.65 403.81 78.35 406.11 78.35 406.11 77.15"/><path class="cls-48" d="M376,78.21c0-.92,2.58-1.58,2.58-4.37A3.41,3.41,0,0,0,377,70.92l1.44-.07L379.7,70h-4.52c-3,0-5.49,1.44-5.49,4.38a3.53,3.53,0,0,0,3.67,3.55,8,8,0,0,0,.82-0.05,1.36,1.36,0,0,0-.31,1,1.91,1.91,0,0,0,.7,1.43c-4.94,0-6,2.6-6,3.82s1,3.19,4.77,3.19,6-1.9,6-4.38S376,79.48,376,78.21Zm-1.51-1c-1.16,0-2.82-1.46-2.82-4s2-2.36,2-2.36c1.22,0,2.91,1.36,2.91,4A2.08,2.08,0,0,1,374.5,77.26Zm0,9.07c-2.19,0-4-1-4-2.77s1.6-2.62,4.83-2.62c0,0,2.43,1.33,2.43,2.91S376.71,86.33,374.51,86.33Z"/><polygon class="cls-48" points="386.61 77.42 384.31 77.42 384.31 75.12 383.12 75.12 383.12 77.42 380.82 77.42 380.82 78.61 383.12 78.61 383.12 80.91 384.31 80.91 384.31 78.61 386.61 78.61 386.61 77.42"/><path class="cls-49" d="M353.48,78.51l0.36-2.78h-2.75V74a1.15,1.15,0,0,1,1.38-1.35h1.47V70.11a19.71,19.71,0,0,0-2.15-.11,3.35,3.35,0,0,0-3.58,3.68v2.05h-2.4v2.78h2.4v7.13h2.87V78.51h2.4Z"/><rect class="cls-6" x="325.1" y="69.94" width="4" height="10.03" rx="0.5" ry="0.5"/><rect class="cls-6" x="337.1" y="69.94" width="4" height="10.03" rx="0.5" ry="0.5"/><rect class="cls-6" x="322.1" y="73.03" width="2" height="3.94"/><rect class="cls-6" x="342.1" y="73.03" width="2" height="3.94"/><rect class="cls-6" x="330.1" y="74" width="5.94" height="2"/><polygon class="cls-6" points="454.75 70.13 456.69 74.05 461.01 74.67 457.88 77.72 458.62 82.03 454.75 80 450.88 82.03 451.62 77.72 448.49 74.67 452.82 74.05 454.75 70.13"/><g class="cls-50"><g class="cls-51"><path class="cls-6" d="M67.81,81.84a8.46,8.46,0,0,1-4.58-1.34,6.08,6.08,0,0,0,.71,0,6,6,0,0,0,3.71-1.28,3,3,0,0,1-2.79-2.08,3,3,0,0,0,1.35-.05,3,3,0,0,1-2.4-2.93v0a3,3,0,0,0,1.35.37,3,3,0,0,1-.93-4,8.49,8.49,0,0,0,6.16,3.12,3,3,0,0,1,5.09-2.73,6,6,0,0,0,1.9-.73,3,3,0,0,1-1.31,1.65,6,6,0,0,0,1.72-.47,6.08,6.08,0,0,1-1.49,1.55q0,0.19,0,.39a8.45,8.45,0,0,1-8.5,8.5"/></g></g><path class="cls-6" d="M62.44,78.51l0.36-2.78H60V74a1.15,1.15,0,0,1,1.38-1.35H62.9V70.11A19.71,19.71,0,0,0,60.75,70a3.35,3.35,0,0,0-3.58,3.68v2.05h-2.4v2.78h2.4v7.13H60V78.51h2.4Z"/><path class="cls-6" d="M468.11,69.88s-1.21,2.38-5.87,3.08c0,3.38,2.54,8.55,5.83,10C468.07,77.93,468.11,69.88,468.11,69.88Z"/><path class="cls-6" d="M469,69.88s1.21,2.38,5.88,3.08c0,3.38-2.54,8.55-5.83,10C469,77.93,469,69.88,469,69.88Z"/><path class="cls-29" d="M445.47,84.44a4.23,4.23,0,0,0,1.43-3.15,4.79,4.79,0,1,0-4.77,4.41,5.17,5.17,0,0,0,.85-0.07l3.17,2.57Z"/><path class="cls-29" d="M435.88,81.15a6,6,0,0,1,6.25-5.77l0.59,0A6.75,6.75,0,0,0,435.9,70a6.65,6.65,0,0,0-6.9,6.37,6.12,6.12,0,0,0,2.07,4.55l-1,3.53,3.39-2.19a5.46,5.46,0,0,0,2.45.48h0.23A5.35,5.35,0,0,1,435.88,81.15Z"/><path d="M526.54,70.54a2,2,0,0,0-2.83,0l-6.2,5.79-1.85-1.85a2,2,0,0,0-2.83,2.83L516,80.44a2.17,2.17,0,0,0,3,.06l7.63-7.13A2,2,0,0,0,526.54,70.54Z"/><path class="cls-6" d="M596.8,78.56L595,80.32l-1.76-1.76a1.16,1.16,0,0,0-1.64,1.64L593.4,82l-1.76,1.76a1.16,1.16,0,1,0,1.64,1.64L595,83.6l1.76,1.76a1.16,1.16,0,1,0,1.64-1.64L596.68,82l1.76-1.76A1.16,1.16,0,0,0,596.8,78.56Z"/><path class="cls-6" d="M599.33,70.66a1.16,1.16,0,0,0-1.64,0L594.09,74,593,72.94a1.16,1.16,0,0,0-1.64,1.64l1.82,1.82a1.26,1.26,0,0,0,1.71,0l4.43-4.14A1.16,1.16,0,0,0,599.33,70.66Z"/><path class="cls-6" d="M616,70.47a1.41,1.41,0,0,0,0,2l7.47,7.47-7.56,7.56a1.41,1.41,0,1,0,2,2l8.25-8.25a1.39,1.39,0,0,0,.36-0.25,1.41,1.41,0,0,0,0-2l-8.51-8.51A1.41,1.41,0,0,0,616,70.47Z"/><path class="cls-6" d="M633.13,70a4.66,4.66,0,0,0-3.76,7.42l3.73,6.74,3.78-6.72A4.66,4.66,0,0,0,633.13,70Zm0,6.37a1.7,1.7,0,1,1,1.7-1.7A1.7,1.7,0,0,1,633.13,76.37Z"/><path d="M655.38,78.22c0-.92,2.58-1.58,2.58-4.37a3.41,3.41,0,0,0-1.63-2.92l1.44-.07,1.29-.85h-4.52c-3,0-5.49,1.44-5.49,4.38a3.53,3.53,0,0,0,3.67,3.55,8,8,0,0,0,.82-0.05,1.36,1.36,0,0,0-.31,1,1.91,1.91,0,0,0,.7,1.43c-4.94,0-6,2.6-6,3.82s1,3.19,4.77,3.19,6-1.9,6-4.38S655.38,79.49,655.38,78.22Zm-1.51-1c-1.16,0-2.82-1.46-2.82-4s2-2.36,2-2.36c1.22,0,2.91,1.36,2.91,4A2.08,2.08,0,0,1,653.87,77.27Zm0,9.07c-2.19,0-4-1-4-2.77s1.6-2.62,4.83-2.62c0,0,2.43,1.33,2.43,2.91S656.08,86.34,653.89,86.34Z"/><polygon points="665.98 77.17 663.69 77.17 663.69 74.87 662.49 74.87 662.49 77.17 660.2 77.17 660.2 78.36 662.49 78.36 662.49 80.66 663.69 80.66 663.69 78.36 665.98 78.36 665.98 77.17"/><path class="cls-6" d="M408,90a17,17,0,1,0,17,17A17,17,0,0,0,408,90Zm-9.63,19.45h-2.54v-4.39h2.54v4.39Zm5.26,2.79a0.56,0.56,0,0,1-.56.56h-3.34a0.56,0.56,0,0,1-.56-0.56V102.17a0.56,0.56,0,0,1,.56-0.56h3.34a0.56,0.56,0,0,1,.56.56v10.07Zm8.13-3.87h-7.33v-2.23h7.33v2.23Zm5.25,3.87a0.56,0.56,0,0,1-.56.56H413.1a0.56,0.56,0,0,1-.56-0.56V102.17a0.56,0.56,0,0,1,.56-0.56h3.34a0.56,0.56,0,0,1,.56.56v10.07Zm0.8-2.79v-4.39h2.54v4.39h-2.54Z"/><path d="M646.48,79l0.36-2.78h-2.75V74.47a1.15,1.15,0,0,1,1.38-1.35h1.47V70.63a19.71,19.71,0,0,0-2.15-.11,3.35,3.35,0,0,0-3.58,3.68v2.05h-2.4V79h2.4v7.13h2.87V79h2.4Z"/><path class="cls-28" d="M674.06,77.93l-5,5a1.61,1.61,0,1,0,2.28,2.28l6.13-6.13a1.62,1.62,0,0,0,0-2.28l-6.13-6.13a1.61,1.61,0,1,0-2.28,2.28Z"/><path class="cls-29" d="M684.06,77.93l-5,5a1.61,1.61,0,1,0,2.28,2.28l6.13-6.13a1.62,1.62,0,0,0,0-2.28l-6.13-6.13a1.61,1.61,0,1,0-2.28,2.28Z"/><path class="cls-6" d="M694.06,77.93l-5,5a1.61,1.61,0,1,0,2.28,2.28l6.13-6.13a1.62,1.62,0,0,0,0-2.28l-6.13-6.13a1.61,1.61,0,1,0-2.28,2.28Z"/><polygon class="cls-9" points="722.56 70 728.94 73.69 728.94 84.29 722.56 87.97 716.17 84.29 716.17 73.69 722.56 70"/><polygon class="cls-10" points="722.57 70 722.56 70 716.18 73.68 718.86 75.92 722.57 74.7 722.57 70"/><polygon class="cls-11" points="722.56 87.95 722.57 87.96 728.94 84.28 726.27 82.04 722.56 83.26 722.56 87.95"/><polygon class="cls-12" points="722.56 73.78 726.25 75.92 726.25 82.06 722.56 84.19 718.86 82.06 718.86 75.92 722.56 73.78"/><path class="cls-6" d="M719.29,77.64a0.05,0.05,0,0,1-.05,0,3.41,3.41,0,0,0-1.83-1.86,0.06,0.06,0,0,1,0-.1,3.41,3.41,0,0,0,1.83-1.86,0.05,0.05,0,0,1,.1,0,3.41,3.41,0,0,0,1.83,1.86,0.06,0.06,0,0,1,0,.1,3.41,3.41,0,0,0-1.83,1.86A0.05,0.05,0,0,1,719.29,77.64Z"/><path class="cls-6" d="M719.29,73.8a3.45,3.45,0,0,0,1.86,1.89,1.86,1.86,0,1,1-3.72,0,3.45,3.45,0,0,0,1.86-1.89m0-.11a0.11,0.11,0,0,0-.1.07,3.35,3.35,0,0,1-1.8,1.83,0.11,0.11,0,0,0,0,.2,3.35,3.35,0,0,1,1.8,1.83,0.11,0.11,0,0,0,.1.07h0a0.11,0.11,0,0,0,.1-0.07,3.35,3.35,0,0,1,1.8-1.83,0.11,0.11,0,0,0,0-.2,3.35,3.35,0,0,1-1.8-1.83,0.11,0.11,0,0,0-.1-0.07h0Z"/><polygon class="cls-13" points="723.97 74.6 718.86 79.71 718.86 82.06 719.47 82.41 726.07 75.81 723.97 74.6"/><polygon class="cls-13" points="721.27 83.45 726.25 78.47 726.25 76.84 720.24 82.86 721.27 83.45"/><path class="cls-29" d="M767.53,71.5v8h-8.92v-8h8.92m1-1.5H757.61a0.5,0.5,0,0,0-.5.5v10a0.5,0.5,0,0,0,.5.5h10.92a0.5,0.5,0,0,0,.5-0.5v-10a0.5,0.5,0,0,0-.5-0.5h0Z"/><rect class="cls-29" x="759.63" y="72.79" width="1.83" height="1.17"/><rect class="cls-29" x="764.63" y="72.79" width="1.83" height="1.17"/><rect class="cls-29" x="762.13" y="72.79" width="1.83" height="1.17"/><rect class="cls-29" x="759.63" y="76.79" width="1.83" height="1.17"/><rect class="cls-29" x="764.63" y="76.79" width="1.83" height="1.17"/><rect class="cls-29" x="762.13" y="76.79" width="1.83" height="1.17"/><rect class="cls-29" x="759.63" y="74.79" width="1.83" height="1.17"/><rect class="cls-29" x="764.63" y="74.79" width="1.83" height="1.17"/><rect class="cls-29" x="762.13" y="74.79" width="1.83" height="1.17"/><polygon class="cls-29" points="750.05 75.11 750.05 70.94 747.88 70.94 747.88 75.11 744.8 75.11 749 79.23 753.21 75.11 750.05 75.11"/><rect class="cls-29" x="743.04" y="81.14" width="12.04" height="1.85"/><path d="M607.48,72a5.63,5.63,0,1,1-5.62,5.63A5.62,5.62,0,0,1,607.48,72m0-2a7.63,7.63,0,1,0,7.63,7.63A7.63,7.63,0,0,0,607.48,70h0Z"/><polygon points="611.09 79.6 608.02 77.39 608.02 73.67 606.57 73.67 606.57 78.17 606.6 78.17 610.24 80.78 611.09 79.6"/><path class="cls-6" d="M707.48,72a5.63,5.63,0,1,1-5.62,5.63A5.62,5.62,0,0,1,707.48,72m0-2a7.63,7.63,0,1,0,7.63,7.63A7.63,7.63,0,0,0,707.48,70h0Z"/><polygon class="cls-6" points="711.09 79.6 708.02 77.39 708.02 73.67 706.57 73.67 706.57 78.17 706.6 78.17 710.24 80.78 711.09 79.6"/><polygon class="cls-6" points="557.35 70.97 557.35 69.97 553.19 69.97 553.19 70.97 549.29 70.97 549.29 72.06 561.29 72.06 561.29 70.97 557.35 70.97"/><path class="cls-6" d="M549.32,73l2,12h8l2-12h-12Zm4.28,10.5a0.48,0.48,0,0,1-.54-0.42l-1-8.47a0.48,0.48,0,1,1,1-.12L554,83A0.48,0.48,0,0,1,553.6,83.5Zm3.89-.42a0.48,0.48,0,1,1-1-.12l1-8.47a0.48,0.48,0,1,1,1,.12Z"/><polygon points="545.1 70.97 545.1 69.97 540.94 69.97 540.94 70.97 537.04 70.97 537.04 72.06 549.04 72.06 549.04 70.97 545.1 70.97"/><path d="M537.07,73l2,12h8l2-12h-12Zm4.28,10.5a0.48,0.48,0,0,1-.54-0.42l-1-8.47a0.48,0.48,0,1,1,1-.12l1,8.47A0.48,0.48,0,0,1,541.35,83.5Zm3.89-.42a0.48,0.48,0,1,1-1-.12l1-8.47a0.48,0.48,0,1,1,1,.12Z"/><path class="cls-6" d="M532.6,77.31c3.87-2.23,3.36-5.05,3.36-5.05h-7c0,1.53.46,3.34,3.34,5.06-3.87,2.23-3.36,5.05-3.36,5.05h7C535.94,80.84,535.48,79,532.6,77.31Z"/><rect class="cls-6" x="527.95" y="70.58" width="8.94" height="1.08"/><rect class="cls-6" x="527.95" y="83.08" width="8.94" height="1.08"/><path class="cls-29" d="M740.68,72.1a2.6,2.6,0,0,0-3.67,0L736,73.15a2.57,2.57,0,0,0-.4,3.13l-0.21.21a2.56,2.56,0,0,0-3.06.44L731.23,78a2.6,2.6,0,1,0,3.67,3.67l1.05-1.05a2.56,2.56,0,0,0,.47-3l0.27-.27a2.57,2.57,0,0,0,2.93-.51l1.05-1.05A2.59,2.59,0,0,0,740.68,72.1Zm-5.61,7.62L734,80.77a1.38,1.38,0,0,1-1.9,0,1.35,1.35,0,0,1,0-1.9l1.05-1.05a1.34,1.34,0,0,1,1-.39l0.27,0-1.23,1.23a0.69,0.69,0,0,0,0,1l0.12,0.12a0.69,0.69,0,0,0,1,0l1.19-1.19A1.34,1.34,0,0,1,735.06,79.72Zm4.73-4.83-1.05,1.05a1.35,1.35,0,0,1-1,.37l1.19-1.19a0.69,0.69,0,0,0,0-1L738.78,74a0.69,0.69,0,0,0-1,0l-1.31,1.31a1.34,1.34,0,0,1,.34-1.3L737.89,73A1.35,1.35,0,1,1,739.79,74.88Z"/><rect class="cls-6" x="502.03" y="78.04" width="4.04" height="8.13"/><rect class="cls-6" x="502.03" y="70" width="4" height="1.08"/><path class="cls-6" d="M507.11,75.83a3.54,3.54,0,0,0,1.5,1.21H511V72.13h-1.92a3.33,3.33,0,0,0-2,1l-0.12-1h-5.29c-3.62,0-4.54,4.71-4.54,4.71a4.59,4.59,0,0,1,3.21-1.23c1.58,0,1.73.53,1.73,0.81v0.65h4l0.5-1.21Z"/><path class="cls-52" d="M82.3,93C70,93,60,101.2,60,111.3c0,6.1,3.6,11.4,9.1,14.8v0.2c0,6.6-8,8.4-2.4,8.4,5.2,0,10-3.6,11.1-5.4a34.19,34.19,0,0,0,4.5.4c12.3,0,22.3-8.2,22.3-18.3C104.7,101.1,94.7,93,82.3,93Z"/><path class="cls-6" d="M600,41a12,12,0,1,0,12,12A12,12,0,0,0,600,41Zm5.5,13.92h-3.33v3.33a2.08,2.08,0,1,1-4.17,0V54.9h-3.33a2.08,2.08,0,0,1,0-4.17H598V47.4a2.08,2.08,0,0,1,4.17,0v3.33h3.33A2.08,2.08,0,0,1,605.48,54.9Z"/><path class="cls-53" d="M775,80a2.7,2.7,0,0,1,.26-5.4h1.5V72.08h-1.5A5.25,5.25,0,0,0,775,82.56v2.32l3.62-3.59L775,77.7V80Z"/><path class="cls-53" d="M781.76,72.08h-0.32V69.88l-3.62,3.59,3.62,3.59V74.62h0.32a2.7,2.7,0,0,1,0,5.41h-1.89v2.54h1.89A5.25,5.25,0,0,0,781.76,72.08Z"/><path d="M794.4,81.38a8.13,8.13,0,0,1-4.4-1.29,5.84,5.84,0,0,0,.69,0,5.76,5.76,0,0,0,3.57-1.23,2.88,2.88,0,0,1-2.68-2,2.88,2.88,0,0,0,1.3,0,2.87,2.87,0,0,1-2.3-2.82v0a2.86,2.86,0,0,0,1.3.36,2.88,2.88,0,0,1-.89-3.84,8.16,8.16,0,0,0,5.92,3,2.87,2.87,0,0,1,4.9-2.62,5.75,5.75,0,0,0,1.82-.7,2.88,2.88,0,0,1-1.26,1.59,5.74,5.74,0,0,0,1.65-.45,5.84,5.84,0,0,1-1.43,1.49q0,0.18,0,.37a8.12,8.12,0,0,1-8.17,8.17"/><path class="cls-54" d="M707.16,114.21l-7-24L676.6,98.55l8.92,4.57c-8,12.11-21,19-33.57,18.47A36.89,36.89,0,0,0,698.85,110Z"/><path class="cls-55" d="M254.42,203.16a25.27,25.27,0,1,1,25.27-25.27"/><path class="cls-56" d="M314.42,203.16a25.27,25.27,0,1,1,25.27-25.27"/><path class="cls-57" d="M361,166.84a6.27,6.27,0,0,1,2.15-4.89l-0.12.12a6.46,6.46,0,1,0-9.49.48,6,6,0,0,1,1.51,4.24"/><line class="cls-57" x1="354.07" y1="168.85" x2="361.72" y2="168.85"/><line class="cls-57" x1="355.14" y1="171.87" x2="360.65" y2="171.87"/><line class="cls-57" x1="389.69" y1="154.49" x2="374.12" y2="170.06"/><line class="cls-57" x1="374.12" y1="154.49" x2="389.69" y2="170.06"/><circle class="cls-54" cx="485.34" cy="186.55" r="37.25"/><path class="cls-58" d="M466.72,216.75a2,2,0,0,1,2.14-1.19c3,0.4,5.46,2.28,8.08,3.71h3.34A3.24,3.24,0,0,1,482.7,217a8,8,0,0,1,4.29.4,18,18,0,0,1,7.89-1.8,2.4,2.4,0,0,1,1,.28,10.62,10.62,0,0,1,1.18.23,20.34,20.34,0,0,1,5.27-.93,2.33,2.33,0,0,1,1,.21,2.41,2.41,0,0,1,1.49-.74v-34a19.47,19.47,0,0,0-19.41-19.41h0A19.47,19.47,0,0,0,466,180.62v35.53Z"/><path class="cls-6" d="M509,191.44l-24,7.56-24-7.56H448.43c0.06,0.45.13,0.9,0.2,1.35l0.07,0.05,0.64,0.64a2.33,2.33,0,0,1,.68,2.26,51.82,51.82,0,0,0,12,17.9c2,1.44,4,3,6,4.52q1.14,0.44,2.31.84a2.86,2.86,0,0,1,.64,0c10.76,2.05,21.48-.66,30.85-6.09,6.8-3.94,16.18-9.7,17.61-18.14A2.24,2.24,0,0,1,522,193q0.14-.78.24-1.57H509Z"/><path class="cls-59" d="M522.23,191.71l-37.17,11.56-36.63-11.65A37.25,37.25,0,0,0,522.23,191.71Z"/><path class="cls-60" d="M485.34,223.8a37.25,37.25,0,0,0,36.89-32.09l-37.17,11.56h0V223.8h0.28Z"/><path class="cls-61" d="M505.41,207.29a4.5,4.5,0,0,1-5.55-7.09"/><rect class="cls-62" x="505.41" y="202.96" width="1.55" height="6.21"/><circle class="cls-63" cx="485.2" cy="160.09" r="8.17"/><path class="cls-64" d="M485.43,159.56h0a21.07,21.07,0,0,0-20.93,19.35h0.27a25.37,25.37,0,0,0,20.42-10.29,25.37,25.37,0,0,0,20.42,10.29l0.75,0A21.07,21.07,0,0,0,485.43,159.56Z"/><path class="cls-65" d="M505.92,207.35c-2.82,0-13.25-4.79-11.84,7.89a14.85,14.85,0,0,0,2.5,6.83,37.33,37.33,0,0,0,19.54-14.54C513.27,205.24,507.88,207.35,505.92,207.35Z"/><circle class="cls-66" cx="499.46" cy="211.72" r="2.25"/><circle class="cls-67" cx="494.02" cy="185.58" r="6.04"/><circle class="cls-67" cx="476.1" cy="185.58" r="6.04"/><path class="cls-68" d="M476.1,179.54A6,6,0,0,0,472,190l8.52-8.52A6,6,0,0,0,476.1,179.54Z"/><path class="cls-68" d="M494,179.54A6,6,0,0,0,489.93,190l8.52-8.52A6,6,0,0,0,494,179.54Z"/><path class="cls-69" d="M504.85,184.88h-3.93a7,7,0,0,0-13.63-1.11,3.39,3.39,0,0,0-4.39,0,7,7,0,0,0-13.63,1.11H466v1.41h3.24a7,7,0,0,0,13.84.07h0a2,2,0,0,1,3.95,0h0a7,7,0,0,0,13.84-.07h3.93v-1.41Zm-28.67,6.25a5.55,5.55,0,1,1,5.55-5.55c0,0.14,0,.28,0,0.41s0,0.12,0,.17A5.55,5.55,0,0,1,476.18,191.13Zm17.81,0a5.55,5.55,0,0,1-5.51-5c0-.06,0-0.12,0-0.18s0-.27,0-0.41A5.55,5.55,0,1,1,494,191.13Z"/><polygon class="cls-70" points="324.71 174.3 317.44 174.3 317.44 162.13 305.54 179.8 312.81 179.8 312.81 191.96 324.71 174.3"/><polygon class="cls-71" points="264.71 174.3 257.44 174.3 257.44 162.13 245.54 179.8 252.81 179.8 252.81 191.96 264.71 174.3"/><path class="cls-72" d="M410.2,195.21c0-6.41-6.45-11.61-14.4-11.61s-14.4,5.2-14.4,11.61c0,4.9,3.78,9.09,9.11,10.79a15.84,15.84,0,0,1-3.6,4.2c0.51,0,1,0,1.55-.07a15.71,15.71,0,0,0,8.31-3.35C404.27,206.37,410.2,201.36,410.2,195.21Z"/><path class="cls-73" d="M379.2,195.21c0-6.41-6.45-11.61-14.4-11.61s-14.4,5.2-14.4,11.61c0,4.9,3.78,9.09,9.11,10.79a15.84,15.84,0,0,1-3.6,4.2c0.51,0,1,0,1.55-.07a15.71,15.71,0,0,0,8.31-3.35C373.27,206.37,379.2,201.36,379.2,195.21Z"/><rect class="cls-73" x="396.82" y="152.62" width="2.07" height="21.8"/><rect class="cls-73" x="406.43" y="155.62" width="8.67" height="13.84"/><polygon class="cls-73" points="405.57 154.77 405.66 154.77 406.43 154.77 409.41 154.77 409.41 152.62 400.73 152.62 400.73 166.47 405.57 166.47 405.57 154.77"/><rect class="cls-72" x="419.82" y="152.62" width="2.07" height="21.8"/><rect class="cls-72" x="429.43" y="155.62" width="8.67" height="13.84"/><polygon class="cls-72" points="428.57 154.77 428.66 154.77 429.43 154.77 432.41 154.77 432.41 152.62 423.73 152.62 423.73 166.47 428.57 166.47 428.57 154.77"/><path class="cls-74" d="M544.06,149.2a17.26,17.26,0,1,0,17.26,17.26A17.26,17.26,0,0,0,544.06,149.2Zm2.57,28.08h-5.51v-2h5.51v2Zm1.07-3h-7.66v-2h7.66v2Zm2.14-7.18a5.27,5.27,0,0,0-1.85,4.18h-2a7.2,7.2,0,0,1,2.27-5.42,5.39,5.39,0,0,0,1.25-3.42,5.46,5.46,0,0,0-5.41-5.5,5.52,5.52,0,0,0-3.87,1.56,5.45,5.45,0,0,0,0,7.78l0.09,0.1A7,7,0,0,1,542,171.2h-2a5,5,0,0,0-1.26-3.58,7.45,7.45,0,0,1,.05-10.58,7.31,7.31,0,0,1,5.29-2.14,7.46,7.46,0,0,1,5.72,12.16h0Z"/><rect class="cls-75" x="539.5" y="90.5" width="35" height="35"/><rect class="cls-75" x="576.5" y="90.5" width="35" height="35"/><rect class="cls-75" x="613.5" y="90.5" width="35" height="35"/><path class="cls-6" d="M562.29,97.41a11.74,11.74,0,0,0-2.88-.1,4.35,4.35,0,0,0-4,4.72v3h-2.68v3.55h2.72V119h3.37V108.6h3.3l0.16-3.55h-3.46v-2.56c0-.77,0-1.63,2.12-1.63h1.24Z"/><rect class="cls-6" x="586.28" y="103.9" width="3.73" height="11.78"/><circle class="cls-6" cx="588.14" cy="100.25" r="2.08"/><rect class="cls-6" x="592.08" y="103.9" width="3.74" height="11.78"/><path class="cls-6" d="M599.4,103.63c2.23,0,4.07,1.75,4.07,5.2v6.85h-3.73v-6.36s0.14-2.6-2-2.6-1.93,2.57-1.93,3.43-1.37-.92-1.37-0.92l1.17-3.12A3.7,3.7,0,0,1,599.4,103.63Z"/><path class="cls-6" d="M461.33,40.45a11.74,11.74,0,0,0-2.88-.1,4.35,4.35,0,0,0-4,4.72v3H451.8v3.55h2.72V62h3.37V51.64h3.3l0.16-3.55h-3.46V45.53c0-.77,0-1.63,2.12-1.63h1.24Z"/><path class="cls-76" d="M218.35,162.67a63.73,63.73,0,0,0-.89-10.55c-28.37-4.34-37.54-11.65-38.78-12.74a0.08,0.08,0,0,0-.16,0c-1.24,1.1-10.41,8.41-38.78,12.74a63.74,63.74,0,0,0-.89,10.55s-2.09,40,39.74,60.93h0C220.44,202.63,218.35,162.67,218.35,162.67Z"/><path class="cls-77" d="M178.6,223.6V139.3a0.07,0.07,0,0,0-.08.07c-1.24,1.1-10.41,8.41-38.78,12.74a63.74,63.74,0,0,0-.89,10.55s-2.09,40,39.74,60.93h0Z"/><path class="cls-78" d="M359.16,81.56a7.94,7.94,0,0,1-4.3-1.26,5.71,5.71,0,0,0,.67,0,5.63,5.63,0,0,0,3.49-1.2,2.81,2.81,0,0,1-2.62-1.95,2.81,2.81,0,0,0,1.27,0,2.81,2.81,0,0,1-2.25-2.75v0a2.8,2.8,0,0,0,1.27.35,2.81,2.81,0,0,1-.87-3.75,8,8,0,0,0,5.78,2.93,2.81,2.81,0,0,1,4.78-2.56,5.62,5.62,0,0,0,1.78-.68,2.81,2.81,0,0,1-1.23,1.55,5.61,5.61,0,0,0,1.61-.44,5.7,5.7,0,0,1-1.4,1.45q0,0.18,0,.36a7.93,7.93,0,0,1-8,8"/><path class="cls-18" d="M510.4,119.48a4.1,4.1,0,0,0,6.81-.86A4.1,4.1,0,0,0,510.4,119.48Z"/><path class="cls-18" d="M505.17,114a4.1,4.1,0,0,0,6.63,1.78A4.1,4.1,0,0,0,505.17,114Z"/><path class="cls-18" d="M503.64,105.89a4.1,4.1,0,0,0,4.09,5.51A4.1,4.1,0,0,0,503.64,105.89Z"/><path class="cls-18" d="M530.34,119.52a4.1,4.1,0,0,1-6.81-.86A4.1,4.1,0,0,1,530.34,119.52Z"/><path class="cls-18" d="M535.62,114A4.1,4.1,0,0,1,529,115.8,4.1,4.1,0,0,1,535.62,114Z"/><path class="cls-18" d="M537.1,105.89A4.1,4.1,0,0,1,533,111.4,4.1,4.1,0,0,1,537.1,105.89Z"/><path class="cls-18" d="M505.17,114a4.1,4.1,0,0,0,6.63,1.78A4.1,4.1,0,0,0,505.17,114Z"/><path class="cls-18" d="M503.64,105.89a4.1,4.1,0,0,0,4.09,5.51A4.1,4.1,0,0,0,503.64,105.89Z"/><path class="cls-18" d="M537.1,105.89A4.1,4.1,0,0,1,533,111.4,4.1,4.1,0,0,1,537.1,105.89Z"/><path class="cls-18" d="M509.25,94v11.22a11.16,11.16,0,0,0,11.12,11.12h0a11.16,11.16,0,0,0,11.12-11.12V94H509.25Z"/><path class="cls-6" d="M622.93,117.63a3.32,3.32,0,0,0,5.51-.7A3.32,3.32,0,0,0,622.93,117.63Z"/><path class="cls-6" d="M618.69,113.21a3.32,3.32,0,0,0,5.37,1.44A3.32,3.32,0,0,0,618.69,113.21Z"/><path class="cls-6" d="M617.45,106.62a3.32,3.32,0,0,0,3.31,4.46A3.32,3.32,0,0,0,617.45,106.62Z"/><path class="cls-6" d="M639.07,117.66a3.32,3.32,0,0,1-5.51-.7A3.32,3.32,0,0,1,639.07,117.66Z"/><path class="cls-6" d="M643.35,113.21a3.32,3.32,0,0,1-5.37,1.44A3.32,3.32,0,0,1,643.35,113.21Z"/><path class="cls-6" d="M644.55,106.62a3.32,3.32,0,0,1-3.31,4.46A3.32,3.32,0,0,1,644.55,106.62Z"/><path class="cls-6" d="M618.69,113.21a3.32,3.32,0,0,0,5.37,1.44A3.32,3.32,0,0,0,618.69,113.21Z"/><path class="cls-6" d="M617.45,106.62a3.32,3.32,0,0,0,3.31,4.46A3.32,3.32,0,0,0,617.45,106.62Z"/><path class="cls-6" d="M644.55,106.62a3.32,3.32,0,0,1-3.31,4.46A3.32,3.32,0,0,1,644.55,106.62Z"/><path class="cls-6" d="M622,97v9.09a9,9,0,0,0,9,9h0a9,9,0,0,0,9-9V97H622Z"/><path id="White" class="cls-18" d="M457,95.33H435.53a1.33,1.33,0,0,0-1.33,1.33v21.43a1.33,1.33,0,0,0,1.33,1.33h11.54v-9.33h-3.14v-3.64h3.14v-2.68c0-3.11,1.9-4.81,4.68-4.81a25.76,25.76,0,0,1,2.81.14v3.25h-1.93c-1.51,0-1.8.72-1.8,1.77v2.32h3.6L454,110.09h-3.13v9.33H457a1.33,1.33,0,0,0,1.33-1.33V96.66A1.33,1.33,0,0,0,457,95.33Z"/><path class="cls-18" d="M494.62,94.38H472.28a1.91,1.91,0,0,0-1.93,1.89V118.7a1.91,1.91,0,0,0,1.93,1.89h22.34a1.92,1.92,0,0,0,1.94-1.89V96.26A1.92,1.92,0,0,0,494.62,94.38Zm-16.5,22.34h-3.89V104.2h3.89v12.51Zm-1.94-14.22a2.25,2.25,0,1,1,2.25-2.25A2.25,2.25,0,0,1,476.18,102.49Zm16.51,14.22H488.8v-6.08c0-1.45,0-3.32-2-3.32s-2.33,1.58-2.33,3.21v6.19h-3.89V104.2h3.73v1.71h0.05a4.08,4.08,0,0,1,3.68-2c3.94,0,4.66,2.59,4.66,6v6.86Z"/><path class="cls-79" d="M641.09,144v27.94a27.79,27.79,0,0,1-27.71,27.71h0a27.79,27.79,0,0,1-27.71-27.71V144h55.41Z"/><path class="cls-80" d="M611.36,144l-13.21,13.21a7.45,7.45,0,0,0,10.54,10.54L632.44,144H611.36Z"/><path class="cls-80" d="M603.23,197.6l37.86-37.86V144h0l-47.3,47.3A27.83,27.83,0,0,0,603.23,197.6Z"/><path class="cls-38" d="M638.09,147v24.94a24.71,24.71,0,0,1-49.41,0V147h49.41m3-3H585.68v27.94a27.79,27.79,0,0,0,27.71,27.71h0a27.79,27.79,0,0,0,27.71-27.71V144h0Z"/><path class="cls-20" d="M588.56,207.47a10.22,10.22,0,0,0,17-2.14A10.22,10.22,0,0,0,588.56,207.47Z"/><path class="cls-20" d="M575.52,193.88A10.22,10.22,0,0,0,592,198.31,10.22,10.22,0,0,0,575.52,193.88Z"/><path class="cls-20" d="M571.72,173.62a10.22,10.22,0,0,0,10.19,13.72A10.22,10.22,0,0,0,571.72,173.62Z"/><path class="cls-20" d="M638.21,207.57a10.22,10.22,0,0,1-17-2.14A10.22,10.22,0,0,1,638.21,207.57Z"/><path class="cls-20" d="M651.36,193.88a10.22,10.22,0,0,1-16.51,4.43A10.22,10.22,0,0,1,651.36,193.88Z"/><path class="cls-20" d="M655.06,173.62a10.22,10.22,0,0,1-10.19,13.72A10.22,10.22,0,0,1,655.06,173.62Z"/><path class="cls-81" d="M597.81,203.73a8,8,0,0,1,5.25,1.9,8.1,8.1,0,0,1-5.7,3.35,8.83,8.83,0,0,1-1.1.07,8,8,0,0,1-5.25-1.9,8.1,8.1,0,0,1,5.7-3.35,8.83,8.83,0,0,1,1.1-.07m0-2a10.8,10.8,0,0,0-1.35.09,9.89,9.89,0,0,0-7.9,5.65,9.75,9.75,0,0,0,7.7,3.59,10.8,10.8,0,0,0,1.35-.09,9.89,9.89,0,0,0,7.9-5.65,9.75,9.75,0,0,0-7.7-3.59h0Z"/><path class="cls-81" d="M582.21,193.27a8.66,8.66,0,0,1,2.25.3,8.1,8.1,0,0,1,5.19,4.1,7.86,7.86,0,0,1-4.3,1.25,8.66,8.66,0,0,1-2.25-.3,8.1,8.1,0,0,1-5.19-4.1,7.86,7.86,0,0,1,4.3-1.25m0-2a9.59,9.59,0,0,0-6.68,2.61,9.89,9.89,0,0,0,7.06,6.67,10.66,10.66,0,0,0,2.77.37,9.59,9.59,0,0,0,6.68-2.61,9.89,9.89,0,0,0-7.06-6.67,10.66,10.66,0,0,0-2.77-.37h0Z"/><path class="cls-81" d="M573.19,175.6a8.37,8.37,0,0,1,7.25,9.75,8.37,8.37,0,0,1-7.25-9.75m-0.6-2a8.67,8.67,0,0,0-.87,0,9.89,9.89,0,0,0,1.39,9.61,10,10,0,0,0,7.93,4.15,8.67,8.67,0,0,0,.87,0,9.89,9.89,0,0,0-1.39-9.61,10,10,0,0,0-7.93-4.15h0Z"/><path class="cls-81" d="M629,203.83h0a8.83,8.83,0,0,1,1.1.07,8.1,8.1,0,0,1,5.7,3.35,8,8,0,0,1-5.25,1.9,8.83,8.83,0,0,1-1.1-.07,8.1,8.1,0,0,1-5.7-3.35,8,8,0,0,1,5.25-1.9m0-2a9.75,9.75,0,0,0-7.7,3.59,9.89,9.89,0,0,0,7.9,5.65,10.8,10.8,0,0,0,1.35.09,9.75,9.75,0,0,0,7.7-3.59,9.89,9.89,0,0,0-7.9-5.65,10.8,10.8,0,0,0-1.35-.09h0Z"/><path class="cls-81" d="M644.68,193.27a7.86,7.86,0,0,1,4.3,1.25,8.1,8.1,0,0,1-5.19,4.1,8.66,8.66,0,0,1-2.25.3,7.86,7.86,0,0,1-4.3-1.25,8.1,8.1,0,0,1,5.19-4.1,8.66,8.66,0,0,1,2.25-.3m0-2a10.66,10.66,0,0,0-2.77.37,9.89,9.89,0,0,0-7.06,6.67,9.59,9.59,0,0,0,6.68,2.61,10.66,10.66,0,0,0,2.77-.37,9.89,9.89,0,0,0,7.06-6.67,9.59,9.59,0,0,0-6.68-2.61h0Z"/><path class="cls-81" d="M653.59,175.6a8.37,8.37,0,0,1-7.25,9.75,8.37,8.37,0,0,1,7.25-9.75m0.6-2a10,10,0,0,0-7.93,4.15,9.89,9.89,0,0,0-1.39,9.61,8.67,8.67,0,0,0,.87,0,10,10,0,0,0,7.93-4.15,9.89,9.89,0,0,0,1.39-9.61,8.66,8.66,0,0,0-.87,0h0Z"/><g id="Page-1"><g id="a"><g id="Group-2-Copy"><path id="Path-158" class="cls-6" d="M709,152.73c-1.35,0-11.66-.18-11.66-0.18a4.25,4.25,0,0,0-4.06,4.09c-0.51,4.09-.17,3.56,0,4.27s1.35,3.2,4.22,1.42,11.49-7.47,12-7.82S710.32,152.73,709,152.73Z"/><path id="Path-159" class="cls-6" d="M707.78,151.67H697a2.32,2.32,0,0,1-1.18-.36c-0.51-.36,0-1.07,0-1.07a9.1,9.1,0,0,1,3.21-2.13,9.81,9.81,0,0,1,3.21-.53,9.51,9.51,0,0,1,4.22.89,8.47,8.47,0,0,1,2.53,2s0.51,0.89-.17,1.07A2.4,2.4,0,0,1,707.78,151.67Z"/><path id="Path-160" class="cls-6" d="M709.13,155.93a1.12,1.12,0,0,1,1.18-.18,1.18,1.18,0,0,1,.17,1.24s-4.56,9.25-5.41,10.13-2.53,2.84-5.41,1.78-3.38-2.31-3.38-2.31a2.46,2.46,0,0,1,.84-3C698.83,162.43,709.13,155.93,709.13,155.93Z"/><path id="Path-161" class="cls-6" d="M711.33,158.07s0.34-1.07.84-.89,1.69,3.2.84,6.22-1.35,3.38-2.2,4.27a7.47,7.47,0,0,1-4.22,2.13c-2,.36-0.68-1.42-0.68-1.42Z"/><path id="Path-162" class="cls-6" d="M714.88,152a1.19,1.19,0,0,0-1.35-.36,1.2,1.2,0,0,0-.34,1.42,5.41,5.41,0,0,0,.84,1.24c0.34,0.36,1,.89,1.52.53a1.41,1.41,0,0,0,.17-1.6A7.53,7.53,0,0,0,714.88,152Z"/><path id="Path-163" class="cls-6" d="M711.5,151a12.59,12.59,0,0,1-2.7-1.78,13.69,13.69,0,0,1-2.2-1.78c-0.34-.36-0.68-1.07.17-1.07a6.14,6.14,0,0,1,3,.89c1.35,0.71,2.53,1.42,2.87,2.13a1.34,1.34,0,0,1,0,1.42A1.23,1.23,0,0,1,711.5,151Z"/></g></g></g><g id="Page-1-2" data-name="Page-1"><g id="Artboard-6"><g id="Group-Copy"><path id="Shape" class="cls-6" d="M679.3,156.51a6.33,6.33,0,0,1,3-5.31,6.34,6.34,0,0,0-5-2.76c-2.11-.23-4.16,1.28-5.24,1.28s-2.76-1.26-4.54-1.23a6.67,6.67,0,0,0-5.63,3.49c-2.43,4.28-.62,10.57,1.71,14,1.17,1.69,2.53,3.59,4.31,3.52s2.4-1.13,4.5-1.13,2.7,1.13,4.52,1.09,3.05-1.7,4.18-3.41a14.1,14.1,0,0,0,1.91-4,6.1,6.1,0,0,1-3.67-5.62h0Z"/><path id="Shape-2" data-name="Shape" class="cls-6" d="M675.87,146.17a6.29,6.29,0,0,0,1.4-4.46,6.21,6.21,0,0,0-4,2.12,6,6,0,0,0-1.44,4.3,5.13,5.13,0,0,0,4.07-2h0Z"/></g></g></g><g id="Page-1-3" data-name="Page-1"><g id="Artboard-7"><g id="Untitled-1-Copy"><g id="VGgGvw"><g id="Group"><path id="Shape-3" data-name="Shape" class="cls-6" d="M749.2,157.19a3.2,3.2,0,0,1,2.64,3.58c0,2.08-1,3.58-2.83,3.69a43.51,43.51,0,0,1-7.1-.06c-2.32-.24-3.45-1.89-3.46-4.4,0-.84,0-1.68,0-2.52,0-2.84,1.24-4.55,3.83-4.72,2.86-.19,5.74,0,8.72,0v2.45c-1.19,0-6.45,0-7.85,0-1.21,0-1.6.4-1.95,1.82C743.16,157,748.44,157,749.2,157.19ZM742.38,162a46.38,46.38,0,0,0,5.7,0,0.9,0.9,0,0,0,1.07-1,1.11,1.11,0,0,0-1-1.25c-2.28-.09-4.56-0.05-6.82-0.05C741.11,161.07,741.43,161.9,742.38,162Z"/><path id="Shape-4" data-name="Shape" class="cls-6" d="M723.73,164.54V162s6.36,0.12,8.61.11a1.93,1.93,0,0,0,1.53-.36,2.65,2.65,0,0,0,.33-1.83h-9.47v-2.46c0.45,0,9.47,0,9.47,0a2.7,2.7,0,0,0-.24-1.8,2.63,2.63,0,0,0-1.77-.48H723.9v-2.51c2.42,0,8.83,0,9.68,0,2,0.11,3.2,1.47,3.22,3.64q0,2.34,0,4.68c0,2.06-1,3.35-2.91,3.55C732.32,164.71,723.73,164.54,723.73,164.54Z"/><path id="Shape-5" data-name="Shape" class="cls-6" d="M763.43,152.87a4.66,4.66,0,0,1,3.66,4.45q0,1.2,0,2.4c0,2.62-1.27,4.43-3.66,4.69a29.9,29.9,0,0,1-6.39,0c-2.37-.25-3.61-2-3.66-4.53,0-.76,0-1.51,0-2.27,0-3,1.09-4.76,3.87-4.94A35,35,0,0,1,763.43,152.87Zm-3.22,9.2c4,0,4.41-.51,4.15-4.66a1.91,1.91,0,0,0-1.66-2.08,31.57,31.57,0,0,0-5,0c-1.1.09-1.62,1-1.66,2.2-0.14,4.18.17,4.54,4,4.54h0.12Z"/></g></g></g></g></g><g class="cls-82"><circle class="cls-83" cx="717.98" cy="115.68" r="6.5"/><circle class="cls-83" cx="738.73" cy="115.68" r="6.5"/><circle class="cls-83" cx="728.39" cy="97.5" r="6.5"/></g><g class="cls-84"><circle class="cls-85" cx="757.98" cy="115.68" r="6.5"/><circle class="cls-85" cx="778.73" cy="115.68" r="6.5"/><circle class="cls-85" cx="768.39" cy="97.5" r="6.5"/></g><g class="cls-86"><path class="cls-83" d="M813.85,112.18a9.69,9.69,0,0,1,16.29,7.09v1.26H815.91"/><g class="cls-87"><rect class="cls-18" x="791.25" y="85" width="24.72" height="27.77"/></g><path class="cls-83" d="M793.92,120.53v-1.26a9.69,9.69,0,1,1,19.37,0v1.26H793.92Z"/><g class="cls-88"><rect class="cls-18" x="795.36" y="95.5" width="16.51" height="13.26"/></g><g class="cls-89"><rect class="cls-18" x="808.09" y="89.52" width="24.72" height="23.24"/></g><g class="cls-90"><rect class="cls-18" x="812.2" y="95.5" width="16.51" height="13.26"/></g><g class="cls-91"><rect class="cls-18" x="808.09" y="85.25" width="28.63" height="14.29"/></g><g class="cls-92"><rect class="cls-18" x="785.83" y="89.76" width="14.29" height="23"/></g></g><g class="cls-93"><path class="cls-85" d="M858.85,112.18a9.69,9.69,0,0,1,16.29,7.09v1.26H860.91"/><g class="cls-94"><rect class="cls-95" x="836.25" y="85" width="24.72" height="27.77"/></g><path class="cls-85" d="M838.92,120.53v-1.26a9.69,9.69,0,1,1,19.37,0v1.26H838.92Z"/><g class="cls-96"><rect class="cls-95" x="840.36" y="95.5" width="16.51" height="13.26"/></g><g class="cls-97"><rect class="cls-95" x="853.09" y="89.52" width="24.72" height="23.24"/></g><g class="cls-98"><rect class="cls-95" x="857.2" y="95.5" width="16.51" height="13.26"/></g><g class="cls-99"><rect class="cls-95" x="853.09" y="85.25" width="28.63" height="14.29"/></g><g class="cls-100"><rect class="cls-95" x="830.83" y="89.76" width="14.29" height="23"/></g></g><g class="cls-101"><path class="cls-102" d="M884.22,103.68h0.54a3.1,3.1,0,0,0,3-2l2.95-10.57h-5.47a0.8,0.8,0,0,0-.75.52l-3.2,8.28C880.49,101.7,882,103.68,884.22,103.68Z"/><path class="cls-102" d="M913.63,103.68H913a3.1,3.1,0,0,1-3-2l-2.95-10.57h5.64a0.8,0.8,0,0,1,.75.53l3.1,8.3C917.34,101.73,915.83,103.68,913.63,103.68Z"/><path class="cls-102" d="M898.35,103.68h1.09a2.94,2.94,0,0,0,3.13-2.93L902,91.09h-6.28l-0.53,9.67A2.94,2.94,0,0,0,898.35,103.68Z"/><path class="cls-102" d="M902,91.09l0.55,10a3,3,0,0,0,3.13,2.62h0.8a2.86,2.86,0,0,0,3-3.52l-2.48-9.07h-5Z"/><path class="cls-102" d="M890.73,91.09l-2.48,9.07a2.86,2.86,0,0,0,3,3.52h0.8a3,3,0,0,0,3.13-2.62l0.55-10h-5Z"/><path class="cls-83" d="M883.66,103.68v14.75a0.36,0.36,0,0,0,.36.36h4.17a0.36,0.36,0,0,0,.36-0.36v-9.89a0.14,0.14,0,0,1,.14-0.14h5.83a0.14,0.14,0,0,1,.14.14v9.89a0.36,0.36,0,0,0,.36.36h19.33a0.36,0.36,0,0,0,.36-0.36V103.68"/><rect class="cls-103" x="899.42" y="108.41" width="10.48" height="6.19" rx="0.14" ry="0.14"/></g><g class="cls-104"><path class="cls-105" d="M924.22,103.68h0.54a3.1,3.1,0,0,0,3-2l2.95-10.57h-5.47a0.8,0.8,0,0,0-.75.52l-3.2,8.28C920.49,101.7,922,103.68,924.22,103.68Z"/><path class="cls-105" d="M953.63,103.68H953a3.1,3.1,0,0,1-3-2l-2.95-10.57h5.64a0.8,0.8,0,0,1,.75.53l3.1,8.3C957.34,101.73,955.83,103.68,953.63,103.68Z"/><path class="cls-105" d="M938.35,103.68h1.09a2.94,2.94,0,0,0,3.13-2.93L942,91.09h-6.28l-0.53,9.67A2.94,2.94,0,0,0,938.35,103.68Z"/><path class="cls-105" d="M942,91.09l0.55,10a3,3,0,0,0,3.13,2.62h0.8a2.86,2.86,0,0,0,3-3.52l-2.48-9.07h-5Z"/><path class="cls-105" d="M930.73,91.09l-2.48,9.07a2.86,2.86,0,0,0,3,3.52h0.8a3,3,0,0,0,3.13-2.62l0.55-10h-5Z"/><path class="cls-85" d="M923.66,103.68v14.75a0.36,0.36,0,0,0,.36.36h4.17a0.36,0.36,0,0,0,.36-0.36v-9.89a0.14,0.14,0,0,1,.14-0.14h5.83a0.14,0.14,0,0,1,.14.14v9.89a0.36,0.36,0,0,0,.36.36h19.33a0.36,0.36,0,0,0,.36-0.36V103.68"/><rect class="cls-106" x="939.42" y="108.41" width="10.48" height="6.19" rx="0.14" ry="0.14"/></g></svg>