<svg version="1.1" xmlns="http://www.w3.org/2000/svg" x="0" y="0" width="1100" height="1100" viewBox="0 0 1100 1100" xml:space="preserve"><path fill="#EF8200" d="M208.448 44.02h-15.192v-1.514c0-12.77-8.823-23.453-20.698-26.359v-5.544c-2.633 0-4.954 1.282-6.41 3.245-1.281-1.399-3.101-2.295-5.149-2.295v4.279c-12.568 2.385-22.076 13.411-22.076 26.673v1.514h-17.026c0 8.849 6.356 16.181 14.746 17.761l.518 5.386 4.529 9.729 15.096 6.038 24.489-2.013 16.102-11.07-1.342-7.716-.24-.879c7.33-2.317 12.653-9.14 12.653-17.235z"/><path fill="#E26600" d="M157.245 35.533a4.968 4.968 0 1 0-9.936 0M186.84 35.533a4.968 4.968 0 1 0-9.936 0"/><path fill="#FAA918" d="M158.089 41.547l8.808-8.808 8.808 8.808-8.808 8.808z"/><path fill="#F49308" d="M175.706 41.546l-8.965 2.596-8.651-2.596 8.808 8.809z"/><path fill="#E26600" d="M198.39 58.402v9.878c0 17.937-14.541 32.478-32.478 32.478s-32.478-14.541-32.478-32.478v-9.878l13.171 10.626 19.729-10.847 19.339 11.002 12.717-10.781z"/><path fill="#EF8200" d="M316.889 73.007h-82.178c-2.829 0-2.724 2.153-2.724 4.98 0 2.839 2.293 4.982 5.127 4.982h77.19c2.829 0 5.126-2.143 5.126-4.982 0-2.827.288-4.98-2.541-4.98z"/><path fill="#D15900" d="M323.3 65.91a7.075 7.075 0 0 1-7.075 7.075h-80.561a7.075 7.075 0 1 1 0-14.15h80.561a7.074 7.074 0 0 1 7.075 7.075z"/><path fill="#FAA918" d="M246.453 76.075a5.002 5.002 0 0 0 10.004 0V55.59a5.002 5.002 0 0 0-10.004 0v20.485z"/><path fill="#FAA918" d="M256.196 71.118a5.002 5.002 0 0 0 10.004 0V50.633a5.002 5.002 0 0 0-10.004 0v20.485z"/><path fill="#EF8200" d="M232.202 53.897c0-15.802 12.81-28.612 28.612-28.612h29.813c15.802 0 28.612 12.81 28.612 28.612"/><ellipse fill="#FAA918" cx="260.734" cy="31.498" rx="3.554" ry="1.545"/><ellipse fill="#FAA918" cx="290.605" cy="31.498" rx="3.554" ry="1.545"/><ellipse fill="#FAA918" cx="275.773" cy="37.884" rx="3.554" ry="1.545"/><path fill="#E26600" d="M323.109 56.34c0 1.391-1.082 2.518-2.417 2.518h-89.445c-1.335 0-2.417-1.127-2.417-2.518 0-1.391 1.082-2.518 2.417-2.518h89.445c1.334 0 2.417 1.127 2.417 2.518z"/><g opacity=".77"><path fill="#EF8200" d="M606.394 125.306v-.01h-.038c-.052 0-.102.006-.154.006-.05 0-.098-.006-.15-.006h-.039v.01c-15.533.183-28.073 12.826-28.073 28.402 0 3.442.616 6.895 1.856 10.101 1.201 3.115 2.968 5.923 5.101 8.474 2.094 2.503 4.287 4.953 5.923 7.792 1.575 2.732 2.414 5.257 2.714 8.578h25.339c.3-3.321 1.143-5.846 2.714-8.578 1.636-2.839 3.829-5.288 5.923-7.792 2.137-2.551 3.904-5.359 5.105-8.474 1.238-3.207 1.854-6.659 1.854-10.101-.002-15.576-12.544-28.219-28.075-28.402z"/></g><circle fill="#FAA918" cx="592.992" cy="142.87" r="5.327"/><path fill="#E26600" d="M621.583 189.748a2.604 2.604 0 0 1-2.604 2.604h-25.515a2.604 2.604 0 0 1 0-5.208h25.515a2.605 2.605 0 0 1 2.604 2.604zM619.097 196.851a2.604 2.604 0 0 1-2.604 2.604H595.24a2.604 2.604 0 0 1 0-5.208h21.253a2.605 2.605 0 0 1 2.604 2.604zM597.186 201.471c1.369 3.625 4.843 6.215 8.947 6.215 4.104 0 7.579-2.59 8.947-6.215h-17.894z"/><path fill="#D8D8D8" d="M858.021 418.129c-5.544 5.56-14.545 5.573-20.105.029l-45.303-45.171c-5.56-5.544-5.573-14.545-.029-20.105 5.544-5.56 14.545-5.573 20.105-.029l45.303 45.171c5.56 5.544 5.573 14.545.029 20.105z"/><path fill="#E8AE82" d="M826.068 364.905l19.965 19.91-21.582 21.643-19.966-19.91z"/><path fill="#C18156" d="M811.782 362.488a2.132 2.132 0 1 0 3.02 3.012 2.132 2.132 0 0 0-.004-3.016 2.134 2.134 0 0 0-3.016.004zM802.246 372.052a2.132 2.132 0 1 0 3.02 3.012 2.132 2.132 0 1 0-3.02-3.012zM799.211 358.988a2.132 2.132 0 1 0 3.02 3.012 2.132 2.132 0 1 0-3.02-3.012z"/><path fill="#BCBCBC" d="M837.481 407.185a2.132 2.132 0 1 0-3.02-3.012 2.132 2.132 0 1 0 3.02 3.012zM847.017 397.621a2.132 2.132 0 1 0-3.02-3.012 2.132 2.132 0 1 0 3.02 3.012zM850.052 410.685a2.132 2.132 0 1 0-3.02-3.012 2.132 2.132 0 1 0 3.02 3.012z"/><path fill="#EF8200" d="M858.021 418.129c-5.544 5.56-14.545 5.573-20.105.029l-45.303-45.171c-5.56-5.544-5.573-14.545-.029-20.105 5.544-5.56 14.545-5.573 20.105-.029l45.303 45.171c5.56 5.544 5.573 14.545.029 20.105z"/><path fill="#E8AE82" d="M826.068 364.905l19.965 19.91-21.582 21.643-19.966-19.91z"/><path fill="#D8D8D8" d="M857.926 352.787c5.56 5.544 5.573 14.545.029 20.105l-45.171 45.303c-5.544 5.56-14.545 5.573-20.105.029-5.56-5.544-5.573-14.545-.029-20.105l45.171-45.303c5.543-5.559 14.545-5.573 20.105-.029z"/><path fill="#E26600" d="M811.782 362.488a2.132 2.132 0 1 0 3.02 3.012 2.132 2.132 0 0 0-.004-3.016 2.134 2.134 0 0 0-3.016.004z"/><path fill="#C18156" d="M802.285 399.027a2.132 2.132 0 1 0 3.012-3.02 2.132 2.132 0 1 0-3.012 3.02zM811.849 408.563a2.132 2.132 0 1 0 3.012-3.02 2.132 2.132 0 1 0-3.012 3.02zM798.785 411.598a2.132 2.132 0 1 0 3.012-3.02 2.132 2.132 0 1 0-3.012 3.02z"/><path fill="#E26600" d="M802.246 372.052a2.132 2.132 0 1 0 3.02 3.012 2.132 2.132 0 1 0-3.02-3.012zM799.211 358.988a2.132 2.132 0 1 0 3.02 3.012 2.132 2.132 0 1 0-3.02-3.012zM837.481 407.185a2.132 2.132 0 1 0-3.02-3.012 2.132 2.132 0 1 0 3.02 3.012z"/><path fill="#EF8200" d="M857.926 352.787c5.56 5.544 5.573 14.545.029 20.105l-45.171 45.303c-5.544 5.56-14.545 5.573-20.105.029-5.56-5.544-5.573-14.545-.029-20.105l45.171-45.303c5.543-5.559 14.545-5.573 20.105-.029z"/><path fill="#E26600" d="M802.285 399.027a2.132 2.132 0 1 0 3.012-3.02 2.132 2.132 0 1 0-3.012 3.02zM811.849 408.563a2.132 2.132 0 1 0 3.012-3.02 2.132 2.132 0 1 0-3.012 3.02zM798.785 411.598a2.132 2.132 0 1 0 3.012-3.02 2.132 2.132 0 1 0-3.012 3.02zM846.982 373.327a2.132 2.132 0 1 0-3.012 3.02 2.132 2.132 0 1 0 3.012-3.02zM837.418 363.791a2.132 2.132 0 1 0-3.012 3.02 2.132 2.132 0 1 0 3.012-3.02zM850.482 360.757a2.132 2.132 0 1 0-3.012 3.02 2.132 2.132 0 1 0 3.012-3.02zM847.017 397.621a2.132 2.132 0 1 0-3.02-3.012 2.132 2.132 0 1 0 3.02 3.012zM850.052 410.685a2.132 2.132 0 1 0-3.02-3.012 2.132 2.132 0 1 0 3.02 3.012zM805.582 385.62l19.91-19.966 20.027 19.97-19.91 19.966zM294.132 306.483c-.739.175-1.425.621-1.883 1.492-.317.603-.528 1.223-.709 1.847-.031.036-.063.072-.093.11-.515.186 6.266 2.912 5.882 3.327-1.927.051-1.397-.846-.615 1.501l.072.218H238.61c.002-.009-.002-.017 0-.026-.087.002-.168.026-.255.026-5.343 0-9.676-4.332-9.676-9.676v-2.97l-.033-.002v-4.554h68.268v6.843c-1.138.015-2.256.583-2.782 1.864z"/><path fill="#EF8200" d="M285.956 297.777v7.526a9.676 9.676 0 0 0 9.676 9.676 9.676 9.676 0 0 0 9.676-9.676v-7.526M305.341 249.969v-.101 47.909h-58.995v-49.952c.023-.002.044-.012.067-.014v-2.497l.033-.002v-2.97a9.676 9.676 0 0 1 9.676-9.676c.087 0 .168.023.255.026-.002-.009.002-.017 0-.026h48.547l-.022.067h.439v.033h9.724l-2.408.005c5.322.026 9.628 4.344 9.628 9.671v7.526h-16.944z"/><path fill="#E26600" d="M305.434 232.767h7.223v.005c5.322.026 9.628 4.344 9.628 9.671v7.526H305.34M297.069 292.154l-7.178-10.13.16-.227-.644-.457-2.311-3.262-1.147.813-1.146-.813-2.312 3.262-.644.457.16.227-7.178 10.13 7.954-.098 3.166-4.469 3.167 4.469z"/><path fill="#EF8200" d="M305.48 238.658a5.94 5.94 0 0 1 5.846-5.936h-9.227l3.381 5.936z"/><circle fill="#E26600" cx="285.99" cy="276.826" r="9.57"/><path fill="#E26600" d="M295.626 248.121c0 .831-.674 1.504-1.504 1.504h-38.815a1.504 1.504 0 0 1 0-3.008h38.815c.831 0 1.504.674 1.504 1.504zM288.405 260.157c0 .831-.674 1.504-1.504 1.504h-31.594a1.504 1.504 0 0 1 0-3.008H286.9c.831 0 1.505.673 1.505 1.504zM266.741 272.193c0 .831-.674 1.504-1.504 1.504h-9.929a1.504 1.504 0 0 1 0-3.008h9.929a1.504 1.504 0 0 1 1.504 1.504z"/><path fill="#EF8200" d="M632.913 229.934h-27.309v47.791l-23.03 20.199c-5.64 5.64-5.64 14.785 0 20.425 5.64 5.64 14.785 5.64 20.425 0l25.634-22.484c2.665-2.665 4.026-6.115 4.172-9.606h.107v-56.325z"/><path fill="#E26600" d="M620.572 290.461c0 3.584 1.411 6.82 3.67 9.256l4.392-3.852c2.665-2.665 4.026-6.115 4.172-9.606h.107v-9.321c-6.915.671-12.341 6.432-12.341 13.523zM582.857 297.676l-.283.248c-5.64 5.64-5.64 14.785 0 20.425 5.491 5.491 14.278 5.592 19.944.392l-19.661-21.065zM605.604 238.206h27.309v4.989h-27.309zM605.604 247.659h27.309v4.989h-27.309z"/><circle fill="#EF8200" cx="825.228" cy="165.611" r="44.211"/><path fill="#FAA918" d="M857.504 148.759c9.303 17.826 2.398 39.82-15.425 49.127-17.826 9.305-39.822 2.4-49.128-15.423-9.304-17.826-2.398-39.82 15.425-49.127 17.826-9.305 39.821-2.399 49.128 15.423z"/><path fill="#E26600" d="M815.591 171.894l-4.77-30.372 23.855 19.389z"/><path fill="#EF8200" d="M834.672 160.895l4.768 30.372-23.855-19.394z"/><path fill="#FFC524" d="M828.64 164.25a4.1 4.1 0 1 1-7.108 4.085 4.1 4.1 0 0 1 7.108-4.085z"/><circle fill="#EF8200" cx="1022.337" cy="72.792" r="12.089"/><g><path fill="#E26600" d="M1022.338 81.399c-4.747 0-8.61-3.861-8.61-8.607s3.862-8.607 8.61-8.607c4.745 0 8.607 3.861 8.607 8.607s-3.862 8.607-8.607 8.607zm0-14.881c-3.461 0-6.274 2.814-6.274 6.274s2.813 6.274 6.274 6.274c3.458 0 6.271-2.814 6.271-6.274s-2.813-6.274-6.271-6.274z"/></g><path fill="#E26600" d="M1064.605 69.897h-10.652V59.395h5.526c6.929 0 12.566-5.637 12.566-12.565v-7.197h-6.087v7.197a6.486 6.486 0 0 1-6.479 6.478h-17.138a6.486 6.486 0 0 1-6.479-6.478v-7.197h-6.087v7.197c0 6.928 5.637 12.565 12.566 12.565h5.526v10.502h-19.062v6.087h19.062v10.652c0 9.229 7.509 16.738 16.738 16.738s16.738-7.509 16.738-16.738c.001-9.23-7.509-16.739-16.738-16.739zm0 27.39c-5.873 0-10.652-4.778-10.652-10.652V75.983h10.652c5.873 0 10.652 4.778 10.652 10.652s-4.779 10.652-10.652 10.652z"/><g fill="#EF8200"><path d="M1035.862 18.741a6.486 6.486 0 0 1 6.479-6.478V6.176c-6.929 0-12.566 5.637-12.566 12.565v20.892h6.087V18.741zM1059.479 6.176v6.087a6.486 6.486 0 0 1 6.479 6.478v20.892h6.087V18.741c0-6.928-5.637-12.565-12.566-12.565z"/></g><path fill="#EF8200" d="M534.669 514.369h-1.112v-20.284h.016v-23.526l-19.394 18.198-19.394-18.198-19.268 18.05-19.269-18.05v23.526h.013v20.284h-1.012a1.976 1.976 0 0 0 0 3.952h79.42a1.976 1.976 0 0 0 0-3.952z"/><path opacity=".4" fill="#FAA918" d="M484.093 480.575l-8.575 8.033-8.415-7.882v33.445h-3.358v4.001h17.928v-3.704h2.42z"/><g><path fill="#EF8200" d="M275.255 423.23a3.235 3.235 0 0 1-2.054-.739c-19.544-15.256-28.865-23.519-34.392-30.473-6.205-7.809-7.451-13.976-7.468-21.95a3.625 3.625 0 0 1-.007-.233c0-13.389 10.892-24.283 24.282-24.283 7.833 0 15.135 3.861 19.645 10.029 4.51-6.168 11.816-10.029 19.647-10.029 13.389 0 24.284 10.894 24.284 24.283 0 .076-.002.152-.009.231-.016 7.971-1.265 14.141-7.476 21.952-5.525 6.956-14.859 15.221-34.421 30.492a3.223 3.223 0 0 1-.798.477c-.39.16-.81.243-1.233.243z"/></g><path fill="#E26600" d="M251 373.989a6.917 6.917 0 0 1 13.834 0M286.213 373.989a6.917 6.917 0 0 1 13.834 0"/><path fill="#D15900" d="M291.873 385.308c0 8.682-7.038 15.72-15.72 15.72s-15.72-7.038-15.72-15.72"/><path opacity=".31" fill="#FAA918" d="M286.697 396.943c-2.788-2.534-6.479-4.09-10.544-4.09s-7.756 1.556-10.544 4.09c2.79 2.53 6.481 4.085 10.544 4.085s7.754-1.555 10.544-4.085z"/><path fill="#EF8200" d="M197.007 491.622h-21.912c-4.178-.048-7.55-3.306-7.853-7.417V473.74c0-8.505-6.895-15.4-15.4-15.4v26.037c-.384 4.03-3.716 7.199-7.836 7.246H128.08v33.008h17.951c1.044 4.38 4.958 7.648 9.658 7.648h33.948c3.397 0 6.39-1.709 8.186-4.307h-.817v-36.35z"/><g fill="#EF8200"><path d="M178.745 504.995h18.488a6.71 6.71 0 1 0 0-13.42h-18.488a6.71 6.71 0 1 0 0 13.42zM197.233 505.202h-18.488a6.71 6.71 0 1 0 0 13.42h18.488a6.71 6.71 0 1 0 0-13.42zM197.233 518.83h-18.488a6.71 6.71 0 1 0 0 13.42h18.488a6.71 6.71 0 1 0 0-13.42z"/></g><g opacity=".45" fill="#E26600"><path d="M178.745 504.995h18.488a6.71 6.71 0 1 0 0-13.42h-18.488a6.71 6.71 0 1 0 0 13.42zM197.233 505.202h-18.488a6.71 6.71 0 1 0 0 13.42h18.488a6.71 6.71 0 1 0 0-13.42zM197.233 518.83h-18.488a6.71 6.71 0 1 0 0 13.42h18.488a6.71 6.71 0 1 0 0-13.42z"/></g><path fill="#E26600" d="M126.614 489.775h18.078V525.4h-18.078z"/><path fill="#EF8200" d="M261.073 132.225c-12.351.152-22.319 10.206-22.319 22.594h76.138v-22.601h-53.819v.007zM292.41 199.579c12.351-.152 22.319-10.206 22.319-22.594h-76.138v22.601h53.819v-.007z"/><path fill="#FFC524" d="M237.744 175.996h10.453v25.144h-10.453z"/><path fill="#E26600" d="M255.083 186.775h3.338v12.741h-3.338zM274.621 186.775h3.338v12.741h-3.338zM294.16 199.47a22.505 22.505 0 0 0 3.338-.553v-12.142h-3.338v12.695zM284.39 193.003h3.338v6.513h-3.338zM264.852 193.003h3.338v6.513h-3.338zM260.706 177.232c.066.002.129.012.195.014v-.014h53.828c0-12.388-9.967-22.442-22.319-22.594v-.007h-31.783v.012h-21.851c0 12.234 9.717 22.169 21.851 22.583v.006h.079z"/><path fill="#FFC524" d="M305.547 130.653H316v25.144h-10.453z"/><path fill="#E26600" d="M293.946 132.109h3.338v12.741h-3.338zM274.407 132.109h3.338v12.741h-3.338zM254.869 133.186v11.663h3.338v-12.387c-1.142.16-2.257.401-3.338.724zM264.638 132.109h3.338v6.513h-3.338zM284.177 132.109h3.338v6.513h-3.338z"/><path fill="#EF8200" d="M424.94 459.746H403.024c-.479-2.701-2.826-4.757-5.664-4.757s-5.185 2.055-5.664 4.757h-19.129v29.622h7.26c.159.015.313.048.476.048h26.908a4.997 4.997 0 0 0 4.997-4.997c0-2.222-1.46-4.083-3.466-4.733h.9a5.016 5.016 0 0 0 5.016-5.017 5.009 5.009 0 0 0-4.153-4.93h14.436a4.997 4.997 0 1 0-.001-9.993z"/><path fill="#E26600" d="M353.562 458.881h20.158v31.424h-20.158zM397.33 499.285h-7.259c-.159-.015-.313-.048-.476-.048h-26.908a4.997 4.997 0 0 0-4.997 4.997c0 2.222 1.46 4.083 3.466 4.733h-.9a5.016 5.016 0 0 0-5.016 5.017c0 2.474 1.795 4.518 4.152 4.93h-14.434a4.997 4.997 0 1 0 0 9.994H366.874c.479 2.701 2.826 4.757 5.664 4.757 2.839 0 5.185-2.056 5.664-4.757h19.129v-29.623z"/><path fill="#EF8200" d="M396.176 498.334h17.281v31.424h-17.281zM647.67 481.315h-6.255c-.039-11.046-9.002-19.988-20.057-19.988v9.096c-5.933-3.967-13.044-6.309-20.723-6.309-20.605 0-37.313 16.641-37.445 37.215h-.001v.017c0 .076-.011.149-.011.225h.011v7.105h-.009c0 12.077 9.789 21.867 21.866 21.867s21.866-9.79 21.866-21.867h-12.594a9.272 9.272 0 0 1-9.272 9.272c-5.12 0-9.273-4.151-9.273-9.272h-.014v-7.105h4.007v7.149a5.412 5.412 0 1 0 10.824 0v-7.149h19.973v7.149a5.412 5.412 0 1 0 10.824 0v-7.149h5.861c.054 0 .105.008.16.008s.106-.008.159-.008h1.27c-.002-.022.007-.043.005-.064 10.517-.74 18.828-9.486 18.828-20.192z"/><path fill="#E26600" d="M584.972 485.746a4.15 4.15 0 0 0 4.15-4.15v-15.663a37.23 37.23 0 0 0-8.3 3.889v11.773a4.15 4.15 0 0 0 4.15 4.151zM598.915 485.746a4.15 4.15 0 0 0 4.149-4.15v-17.372c-.807-.052-1.61-.112-2.43-.112-2.002 0-3.952.202-5.869.505v16.979a4.15 4.15 0 0 0 4.15 4.15zM612.858 485.746a4.15 4.15 0 0 0 4.15-4.15V467.88c-2.607-1.272-5.396-2.217-8.299-2.857v16.573a4.148 4.148 0 0 0 4.149 4.15z"/><circle fill="#E26600" cx="629.543" cy="485.318" r="6.349"/><circle fill="#FAA918" cx="629.543" cy="485.318" r="2.104"/><g fill="#EF8200"><path d="M496.358 53.108a3.77 3.77 0 0 0-5.27.82l-10.33 14.135-14.338-10.477a3.77 3.77 0 1 0-4.45 6.09l17.118 12.509c.273.199.568.342.868.458 1.614.8 3.614.357 4.713-1.147l12.509-17.118a3.771 3.771 0 0 0-.82-5.27zM504.102 71.762a3.772 3.772 0 0 0-3.772 3.772v21.201a3.772 3.772 0 0 0 7.544 0V75.533a3.772 3.772 0 0 0-3.772-3.771z"/><path d="M530.84 49.248a3.376 3.376 0 0 0-4.732.629l-3.316 5.008-13.57-9.831a4.15 4.15 0 0 0-3.007-.747 3.711 3.711 0 0 0-.983-.822L486.78 33.043a3.731 3.731 0 0 0-1.758-.471c-.102-.009-.203-.006-.305-.005-.041.002-.082.001-.124.005-.938.04-1.849.46-2.48 1.243l-.044.046c-.005.006-.011.01-.015.016l-.054.084a3.692 3.692 0 0 0-.358.507c-.019.033-.027.069-.045.102l-5.327 8.045a3.375 3.375 0 1 0 5.36 4.102l3.815-5.762 16.072 9.096c.526.298 1.093.44 1.659.469.284.49.667.932 1.155 1.286l15.839 11.475a4.155 4.155 0 0 0 3.114.738 3.357 3.357 0 0 0 2.399-1.3l.054-.082c.084-.096.178-.18.254-.285.173-.239.315-.49.431-.749l5.047-7.622a3.376 3.376 0 0 0-.629-4.733z"/><path d="M511.13 45.333l3.418-4.932a13.253 13.253 0 0 0 9.617-.746c-2.666-2.233-3.253-6.152-1.222-9.054l6.491 4.541a13.27 13.27 0 0 0 2.312-7.502c0-7.364-5.97-13.334-13.334-13.334s-13.334 5.97-13.334 13.334c0 3.296 1.202 6.307 3.183 8.634l-3.31 4.776 6.179 4.283z"/></g><path fill="#E26600" d="M519.407 101.143a5.468 5.468 0 0 0-5.468-5.468l-13.622-.019v5.46l-.003.027h19.093zM495.689 77.563L511.8 53.634a8.864 8.864 0 0 0-2.164-12.349 8.864 8.864 0 0 0-12.349 2.164l-16.225 23.137M452.109 70.889a5.468 5.468 0 0 0 7.608-1.389l7.762-11.195-4.492-3.105c-.008-.005-.013-.012-.021-.018l-10.857 15.707z"/><path fill="#E26600" d="M486.473 58.617l19.555 13.395-6.23 9.094-19.554-13.395zM505.835 22.821a7.704 7.704 0 1 1-13.995-6.445"/><path fill="#E26600" d="M486.459 58.657l-6.194 9.043 8.718 5.971c-4.653-3.544-5.798-10.124-2.464-15.012a.747.747 0 0 1-.06-.002zM510.471 25.244c2.035-2.54 5.676-3 8.295-1.134-.174-1.778.392-3.614 1.754-4.976 1.905-1.905 4.734-2.283 7.033-1.184.297.281.567.588.838.895-3.522-4.415-9.635-6.228-15.166-4.053-6.792 2.671-10.133 10.343-7.462 17.135l.435-.171 4.273-6.512zM524.76 26.97a1.912 1.912 0 1 1 3.326 1.89"/><path fill="#EF8200" d="M1086.093 391.19v-10.353l-8.814-2.428c-.826-3.679-2.297-7.135-4.212-10.251l4.361-7.783-7.331-7.32-7.661 4.313c-3.17-2.034-6.71-3.641-10.483-4.529l-2.333-8.436h-10.353l-2.291 8.307c-3.89.844-7.531 2.401-10.794 4.46l-7.378-4.138-7.317 7.328 4.142 7.36c-2.081 3.274-3.548 6.928-4.408 10.841l-8.075 2.275v10.353l8.165 2.295c.884 3.836 2.387 7.418 4.457 10.634l-4.269 7.533 7.311 7.319 7.662-4.322c3.161 1.949 6.665 3.337 10.4 4.16l2.394 8.541h10.353l2.43-8.672a33.49 33.49 0 0 0 10.091-4.21l7.941 4.491 7.322-7.313-4.493-7.965c1.903-3.056 3.434-6.438 4.284-10.042l8.899-2.448zm-41.911 4.613c-5.504 0-9.961-4.46-9.961-9.964 0-5.501 4.457-9.961 9.961-9.961 5.501 0 9.959 4.46 9.959 9.961 0 5.504-4.457 9.964-9.959 9.964z"/><path opacity=".2" fill="#FFC524" d="M1074.073 414.98l-22.49-22.489c-1.823 2.027-4.457 3.312-7.4 3.312-5.504 0-9.961-4.46-9.961-9.964a9.921 9.921 0 0 1 3.31-7.401l-22.058-22.055-3.987 3.989 4.142 7.353c-1.332 2.093-2.41 4.358-3.263 6.732l43.204 43.199c2.311-.826 4.52-1.874 6.57-3.164l7.941 4.478 3.992-3.99zM1075.44 408.174l-2.531-4.489a33.681 33.681 0 0 0 3.175-6.681l-43.06-43.06c-2.412.844-4.716 1.928-6.842 3.269l-3.904-2.198 20.917 20.915c.324-.032.655-.052.988-.052 5.501 0 9.959 4.46 9.959 9.961 0 .333-.016.661-.047.986l21.345 21.349z"/><path fill="#E26600" d="M608.935 56.979L582 30.044c2.284.918 4.944.83 7.225-.522a8.188 8.188 0 0 0 2.867-11.22l-11.003 6.524-12.896-4.294a8.188 8.188 0 0 0 5.183 10.356c2.343.78 4.771.412 6.742-.754-10.543 11.343-12.826 27.551-6.846 41.015a37.851 37.851 0 0 0 10.565 14.61L578 88.105c2.54 6.323 9.725 9.389 16.047 6.849a12.339 12.339 0 0 0 3.154-1.85 37.766 37.766 0 0 0 11.083 1.659c20.868 0 37.784-16.916 37.784-37.784h-37.133z"/><path fill="#EF8200" d="M600.932 79.01c2.003 5.115.36 10.772-3.699 14.071 3.498 1.074 7.199 1.683 11.05 1.683 20.806 0 37.674-16.818 37.775-37.6L600.932 79.01z"/><circle fill="#EF8200" cx="626.219" cy="43.826" r="2.232"/><circle fill="#EF8200" cx="633.633" cy="34.978" r="3.189"/><circle fill="#EF8200" cx="625.98" cy="23.499" r="3.906"/><path fill="#FAA918" d="M605.141 71.481c-.035-.088-.031-.182-.076-.269a2.774 2.774 0 0 0-4.936 2.529c.044.086.122.139.174.218l4.838-2.478z"/><path fill="#E26600" d="M890.337 422.986l44.97-73.5 44.97 73.5z"/><path opacity=".77" fill="#EF8200" d="M980.277 422.986l-44.97-73.5-3.337 25.932 13.396.86-28.962 46.708z"/><path opacity=".77" fill="#EF8200" d="M945.208 376.301l8.201 2.772-18.102-29.587-16.096 26.307.133 9.265z"/><path opacity=".77" fill="#F99403" d="M945.106 376.301l8.303 2.772-18.102-29.587-3.337 25.932z"/><path fill="#E26600" d="M943.816 423.005l13.068-19.109v19.075z"/><path fill="#EF8200" d="M71.859 21.416l-7.696 8.486 5.694 4.102L61.2 54.958l3.646-17.766-7.745-5.922 7.919-15.44c-3.193-1.918-6.577-3.026-10.083-3.026-19.309 0-34.961 33.435-34.961 52.745 0 19.309 15.653 33.594 34.961 33.594 19.31 0 34.964-14.285 34.964-33.594 0-13.17-7.285-32.91-18.042-44.133z"/><path opacity=".51" fill="#E26600" d="M54.937 82.762c-14.496 0-27.281-6.63-34.961-17.217v.001c0 19.309 15.653 33.594 34.961 33.594 19.31 0 34.964-14.285 34.964-33.594v-.003c-7.682 10.588-20.467 17.219-34.964 17.219z"/><path fill="#EF8200" d="M514.596 282.066c3.42-.483 6.684-1.617 8.718-3.651 4.093-4.094 4.093-10.731 0-14.824-2.795-2.794-6.763-3.633-10.31-2.613v-4.927c0-12.853-10.419-23.273-23.273-23.273s-23.273 10.42-23.273 23.273v5.526c-3.591-1.103-7.647-.281-10.488 2.56-4.094 4.094-4.094 10.731 0 14.824 2.439 2.439 6.506 3.675 10.538 4.038.5 18.844 15.895 33.975 34.859 33.975 19.28 0 34.91-15.63 34.91-34.91h-21.681zm-14.891-31.258a5.542 5.542 0 0 1 5.542 5.541c0 .236-.041.461-.069.69h-10.944c-.029-.228-.07-.453-.07-.69a5.541 5.541 0 0 1 5.541-5.541zm-19.948 0a5.541 5.541 0 0 1 5.541 5.541c0 .236-.041.461-.07.69h-10.944c-.029-.228-.069-.453-.069-.69a5.541 5.541 0 0 1 5.542-5.541zm16.986 31.351a6.564 6.564 0 0 1-13.128 0v-8.354a6.564 6.564 0 0 1 13.128 0v8.354z"/><path opacity=".66" fill="#E26600" d="M962.312 530.756h-69.233l12.923-28.988h69.234z"/><path fill="#E26600" d="M976.684 504.438a12.208 12.208 0 0 0-9.477-8.698c3.787-4.061 6.122-9.494 6.122-15.484 0-12.555-10.178-22.732-22.732-22.732-12.555 0-22.733 10.178-22.733 22.732 0 1.335.138 2.634.359 3.906-3.235.773-5.793 3.204-6.784 6.35a14.42 14.42 0 0 0-3.682-.491c-7.984 0-14.456 6.472-14.456 14.456h10.527v.038h50.652v-.076h12.204zM1091.547 493.7h-4.567c-.996-8.873-8.537-15.797-17.672-15.797-8.151 0-15.021 5.517-17.117 13.007a10.71 10.71 0 0 0-6.847-2.501c-2.54 0-4.914.882-6.786 2.427-2.121-7.453-8.976-12.934-17.1-12.934-9.134 0-16.674 6.924-17.67 15.797h-3.8v4.601h3.894c1.268 8.575 8.654 15.183 17.576 15.183 9.809 0 17.791-7.98 17.791-17.789v-.01c1.24-2.22 3.534-3.594 6.095-3.594 2.591 0 4.982 1.47 6.183 3.753.081 9.74 8.022 17.64 17.781 17.64 8.922 0 16.31-6.608 17.578-15.183h4.661v-4.6zm-70.089 16.103c-7.78 0-14.108-6.328-14.108-14.108s6.328-14.11 14.108-14.11 14.11 6.33 14.11 14.11-6.329 14.108-14.11 14.108zm47.85 0c-7.78 0-14.108-6.328-14.108-14.108s6.328-14.11 14.108-14.11 14.11 6.33 14.11 14.11-6.33 14.108-14.11 14.108z"/><path fill="#EF8200" d="M754.564 393.415V382.35c0-21.604-17.513-39.117-39.117-39.117s-39.117 17.513-39.117 39.117v19.407h.033c.24 6.645 5.688 11.962 12.392 11.962a12.37 12.37 0 0 0 8.874-3.741v12.888a4.965 4.965 0 0 0 9.93 0v-4.53h2.764v4.53a4.965 4.965 0 0 0 9.93 0v-4.53h2.764v4.53a4.965 4.965 0 0 0 9.93 0v-13.298c2.273 2.542 5.568 4.151 9.247 4.151 6.856 0 12.414-5.558 12.414-12.414v-7.003c.001-.3-.023-.593-.044-.887zm-60.648 8.753c-5.373 0-9.729-4.356-9.729-9.729 0-5.373 4.356-9.729 9.729-9.729 5.373 0 9.729 4.356 9.729 9.729-.001 5.374-4.357 9.729-9.729 9.729zm15.39 4.057l6.192-8.272 6.192 8.272h-12.384zm27.822-4.057c-5.373 0-9.729-4.356-9.729-9.729 0-5.373 4.356-9.729 9.729-9.729 5.373 0 9.729 4.356 9.729 9.729 0 5.374-4.356 9.729-9.729 9.729z"/><path opacity=".77" fill="#EF8200" d="M750.615 83.933c.01-.005.018-.016.029-.021l-24.911-40.139v-19.42h.916a1.831 1.831 0 0 0 0-3.662h-19.142a1.831 1.831 0 0 0 0 3.662h.874v19.859l-24.519 39.507c.003.002.005.006.009.008a3.825 3.825 0 0 0-.582 2.017 3.855 3.855 0 0 0 3.762 3.85c-.002.007 60.106.01 60.177.01a3.86 3.86 0 0 0 3.86-3.86 3.834 3.834 0 0 0-.473-1.811z"/><path fill="#E26600" d="M718.259 34.506a3.139 3.139 0 1 1-6.278.002 3.139 3.139 0 0 1 6.278-.002z"/><circle fill="#E26600" cx="722.87" cy="56.571" r="2.623"/><path fill="#E26600" d="M687.731 85.17h58.859l-14.807-23.61s-11.336 10.608-30.686 10.608c-3.246 0-5.126-.253-5.126-.253l-8.24 13.255z"/><path opacity=".5" fill="#FFC10C" d="M716.135 43.995h-3.092L692.9 85.275h7.896z"/><g fill="#EF8200"><path d="M164.307 604.213a3.943 3.943 0 0 0-5.51.857l-10.8 14.779-14.991-10.955a3.943 3.943 0 0 0-4.653 6.367l17.897 13.078c.285.209.593.357.908.479a3.936 3.936 0 0 0 4.927-1.199l13.078-17.897a3.94 3.94 0 0 0-.856-5.509zM172.403 623.715a3.943 3.943 0 0 0-3.943 3.943v22.166a3.943 3.943 0 1 0 7.886 0v-22.166a3.943 3.943 0 0 0-3.943-3.943z"/><path d="M200.359 600.177a3.529 3.529 0 0 0-4.947.658l-3.467 5.236-14.188-10.279a4.335 4.335 0 0 0-3.144-.781 3.91 3.91 0 0 0-1.027-.86l-19.291-10.918a3.881 3.881 0 0 0-1.838-.492c-.107-.009-.212-.006-.319-.006-.043.002-.086.001-.129.005a3.505 3.505 0 0 0-2.593 1.299l-.046.048-.016.017-.059.089a3.817 3.817 0 0 0-.374.53c-.02.035-.029.072-.047.107l-5.569 8.411a3.529 3.529 0 0 0 5.605 4.289l3.989-6.025 16.803 9.51a3.91 3.91 0 0 0 1.734.491c.297.512.697.975 1.207 1.345l16.56 11.997a4.344 4.344 0 0 0 3.256.771 3.508 3.508 0 0 0 2.508-1.36l.057-.086c.088-.1.186-.188.266-.298.181-.25.329-.512.45-.783l5.277-7.969a3.528 3.528 0 0 0-.658-4.946z"/><path d="M179.752 596.084l3.574-5.156a13.857 13.857 0 0 0 10.055-.78c-2.787-2.334-3.401-6.432-1.278-9.466l6.786 4.748a13.874 13.874 0 0 0 2.418-7.844c0-7.699-6.242-13.941-13.941-13.941-7.7 0-13.941 6.242-13.941 13.941 0 3.446 1.257 6.594 3.328 9.027l-3.461 4.993 6.46 4.478z"/></g><path fill="#E26600" d="M188.405 654.434a5.717 5.717 0 0 0-5.717-5.717l-14.242-.02v5.709c0 .01-.003.019-.003.028h19.962zM163.608 629.78l16.844-25.018a9.269 9.269 0 0 0-15.173-10.649l-16.963 24.19M118.044 622.803a5.716 5.716 0 0 0 7.954-1.452l8.115-11.704-4.696-3.246c-.008-.005-.014-.013-.022-.018l-11.351 16.42z"/><path fill="#E26600" d="M153.97 609.939l20.445 14.004-6.513 9.508-20.444-14.004zM174.215 572.547c-1.861 4.041-6.645 5.808-10.686 3.947s-5.808-6.645-3.947-10.686"/><path fill="#E26600" d="M153.958 610.014l-6.476 9.455 9.115 6.243c-4.864-3.705-6.062-10.585-2.576-15.695l-.063-.003zM179.063 575.081c2.128-2.656 5.935-3.137 8.672-1.186-.181-1.859.41-3.779 1.834-5.203 1.991-1.991 4.949-2.387 7.353-1.238.311.293.593.615.876.935-3.682-4.616-10.073-6.512-15.856-4.238-7.101 2.793-10.594 10.813-7.801 17.914l.455-.179 4.467-6.805zM194.002 576.885a2 2 0 0 1 3.478 1.976"/><g fill="#EF8200"><path d="M58.561 603.938a3.964 3.964 0 0 0-5.54.862l-10.859 14.86-15.073-11.015a3.964 3.964 0 1 0-4.678 6.403l17.995 13.15c.287.21.597.359.913.482a3.957 3.957 0 0 0 4.954-1.206l13.15-17.995a3.965 3.965 0 0 0-.862-5.541zM66.701 623.547a3.965 3.965 0 0 0-3.965 3.965V649.8a3.965 3.965 0 1 0 7.93 0v-22.288a3.965 3.965 0 0 0-3.965-3.965z"/><path d="M94.81 599.88a3.548 3.548 0 0 0-4.974.661l-3.486 5.265-14.265-10.335a4.36 4.36 0 0 0-3.161-.785 3.936 3.936 0 0 0-1.033-.865l-19.397-10.978a3.926 3.926 0 0 0-1.848-.495c-.107-.009-.214-.006-.321-.006-.043.002-.087.001-.13.005a3.519 3.519 0 0 0-2.607 1.307c-.015.017-.031.031-.046.049l-.016.017-.059.089a3.91 3.91 0 0 0-.376.532c-.02.035-.029.072-.047.107l-5.6 8.457a3.548 3.548 0 0 0 5.635 4.313l4.011-6.058 16.895 9.562a3.924 3.924 0 0 0 1.744.493c.298.515.701.98 1.214 1.352l16.651 12.063a4.37 4.37 0 0 0 3.273.776 3.527 3.527 0 0 0 2.522-1.367l.057-.086c.088-.101.187-.189.267-.3a4.41 4.41 0 0 0 .453-.787l5.305-8.012a3.548 3.548 0 0 0-.661-4.974z"/><path d="M74.09 595.765l3.594-5.185a13.943 13.943 0 0 0 10.11-.783c-2.802-2.347-3.42-6.467-1.285-9.518l6.824 4.774a13.945 13.945 0 0 0 2.431-7.887c0-7.742-6.276-14.018-14.018-14.018s-14.018 6.276-14.018 14.018c0 3.465 1.263 6.63 3.346 9.076l-3.48 5.021 6.496 4.502z"/></g><path fill="#E26600" d="M82.79 654.434a5.75 5.75 0 0 0-5.749-5.749l-14.32-.02v5.74c0 .01-.003.019-.003.029H82.79zM57.857 629.645l16.937-25.155c2.957-4.213 1.938-10.025-2.275-12.982-4.213-2.957-10.025-1.938-12.982 2.275l-17.056 24.322M12.044 622.629a5.75 5.75 0 0 0 7.998-1.46l8.16-11.768-4.722-3.264-.022-.019-11.414 16.511z"/><path fill="#E26600" d="M48.172 609.692l20.557 14.08-6.549 9.56-20.556-14.08zM68.523 572.098a8.099 8.099 0 1 1-14.713-6.775"/><path fill="#E26600" d="M48.155 609.771l-6.511 9.507 9.165 6.277c-4.891-3.726-6.096-10.643-2.591-15.781l-.063-.003zM73.397 574.646c2.139-2.671 5.967-3.154 8.72-1.192-.182-1.869.412-3.8 1.844-5.231 2.002-2.002 4.976-2.4 7.393-1.245.313.295.596.619.881.941-3.703-4.642-10.129-6.547-15.943-4.261-7.14 2.808-10.652 10.873-7.844 18.013l.457-.18 4.492-6.845zM88.418 576.461a2.01 2.01 0 1 1 3.497 1.987"/><circle fill="#EF8200" cx="367.811" cy="636.691" r="7.696"/><circle fill="#EF8200" cx="386.303" cy="649.402" r="4.339"/><path fill="#EF8200" d="M413.65 575.743c-2.715-8.949-11.027-15.463-20.863-15.463-10.167 0-18.708 6.96-21.12 16.375a17.103 17.103 0 0 0-5.55-.924c-9.469 0-17.145 7.676-17.145 17.145 0 3.3.935 6.381 2.551 8.997a12.008 12.008 0 0 0-3.186 8.148c0 6.663 5.402 12.065 12.065 12.065 5.622 0 10.333-3.851 11.671-9.056a21.353 21.353 0 0 0 7.167 1.224c5.754 0 10.901-2.234 14.357-5.752a19.167 19.167 0 0 0 11.255 3.635c10.638 0 19.262-8.624 19.262-19.262 0-7.466-4.252-13.936-10.464-17.132z"/><path fill="#E26600" d="M576.612 588.383c0-16.011 12.979-28.99 28.99-28.99s28.99 12.979 28.99 28.99v15.169c0 16.011-12.979 28.99-28.99 28.99s-28.99-12.979-28.99-28.99v-15.169z"/><path fill="#FAA918" d="M618.24 586.21c-5.367-.284-10.516.486-15.848 1.009-5.097.5-10.311.987-15.328.293a24.703 24.703 0 0 0-1.767 9.156v27.249c0 13.699 11.105 24.804 24.804 24.804s24.804-11.105 24.804-24.804v-27.249c0-3.593-.78-6.998-2.154-10.08-4.861.721-9.346-.104-14.511-.378z"/><path fill="#EF8200" d="M595.489 617.036c0 5.399-4.377 9.776-9.776 9.776s-9.776-4.377-9.776-9.776 4.377-9.776 9.776-9.776 9.776 4.377 9.776 9.776z"/><path fill="#EF8200" d="M585.296 607.499v16.419c0 13.699 11.105 24.804 24.804 24.804s24.804-11.105 24.804-24.804v-16.419h-49.608z"/><path opacity=".77" fill="#FFC524" d="M585.296 607.499v16.419c0 13.699 11.105 24.804 24.804 24.804s24.804-11.105 24.804-24.804v-16.419h-49.608z"/><path fill="#FFC524" d="M610.377 616.746l19.008 22.757a24.688 24.688 0 0 0 5.519-15.584v-16.42h-24.048l-.479 1.806-.479-1.806h-24.601v16.42c0 6.062 2.181 11.61 5.793 15.919l19.287-23.092z"/><path fill="#FAA918" d="M618.245 606.923a8.029 8.029 0 0 1-8.029 8.029 8.029 8.029 0 0 1-8.029-8.029v-13.289a8.028 8.028 0 0 1 8.029-8.028 8.029 8.029 0 0 1 8.029 8.028v13.289z"/><path fill="#E26600" d="M593.197 601.159a4.483 4.483 0 1 1 8.966 0M619.49 601.159a4.483 4.483 0 1 1 8.966 0"/><path fill="#EF8200" d="M584.83 583.357h50.307v9.862H584.83z"/><path fill="#E26600" d="M526.089 590.402c-2.427.411-4.88.673-7.377.712a1.935 1.935 0 0 1-.517 1.468c-4.177 4.479-9.653 6.081-15.421 6.014-.371.051-.742.118-1.112.159-.232.096-.462.192-.703.286-.528.207-1.003.114-1.404-.123a49.145 49.145 0 0 1-6.188-.031c-3.414.198-6.681-.129-9.578-1.29-.081-.016-.163-.028-.244-.044a1.744 1.744 0 0 1-.904-.472c-2.438-1.218-4.571-3.098-6.23-5.893-.048-.082-.071-.161-.1-.241-2.693-.152-5.371-.42-8.037-.78a77.313 77.313 0 0 1-5.271 3.618c-2.355 2.242-4.997 4.145-7.829 5.767-.16.133-.318.268-.477.4 7.127 16.711 23.691 28.432 43.005 28.432 18.976 0 35.244-11.336 42.562-27.581-5.072-3.006-9.764-6.496-14.175-10.401z"/><path fill="#EF8200" d="M519.146 580.993c-9.849 0-18.241 6.15-21.603 14.81-3.361-8.66-11.753-14.81-21.602-14.81-12.806 0-23.186 10.381-23.186 23.187h89.578c0-12.806-10.381-23.187-23.187-23.187z"/><path fill="#E26600" d="M265.123 467.612a2.018 2.018 0 1 1 2.855-2.855l14.277 14.277a2.018 2.018 0 1 1-2.855 2.855l-14.277-14.277z"/><path fill="#E26600" d="M284.864 464.954a2.018 2.018 0 1 1 2.855 2.855l-14.277 14.277a2.018 2.018 0 1 1-2.855-2.855l14.277-14.277z"/><circle fill="#E26600" cx="276.411" cy="476.499" r="10.6"/><path fill="#EF8200" d="M256.26 496.15c0-11.059 8.965-20.023 20.023-20.023s20.023 8.965 20.023 20.023-11.635 23.947-20.429 29.494c-8.929-5.682-19.617-18.435-19.617-29.494z"/><path fill="#E26600" d="M256.26 496.15c0 3.146.886 6.426 2.329 9.645h35.216c1.543-3.223 2.502-6.506 2.502-9.645 0-2.642-.524-5.157-1.454-7.466h-37.14a19.95 19.95 0 0 0-1.453 7.466z"/><path opacity=".7" fill="#FFC524" d="M259.641 511.032c-7.294 7.294-19.119 7.294-26.413 0s-7.294-19.119 0-26.413 23.468-8.12 32.927-5.979c2.141 9.637.779 25.098-6.514 32.392zM293.277 511.032c7.294 7.294 19.119 7.294 26.413 0s7.294-19.119 0-26.413-23.468-8.12-32.927-5.979c-2.142 9.637-.78 25.098 6.514 32.392z"/><path fill="#EF8200" d="M22.314 475.58h32.703v46.72H22.314z"/><path fill="#E26600" d="M54.906 475.58H22.018l-12.49-7.476h32.888zM67.422 468.104l-12.49 7.475h.086v46.72h32.705v-46.72h.099l12.49-7.475h-32.89zm8.758 21.491h-7.213c-1.42 0-2.568-.918-2.568-2.334 0-1.419 1.149-2.338 2.568-2.338h7.213c1.419 0 2.57.919 2.57 2.338 0 1.417-1.15 2.334-2.57 2.334z"/><path fill="#EF8200" d="M69.969 512.956h5.609v9.344h-5.609zM513.31 386.778h14.615v5.052H513.31z"/><path fill="#E26600" d="M529.64 420.311v-18.544h-1.013c-7.662 0-13.873-6.211-13.873-13.873h14.886v-5.987h7.849v-3.536c0-16.284-13.201-29.484-29.484-29.484s-29.484 13.201-29.484 29.484v41.445"/><path fill="#FAA918" d="M487.327 386.778h14.615v5.052h-14.615z"/><path fill="#EF8200" d="M503.657 420.311v-18.544h-1.013c-7.662 0-13.873-6.211-13.873-13.873h14.886v-5.987h7.849v-3.536c0-16.284-13.201-29.484-29.484-29.484s-29.484 13.201-29.484 29.484v41.445"/><path fill="#FAA918" d="M489.312 374.689a5.413 5.413 0 0 1 10.826 0M516.739 374.689a5.413 5.413 0 0 1 10.826 0"/><circle fill="#EF8200" cx="935.829" cy="55.625" r="39.928"/><path fill="#E26600" d="M927.79 16.507c-2.755 2.652-4.633 5.622-4.633 5.622l12.658 5.423 13.107-5.451s-1.538-2.719-4.033-5.361a40.123 40.123 0 0 0-17.099-.233zM971.523 58.51s2.284-2.377 4.127-5.663a39.694 39.694 0 0 0-4.615-16.066c-3.397-1.959-6.926-2.947-6.926-2.947l-1.566 13.68 8.98 10.996zM899.787 58.51l8.979-10.996-1.566-13.68s-3.193.898-6.428 2.67a39.7 39.7 0 0 0-4.805 16.874c1.781 3.004 3.82 5.132 3.82 5.132zM904.821 73.679s-.431 3.325-.054 7.025a40.087 40.087 0 0 0 13.808 10.936c3.382-.473 6.05-1.481 6.05-1.481l-6.601-12.568-13.203-3.912zM966.471 81.218c.476-3.898.002-7.539.002-7.539l-13.201 3.911-6.601 12.568s2.814 1.066 6.329 1.521a40.099 40.099 0 0 0 13.471-10.461zM927.681 67.554l-4.934-15.012 12.916-9.298 12.915 9.256-4.934 15.054zM851.958 68.501H816.08l5.98-14.949h23.919zM835.203 53.552h-35.879l5.98-14.949h23.919zM816.08 68.501h-35.878l5.98-14.949H810.1z"/><path fill="#EF8200" d="M866.908 53.552h-10.776l-5.98-14.949h-23.919l-5.98 14.949h-13.142l-5.98 14.949h35.878l-5.98-14.949h11.96l-5.98 14.949h35.878z"/><g><path fill="#EF8200" d="M851.708 33.421a9.628 9.628 0 0 1 5.193 5.286 9.631 9.631 0 0 1 5.193-5.286 9.628 9.628 0 0 1-5.193-5.286 9.622 9.622 0 0 1-5.193 5.286z"/></g><g><path fill="#EF8200" d="M795.245 79.333a9.543 9.543 0 0 1 5.147 5.239 9.543 9.543 0 0 1 5.147-5.239 9.543 9.543 0 0 1-5.147-5.239 9.543 9.543 0 0 1-5.147 5.239z"/></g><path fill="#EF8200" d="M907.276 138.056h46.284v51.99h-46.284z"/><path fill="#EF8200" d="M931.944 149.066h46.284v51.99h-46.284z"/><path fill="#E26600" d="M953.561 138.056l-21.617 11.01h21.589z"/><path fill="#EF8200" d="M899.019 137.139h5.199v65.141h-5.199z"/><circle fill="#EF8200" cx="901.559" cy="133.088" r="4.893"/><g><path fill="#E26600" d="M1015.157 182.414c4.632-.124 9.254-.081 13.848.39v-12.11c0-9.109 7.409-16.519 16.518-16.519s16.519 7.41 16.519 16.519v11.552c1.082-.01 2.163-.031 3.245-.035a1.875 1.875 0 0 1 1.315-.467c5.076.106 10.136.471 15.202.746.83.03 1.66.073 2.49.102v-11.897c0-21.378-17.392-38.768-38.771-38.768-21.376 0-38.767 17.391-38.767 38.768v11.117c2.799.221 5.6.419 8.401.602z"/></g><g fill="#D8D8D8"><path d="M1006.755 179.67h22.249v19.342h-22.249zM1062.042 179.67h22.251v19.342h-22.251z"/></g><g fill="#EF8200"><path d="M1006.755 179.67h22.249v19.342h-22.249zM1062.042 179.67h22.251v19.342h-22.251z"/></g><path fill="#E26600" d="M1083.69 256.089l.058-.086-3.159-2.142c-9.395-6.367-22.047-9.874-35.629-9.874-13.794 0-26.584 3.6-36.012 10.137l-3.136 2.174.051.073c-1.537 1.22-2.609 2.868-3.179 4.677h-.252v.931a9.495 9.495 0 0 0 0 3.829v31.985c0 4.676 3.805 8.48 8.48 8.48h4.627v.091h59.15v-16.537h-.16l-13.196-26.213h-32.437l-13.196 26.213h-.16v14.561h-4.627a6.602 6.602 0 0 1-6.594-6.596v-27.249l1.164 2.487 17.441-8.166-2.366-5.053c-.457-.977-1.087-1.808-1.794-2.546a51.288 51.288 0 0 1 7.516-2.924c1.221 5.018 5.722 8.768 11.109 8.768h14.978c5.403 0 9.918-3.77 11.122-8.811a51.201 51.201 0 0 1 8.085 3.176c-.719.745-1.358 1.586-1.821 2.576l-2.366 5.053 17.441 8.166 2.366-5.053c2.063-4.409.468-9.553-3.504-12.127zm-31.324 1.453h-14.978c-2.802 0-5.143-1.967-5.742-4.59a66.62 66.62 0 0 1 13.314-1.333c4.506 0 8.943.452 13.156 1.304-.587 2.637-2.938 4.619-5.75 4.619z"/><path fill="#FAA918" d="M1034.063 295.71h20.909v5.327h-20.909z"/><circle fill="#FAA918" cx="1044.994" cy="272.876" r="18.842"/><circle fill="#EF8200" cx="1044.994" cy="272.908" r="6.001"/><circle fill="#EF8200" cx="1044.994" cy="260.262" r="3.167"/><circle fill="#EF8200" cx="1044.994" cy="285.138" r="3.161"/><circle fill="#EF8200" cx="1032.528" cy="272.729" r="3.167"/><circle fill="#EF8200" cx="1057.461" cy="272.729" r="3.167"/><circle fill="#EF8200" cx="1035.651" cy="263.386" r="3.167"/><circle fill="#EF8200" cx="1054.337" cy="282.072" r="3.167"/><circle fill="#EF8200" cx="1035.67" cy="282.021" r="3.161"/><circle fill="#EF8200" cx="1054.337" cy="263.386" r="3.167"/><path fill="#EF8200" d="M915.127 264.491h41.09v52.83h-41.09zM939.135 240.572c1.067-.865 1.764-2.17 1.764-3.65a4.716 4.716 0 0 0-9.432 0c0 1.481.697 2.786 1.764 3.65-10.315 1.44-18.261 10.273-18.261 20.984h42.425c.001-10.711-7.946-19.544-18.26-20.984z"/><path fill="#E26600" d="M910.358 260.455h50.995v9.172h-50.995z"/><path fill="#FAA918" d="M919.529 289.805h31.918v23.113h-31.918z"/><path fill="#E56200" d="M796.484 276.151h51.274v40.404h-51.274z"/><path fill="#EF8200" d="M867.383 275.573h-48.484v-2.886h45.598a2.31 2.31 0 0 0 0-4.618h-45.598v-26.84h1.828v-6.638h-35.402v6.638h1.828v44.155h23.068a29.492 29.492 0 0 0 15.893 17.131v14.038h23.954v-14.177c10.203-4.621 17.315-14.871 17.315-26.803z"/><path fill="#E56200" d="M803.372 247.868c0 1.036 1.421 1.876 3.175 1.876h5.079c1.753 0 3.175-.84 3.175-1.876s-1.421-1.876-3.175-1.876h-5.079c-1.754 0-3.175.84-3.175 1.876z"/><path fill="#EF8200" d="M736.511 314.328a2.345 2.345 0 0 1-.872 3.198 2.344 2.344 0 0 1-3.194-.869l-7.283-12.724a2.339 2.339 0 0 1 .872-3.196 2.337 2.337 0 0 1 3.194.869l7.283 12.722zM692.31 314.132a2.342 2.342 0 0 0 4.043 2.36l7.397-12.656a2.343 2.343 0 0 0-.843-3.203 2.34 2.34 0 0 0-3.203.84l-7.394 12.659zM718.118 235.276l-6.649-.029a1.96 1.96 0 1 0-.019 3.92l1.963.009-.031 6.821 2.557.01.033-6.819 2.13.01a1.963 1.963 0 0 0 1.969-1.954 1.964 1.964 0 0 0-1.953-1.968z"/><path fill="#E26600" d="M750.905 279.546c-.09 20.153-16.496 36.416-36.649 36.324-20.152-.087-36.414-16.499-36.322-36.649.09-20.148 16.496-36.414 36.649-36.322 20.15.087 36.412 16.497 36.322 36.647z"/><path fill="#FAA918" d="M746.302 279.526c-.08 17.61-14.419 31.818-32.024 31.741-17.608-.08-31.818-14.417-31.741-32.024.08-17.608 14.419-31.818 32.024-31.739 17.606.076 31.819 14.415 31.741 32.022z"/><g fill="#EF8200"><path d="M682.233 234.674c-6.812 4.302-8.846 13.312-4.543 20.124l24.667-15.581c-4.303-6.812-13.312-8.846-20.124-4.543zM747.005 235.293c-6.812-4.303-15.821-2.268-20.124 4.543l24.668 15.581c4.302-6.811 2.268-15.821-4.544-20.124z"/></g><path fill="#E26600" d="M718.983 277.211l14.434 3.152-14.434 3.152zM711.676 276.275l3.695-23.474 3.694 23.474z"/><circle fill="#E26600" cx="714.951" cy="279.943" r="5.918"/><circle fill="#FAA918" cx="714.951" cy="279.943" r="2.378"/><path fill="#EF8200" d="M690.438 148.507h53.85v45.036h-53.85z"/><path opacity=".8" fill="#E26600" d="M701.239 169.983a3.359 3.359 0 0 0-3.359 3.359v20.2h6.718v-20.2a3.36 3.36 0 0 0-3.359-3.359zM717.363 169.983a3.36 3.36 0 0 0-3.359 3.359v20.2h6.718v-20.2a3.36 3.36 0 0 0-3.359-3.359zM684.027 147.545h68.275v17.089h-68.275zM733.488 169.983a3.359 3.359 0 0 0-3.359 3.359v20.2h6.718v-20.2a3.36 3.36 0 0 0-3.359-3.359z"/><path fill="#EF8200" d="M748.936 136.671v-.024h-64.269v.016c-8.082.172-14.584 6.765-14.584 14.889 0 8.232 6.673 14.905 14.905 14.905 7.961 0 14.445-6.247 14.865-14.104h33.737c.419 7.857 6.903 14.104 14.865 14.104 8.231 0 14.905-6.673 14.905-14.905.001-8.07-6.417-14.625-14.424-14.881z"/><path fill="#E26600" d="M497.655 130.173v5.304a6.359 6.359 0 0 1 6.352 6.352v30.761c0 3.331-2.585 6.04-5.85 6.301v-20.224h-5.304v30.794c-3.086-.431-5.476-3.06-5.476-6.263v-30.761a6.359 6.359 0 0 1 6.352-6.352v-5.304c-6.427 0-11.655 5.229-11.655 11.655v30.761c0 6.127 4.768 11.11 10.78 11.567v17.096h5.304v-27.667c6.189-.269 11.154-5.35 11.154-11.605v-30.761c-.002-6.425-5.23-11.654-11.657-11.654z"/><path fill="#EF8200" d="M508.829 118.71a25.396 25.396 0 0 0-14.436 4.482c-2.282-2.975-5.835-4.924-9.874-4.924-6.896 0-12.487 5.59-12.487 12.487 0 1.215.229 2.367.552 3.477-9.285 2.912-16.022 11.582-16.022 21.827 0 12.633 10.24 22.873 22.873 22.873 8.331 0 15.6-4.469 19.599-11.125a25.432 25.432 0 0 0 9.793 1.954c14.097 0 25.525-11.428 25.525-25.526.002-14.097-11.426-25.525-25.523-25.525z"/><path fill="#FAA918" d="M471.762 151.679l-.012-.028-.014.023-.026-.005.012.028c-.869 1.257-.997 3.201-.18 5.034.817 1.833 2.348 3.038 3.863 3.233l.012.028.014-.023.026.005-.012-.028c.869-1.257.997-3.201.18-5.034s-2.347-3.039-3.863-3.233zM494.991 149.356l-.012-.028-.014.023-.026-.005.012.028c-.869 1.257-.997 3.201-.18 5.034s2.348 3.038 3.863 3.233l.012.028.014-.023.026.005-.012-.028c.869-1.257.997-3.201.18-5.034s-2.347-3.038-3.863-3.233zM521.038 152.643l.025-.018c-.008-.004-.017-.005-.025-.009v-.027l-.025.018c-1.402-.606-3.334-.351-4.972.809-1.638 1.16-2.52 2.897-2.414 4.421l-.025.018c.008.004.017.005.025.009v.027l.025-.018c1.402.606 3.334.351 4.972-.809 1.638-1.159 2.52-2.896 2.414-4.421zM505.669 126.066l-.02-.023c-.003.008-.004.017-.006.026 0 0-.018.001-.026.003l.02.023c-.464 1.456-.018 3.352 1.299 4.867 1.317 1.515 3.133 2.22 4.639 1.963l.02.023c.003-.008.004-.017.006-.026.009-.001.018-.001.026-.003l-.02-.023c.464-1.456.018-3.352-1.299-4.867-1.317-1.515-3.133-2.22-4.639-1.963zM483.56 137.311l-.012.028.026-.005.014.023.012-.028c1.514-.205 3.036-1.421 3.84-3.26.804-1.839.662-3.782-.215-5.033l.012-.028-.026.005-.014-.023-.012.028c-1.514.205-3.036 1.421-3.84 3.26-.804 1.839-.663 3.782.215 5.033z"/><path fill="#EF8200" d="M384.991 128.729c0 7.998-6.483 14.481-14.481 14.481-4.03 0-7.673-1.649-10.298-4.306l-.017.019a14.424 14.424 0 0 1 4.097 10.08c0 7.629-5.904 13.866-13.39 14.426 7.486.56 13.39 6.797 13.39 14.426 0 4.008-1.629 7.634-4.26 10.256l.017.019a14.42 14.42 0 0 1 10.036-4.056c7.998 0 14.481 6.483 14.481 14.481l-.002.033.046.002c-.001-.083-.012-.164-.012-.248 0-7.998 6.483-14.481 14.481-14.481 4.173 0 7.923 1.776 10.566 4.6l.032-.029a14.43 14.43 0 0 1-4.379-10.364c0-7.629 5.904-13.866 13.39-14.426-7.486-.56-13.39-6.796-13.39-14.426a14.43 14.43 0 0 1 4.418-10.4l-.019-.017a14.431 14.431 0 0 1-10.192 4.198c-7.968 0-14.429-6.436-14.476-14.393l-.02-.001-.022.001c-.002.042.004.083.004.125z"/><circle fill="#E26600" cx="385.007" cy="163.606" r="18.557"/><path fill="#EF8200" d="M348.674 192.046a44.663 44.663 0 0 1-3.697-5.999l-1.812.927a47.051 47.051 0 0 0 3.862 6.272l1.647-1.2zM391.891 121.143l.311-2.013a47.344 47.344 0 0 0-7.201-.549h-.142l.142 2.036c2.311.001 4.63.178 6.89.526zM338.597 173.008c.387 2.425.97 4.836 1.729 7.164l1.935-.632a44.925 44.925 0 0 1-1.654-6.853l-2.01.321zM378.018 209.979l-.311 2.013c2.4.373 4.853.563 7.295.563h.047l-.047-2.036a45.751 45.751 0 0 1-6.984-.54zM392.394 211.975a46.832 46.832 0 0 0 7.168-1.72l-.632-1.937a44.647 44.647 0 0 1-6.852 1.646l.316 2.011zM358.626 201.972a45.078 45.078 0 0 1-5.365-4.574l-1.439 1.442a47.211 47.211 0 0 0 5.611 4.781l1.193-1.649zM340.582 158.628l-2.015-.309a48.036 48.036 0 0 0-.554 7.249v.094l2.039-.094a45.385 45.385 0 0 1 .53-6.94zM342.207 151.77a44.585 44.585 0 0 1 2.685-6.519l-1.817-.923a46.816 46.816 0 0 0-2.808 6.819l1.94.623zM377.513 119.176a46.77 46.77 0 0 0-7.161 1.735l.632 1.935a44.918 44.918 0 0 1 6.849-1.66l-.32-2.01zM363.716 207.47a46.954 46.954 0 0 0 6.816 2.815l.628-1.937a44.954 44.954 0 0 1-6.519-2.692l-.925 1.814zM353.136 133.864l-1.444-1.437a47.245 47.245 0 0 0-4.773 5.613l1.647 1.194a45.202 45.202 0 0 1 4.57-5.37zM406.199 123.624a46.712 46.712 0 0 0-6.821-2.802l-.623 1.939a44.536 44.536 0 0 1 6.524 2.679l.92-1.816zM426.881 186.893a46.488 46.488 0 0 0 2.822-6.813l-1.935-.628a44.88 44.88 0 0 1-2.699 6.515l1.812.926zM421.275 139.014a44.939 44.939 0 0 1 3.707 5.992l1.812-.932a47.128 47.128 0 0 0-3.876-6.263l-1.643 1.203zM431.385 158.031a47.202 47.202 0 0 0-1.744-7.158l-1.935.635a45.092 45.092 0 0 1 1.668 6.849l2.011-.326zM429.406 172.597l2.01.316c.38-2.412.573-4.884.573-7.345v-.189l-2.039.189a45.515 45.515 0 0 1-.544 7.029zM416.8 197.34l1.439 1.439a47.482 47.482 0 0 0 4.787-5.604l-1.647-1.199a45.454 45.454 0 0 1-4.579 5.364zM405.439 205.615l.93 1.812a47.124 47.124 0 0 0 6.274-3.859l-1.199-1.645a45.025 45.025 0 0 1-6.005 3.692zM411.297 129.109a45.18 45.18 0 0 1 5.377 4.563l1.435-1.444a47.18 47.18 0 0 0-5.618-4.771l-1.194 1.652z"/><circle fill="#EF8200" cx="360.753" cy="127.201" r="5.091"/><path fill="#E26600" d="M392.313 61.152v-5.508a6.949 6.949 0 1 0-13.898 0v5.508h-22.697v6.883h11.225c6.651 2.113 11.472 8.334 11.472 15.685v8.132a6.949 6.949 0 1 0 13.898 0V81.796c.758-6.495 5.289-11.835 11.35-13.76h10.723v-6.883h-22.073zm-7.126 32.629a2.822 2.822 0 1 1 0-5.644 2.822 2.822 0 0 1 0 5.644z"/><path fill="#E26600" d="M413.68 50.273h-56.985l-4.32-37.735H418z"/><path fill="#EF8200" d="M354.378 47.348h61.349v14.481h-61.349zM360.308 12.665v14.442a3.128 3.128 0 0 0 6.256 0v-8.549c.026.102.045.166.054.164a2.32 2.32 0 0 1 4.64 0l.014-.09v18.801a4.403 4.403 0 0 0 8.806 0V19.942a3.321 3.321 0 0 1 3.317-3.232c1.51 0 2.77 1.012 3.176 2.39v12.214a4.403 4.403 0 0 0 8.806 0V12.665h-35.069zM124.023 127.543h82.643v74.914h-82.643z"/><path fill="#FAA918" d="M128.945 132.005h72.8v65.991h-72.8z"/><path fill="#FFC524" d="M194.616 172.824a47.03 47.03 0 0 0-7.222-1.757l-.389 2.43c2.314.372 4.616.932 6.842 1.665l.769-2.338zM165.17 172.764a47.113 47.113 0 0 0-6.868 2.847l1.12 2.192a44.628 44.628 0 0 1 6.508-2.698l-.76-2.341zM179.99 172.921l-.187-2.461a47.95 47.95 0 0 0-7.404.574l.38 2.432a45.423 45.423 0 0 1 7.024-.546h.187z"/><path fill="#E26600" d="M128.945 132.005v9.925h9.085c-.024.204-.062.404-.062.615a5.229 5.229 0 0 0 5.229 5.229h15.38a5.229 5.229 0 0 0 5.229-5.229c0-.211-.038-.411-.062-.615h.369c5.437 0 9.843-4.407 9.843-9.843v-.082h-45.011z"/><g><path fill="#EF8200" d="M176.522 197.939h-7.383c0-22.162-18.031-40.193-40.195-40.193v-7.383c26.236.001 47.578 21.343 47.578 47.576z"/></g><path fill="#EF8200" d="M178.572 137.623c0 9.418 6.52 17.294 15.287 19.414-.113.694-.214 1.393-.214 2.119 0 5.487 3.342 10.191 8.1 12.194v-39.345h-22.358a19.965 19.965 0 0 0-.815 5.618z"/><path fill="#E26600" d="M150.016 185.322a8.73 8.73 0 0 0 .257-2.019 8.767 8.767 0 0 0-8.767-8.767h-11.381c-.404 0-.789.066-1.179.119v17.296c.39.053.776.119 1.179.119h4.631a9.064 9.064 0 0 0-.171 1.692c0 1.538.419 2.965 1.095 4.235h19.035c.676-1.269 1.095-2.696 1.095-4.235-.001-3.852-2.409-7.122-5.794-8.44z"/><path opacity=".4" fill="#E26600" d="M151.23 127.543h28.437v74.914H151.23z"/><path fill="#FFC524" d="M141.491 189.965a47.305 47.305 0 0 0-3.891 6.326l2.192 1.12a44.704 44.704 0 0 1 3.689-5.997l-1.99-1.449zM151.969 179.496a47.842 47.842 0 0 0-5.65 4.826l1.74 1.74a45.374 45.374 0 0 1 5.357-4.576l-1.447-1.99z"/><path fill="#EF8200" d="M96.222 191.079v-3.776h-4.453v-3.852h-3.34v-27.022h.047c.572 0 1.035-.464 1.035-1.036 0-.325-.159-.603-.393-.793h5.16l-39.433-21.349L15.412 154.6h6.59c-.234.19-.393.468-.393.793 0 .572.464 1.036 1.035 1.036h.101v27.022h-3.711v3.852h-4.082v3.776h-3.865v3.825h89.2v-3.825h-4.065zm-15.686-34.65h.1v27.022H68.205v-27.022h.093c.572 0 1.036-.464 1.036-1.036 0-.325-.159-.603-.393-.793h10.952c-.234.19-.393.468-.393.793 0 .573.463 1.036 1.036 1.036zm-20.821-1.828c-.234.19-.393.468-.393.793 0 .572.464 1.036 1.036 1.036h.054v27.022H48.815V156.43h.093c.572 0 1.035-.464 1.035-1.036 0-.325-.159-.603-.393-.793h10.165zm-29.176 1.828h.046c.572 0 1.035-.464 1.035-1.036 0-.325-.159-.603-.393-.793h9.097c-.234.19-.393.468-.393.793 0 .572.464 1.036 1.035 1.036h.054v27.022H30.539v-27.022z"/><g fill="#E26600"><path d="M79.5 155.394c0 .572.464 1.036 1.036 1.036h.1v9.76h7.793v-9.76h.047c.572 0 1.035-.464 1.035-1.036 0-.302-.146-.557-.354-.745h-9.304a.998.998 0 0 0-.353.745zM30.539 166.189v-9.76h.046c.572 0 1.035-.464 1.035-1.036 0-.302-.146-.557-.354-.745h-9.304a1.002 1.002 0 0 0-.354.745c0 .572.464 1.036 1.035 1.036h.101v9.76h7.795zM68.205 166.189v-9.76h.093c.572 0 1.036-.464 1.036-1.036 0-.302-.146-.557-.354-.745h-9.304a1.002 1.002 0 0 0-.354.745c0 .572.464 1.036 1.036 1.036h.054v9.76h7.793zM48.815 166.189v-9.76h.093c.572 0 1.035-.464 1.035-1.036 0-.302-.146-.557-.354-.745h-9.304a1.002 1.002 0 0 0-.354.745c0 .572.464 1.036 1.035 1.036h.054v9.76h7.795z"/></g><path fill="#E26600" d="M60.392 261.022l5.488-13.033h-4.151l-13.55 13.033h-19.64v.015c-6.214.16-11.233 12.484-11.233 27.681s5.019 27.521 11.233 27.681v.101h55.906v-55.477H60.392z"/><path fill="#EF8200" d="M40.013 290.388l34.063 3.006-.715-6.793z"/><ellipse fill="#EF8200" cx="84.392" cy="288.761" rx="11.371" ry="27.739"/><ellipse opacity=".26" fill="#FAA918" cx="84.392" cy="288.761" rx="7.17" ry="17.491"/><path fill="#EF8200" d="M53.665 252.795l.032.049.019-.048c.017-.001.034.002.051.002l-.032-.049c1.27-2.668.913-6.419-1.214-9.667s-5.422-5.075-8.376-4.977l-.032-.049-.019.048c-.017.001-.034-.002-.051-.002l.032.049c-1.27 2.668-.913 6.419 1.214 9.667s5.423 5.075 8.376 4.977zM18.687 275.484l31.077-.324-29.644-4.643a41.57 41.57 0 0 0-1.433 4.967zM21.153 309.453l25.035-2.473-26.635-1.776a33.101 33.101 0 0 0 1.6 4.249zM136.803 252.467h62.137v4.691h-62.137zM136.803 270.053h62.137v5.859h-62.137zM136.803 287.638h62.137v5.861h-62.137z"/><path fill="#EF8200" d="M210.932 304.051h-4.957v-61.176c0-2.474-2.218-4.477-4.691-4.477s-4.688 2.003-4.688 4.477v61.176h-58.621v-61.176c0-2.474-1.63-4.477-4.103-4.477s-4.104 2.003-4.104 4.477v61.176h-5.311c-2.395 0-4.337 1.709-4.337 4.102 0 2.395 1.942 4.106 4.337 4.106h86.474c2.395 0 4.338-1.711 4.338-4.106.001-2.393-1.942-4.102-4.337-4.102z"/><path fill="#E26600" d="M147.355 258.354a3.491 3.491 0 0 1-3.491 3.492h-.053a3.492 3.492 0 0 1-3.491-3.492v-5.915a3.493 3.493 0 0 1 3.491-3.492h.053a3.493 3.493 0 0 1 3.491 3.492v5.915zM156.734 258.354a3.49 3.49 0 0 1-3.489 3.492h-.053a3.491 3.491 0 0 1-3.491-3.492v-5.915a3.493 3.493 0 0 1 3.491-3.492h.053a3.491 3.491 0 0 1 3.489 3.492v5.915zM194.25 258.354a3.49 3.49 0 0 1-3.489 3.492h-.053a3.491 3.491 0 0 1-3.491-3.492v-5.915a3.493 3.493 0 0 1 3.491-3.492h.053a3.491 3.491 0 0 1 3.489 3.492v5.915zM166.112 258.354a3.49 3.49 0 0 1-3.489 3.492h-.053a3.492 3.492 0 0 1-3.492-3.492v-5.915a3.493 3.493 0 0 1 3.492-3.492h.053a3.49 3.49 0 0 1 3.489 3.492v5.915zM194.25 275.943a3.488 3.488 0 0 1-3.489 3.487h-.053a3.489 3.489 0 0 1-3.491-3.487v-5.919a3.492 3.492 0 0 1 3.491-3.489h.053a3.49 3.49 0 0 1 3.489 3.489v5.919zM147.355 275.943a3.488 3.488 0 0 1-3.491 3.487h-.053a3.49 3.49 0 0 1-3.491-3.487v-5.919a3.493 3.493 0 0 1 3.491-3.489h.053a3.492 3.492 0 0 1 3.491 3.489v5.919zM156.734 275.943a3.488 3.488 0 0 1-3.489 3.487h-.053a3.489 3.489 0 0 1-3.491-3.487v-5.919a3.492 3.492 0 0 1 3.491-3.489h.053a3.49 3.49 0 0 1 3.489 3.489v5.919zM184.871 275.943a3.488 3.488 0 0 1-3.489 3.487h-.053a3.49 3.49 0 0 1-3.492-3.487v-5.919a3.493 3.493 0 0 1 3.492-3.489h.053a3.49 3.49 0 0 1 3.489 3.489v5.919zM194.25 293.527a3.492 3.492 0 0 1-3.489 3.492h-.053a3.493 3.493 0 0 1-3.491-3.492v-5.917a3.49 3.49 0 0 1 3.491-3.49h.053a3.49 3.49 0 0 1 3.489 3.49v5.917zM184.871 293.527a3.492 3.492 0 0 1-3.489 3.492h-.053a3.493 3.493 0 0 1-3.492-3.492v-5.917a3.492 3.492 0 0 1 3.492-3.49h.053a3.49 3.49 0 0 1 3.489 3.49v5.917zM175.492 293.527a3.493 3.493 0 0 1-3.491 3.492h-.053a3.491 3.491 0 0 1-3.489-3.492v-5.917a3.49 3.49 0 0 1 3.489-3.49h.053a3.49 3.49 0 0 1 3.491 3.49v5.917zM166.112 293.527a3.491 3.491 0 0 1-3.489 3.492h-.053a3.493 3.493 0 0 1-3.492-3.492v-5.917a3.492 3.492 0 0 1 3.492-3.49h.053a3.49 3.49 0 0 1 3.489 3.49v5.917z"/><path fill="#EF8200" d="M423.013 267.925c0-20.461-16.587-37.047-37.047-37.047-20.461 0-37.047 16.587-37.047 37.047 0 17.618 12.31 32.334 28.79 36.091v12.801c8.066 0 14.827-5.465 16.855-12.888 16.307-3.883 28.449-18.509 28.449-36.004z"/><g><g><path fill="#FAA918" d="M386.801 261.085c0-7.921-6.444-14.366-14.366-14.366v9.795a4.577 4.577 0 0 1 4.571 4.571 4.577 4.577 0 0 1-4.571 4.571v9.795l.007-.001.004.46h9.795v-4.355c2.799-2.623 4.56-6.34 4.56-10.47z"/></g><g><circle fill="#FAA918" cx="377.374" cy="282.756" r="4.857"/></g><g><circle fill="#FAA918" cx="397.898" cy="282.756" r="4.857"/></g></g><g><path fill="#FAA918" d="M392.959 246.92h9.236v28.798h-9.236z"/></g><path fill="#FAA918" d="M368.919 351.519h31.854v73.213h-31.854z"/><path fill="#E26600" d="M400.809 344.583l-11.495 4.466a5.123 5.123 0 0 0-4.34-2.411c-2.039 0-3.784 1.197-4.614 2.918l-11.477-4.459v12.631l11.23-4.363c.672 2.055 2.582 3.549 4.862 3.549 2.415 0 4.427-1.673 4.976-3.918l10.859 4.219v-12.632z"/><circle fill="#EF8200" cx="385.231" cy="366.933" r="2.473"/><circle fill="#EF8200" cx="385.231" cy="387.484" r="2.473"/><circle fill="#EF8200" cx="385.231" cy="408.035" r="2.473"/><path fill="#EF8200" d="M352.429 369.577l4.805 4.806-5.284 5.284 16.923 45.087.067-67.133zM413.399 374.383l4.699-4.699-17.368-12.577.067 67.133 17.046-45.413z"/><path fill="#E26600" d="M148.291 388.953c-12.063 0-21.841 9.778-21.841 21.841h21.841v-21.841zM153.403 401.573v15.279c.01 6.685 8.737 12.191 12.028 13.979 2.926-1.26 12.028-7.336 12.028-13.979v-15.279h-24.056zm18.003 12.48c0 3.3-4.522 6.318-5.975 6.944-1.635-.888-5.97-3.623-5.975-6.944v-7.59h11.95v7.59zM182.275 389.004c12.063 0 21.841 9.778 21.841 21.841h-21.841v-21.841z"/><path fill="#EF8200" d="M142.966 410.845v-43.242c0-12.35 16.923-23.647 22.363-25.989 6.119 3.324 22.344 13.56 22.362 25.989v43.242"/><circle fill="#FAA918" cx="165.513" cy="370.874" r="8.727"/><path fill="#E26600" d="M150.773 352.191h29.03c-5.033-5.021-11.197-8.797-14.475-10.577-2.971 1.28-9.361 5.242-14.555 10.577zM163.525 390.756h4.018v20.192h-4.018zM29.736 394.594l38.016-38.016 24.807 24.807-38.016 38.016z"/><path fill="#EF8200" d="M85.152 394.918L64.694 374.46a6.462 6.462 0 0 0-.879-.718l-3.527-3.527a7.576 7.576 0 0 0 .581-2.906c0-4.194-3.4-7.594-7.594-7.594-1.03 0-2.01.21-2.906.581l-3.797-3.797-27.465 27.465 17.881 17.881 20.458 20.458a6.606 6.606 0 0 0 9.343 0c2.279-2.279 2.537-5.804.79-8.375 2.584 1.889 6.219 1.688 8.553-.646 2.179-2.179 2.495-5.493.993-8.027 2.535 1.502 5.848 1.186 8.027-.994a6.606 6.606 0 0 0 0-9.343z"/><path fill="#E26600" d="M40.424 392.502a6.151 6.151 0 0 1 0 8.699l-3.222 3.222a6.151 6.151 0 0 1-8.699-8.699l3.222-3.222a6.151 6.151 0 0 1 8.699 0zM67.487 365.44a6.151 6.151 0 0 1 0 8.699l-3.222 3.222a6.151 6.151 0 0 1-8.699-8.699l3.222-3.222a6.151 6.151 0 0 1 8.699 0z"/><path fill="#E26600" d="M48.747 400.825a6.151 6.151 0 0 1 0 8.699l-3.222 3.222a6.151 6.151 0 0 1-8.699-8.699l3.222-3.222a6.151 6.151 0 0 1 8.699 0z"/><path fill="#E26600" d="M56.909 408.987a6.151 6.151 0 0 1 0 8.699l-3.222 3.222a6.151 6.151 0 0 1-8.699-8.699l3.222-3.222a6.151 6.151 0 0 1 8.699 0zM8.7 375.855l29.695-29.694 9.45 9.45-29.694 29.695z"/><path fill="#EF8200" d="M75.842 346.21l27.001 27-9.45 9.451L66.39 355.66z"/><circle fill="#E26600" cx="94.585" cy="374.447" r="2.43"/><circle fill="#EF8200" cx="19.408" cy="374.599" r="2.43"/><path fill="#EF8200" d="M622.195 381.062a16.688 16.688 0 0 0-3.186-6.662l13.082-.504v-1.201l-16.052-1.214a16.596 16.596 0 0 0-8.721-3.38l-.572-14.9h-1.199l-1.123 14.903a16.602 16.602 0 0 0-8.711 3.414l-15.571 1.177v1.201l12.662.488a16.68 16.68 0 0 0-3.194 6.663l-34.346 4.328v2.116h5.939c.176 1.124 1.105 1.999 2.276 1.999 1.171 0 2.1-.875 2.276-1.999h10.166c-1.821 1.437-3.012 3.64-3.012 6.142 0 4.334 3.507 7.848 7.834 7.848s7.834-3.514 7.834-7.848c0-2.502-1.191-4.705-3.012-6.142h3.852c1.295 7.96 8.172 14.043 16.484 14.043 8.312 0 15.188-6.082 16.484-14.043h3.671c-1.821 1.437-3.012 3.64-3.012 6.142 0 4.334 3.507 7.848 7.834 7.848s7.834-3.514 7.834-7.848c0-2.502-1.191-4.705-3.012-6.142h10.622c.176 1.124 1.105 1.999 2.276 1.999 1.171 0 2.1-.875 2.276-1.999h5.548v-2.116l-34.227-4.313z"/><ellipse fill="#E26600" cx="580.742" cy="393.634" rx="6.026" ry="6.037"/><circle fill="#EF8200" cx="580.742" cy="393.634" r="1.919"/><ellipse fill="#E26600" cx="630.878" cy="393.634" rx="6.026" ry="6.037"/><circle fill="#EF8200" cx="630.878" cy="393.634" r="1.919"/><path opacity=".7" fill="#E26600" d="M589.418 387.498c1.298 7.957 8.173 14.036 16.483 14.036s15.184-6.079 16.483-14.036h-32.966z"/><g fill="#E26600"><path d="M606.88 383.548h8.718l-1.988-3.985h-6.73zM604.714 379.563h-7.013l-1.988 3.985h9.001z"/></g><path fill="#E26600" d="M757.213 500.003c0-14.422-11.691-26.113-26.113-26.113-14.422 0-26.113 11.691-26.113 26.113 0 12.332 8.559 22.641 20.053 25.377 1.429 5.232 6.195 9.084 11.88 9.084v-9.023c11.617-2.648 20.293-13.02 20.293-25.438z"/><path fill="#EF8200" d="M733.254 487.118c0-16.493-13.371-29.864-29.864-29.864-16.494 0-29.864 13.371-29.864 29.864 0 14.103 9.788 25.893 22.934 29.023 1.634 5.984 7.084 10.389 13.587 10.389v-10.319c13.284-3.028 23.207-14.891 23.207-29.093z"/><path fill="#CE5800" d="M864.21 475.427c0 21.675-17.571 39.246-39.246 39.246s-39.246-17.571-39.246-39.246"/><path fill="#E26600" d="M851.819 503.992c-7.023-6.605-16.453-10.681-26.855-10.681-10.402 0-19.832 4.076-26.855 10.681 7.023 6.605 16.453 10.681 26.855 10.681 10.402 0 19.832-4.076 26.855-10.681z"/><path fill="#EF8200" d="M792.177 475.427h66.734v11.095h-66.734z"/><path fill="#E26600" d="M725.29 569.046h-19.355c-16.363 0-29.752 13.388-29.752 29.751s13.388 29.751 29.752 29.751h19.355c16.363 0 29.752-13.388 29.752-29.751s-13.389-29.751-29.752-29.751z"/><path fill="#EF8200" d="M704.323 628.549h23.089v6.5h-23.089zM704.078 562.092h23.069v6.954h-23.069zM708.111 647.658h-.059a1.037 1.037 0 0 1-1.034-1.034v-9.26c0-.569.466-1.034 1.034-1.034h.059c.569 0 1.034.466 1.034 1.034v9.26c0 .568-.465 1.034-1.034 1.034zM715.642 647.658h-.059a1.037 1.037 0 0 1-1.034-1.034v-9.26c0-.569.465-1.034 1.034-1.034h.059c.569 0 1.034.466 1.034 1.034v9.26a1.037 1.037 0 0 1-1.034 1.034zM711.961 647.658h-.059a1.037 1.037 0 0 1-1.034-1.034v-9.26c0-.569.465-1.034 1.034-1.034h.059c.569 0 1.034.466 1.034 1.034v9.26c0 .568-.465 1.034-1.034 1.034zM719.554 647.658h-.059a1.037 1.037 0 0 1-1.034-1.034v-9.26c0-.569.466-1.034 1.034-1.034h.059c.569 0 1.034.466 1.034 1.034v9.26c0 .568-.465 1.034-1.034 1.034zM723.756 647.658h-.059a1.037 1.037 0 0 1-1.034-1.034v-9.26c0-.569.465-1.034 1.034-1.034h.059c.569 0 1.034.466 1.034 1.034v9.26a1.037 1.037 0 0 1-1.034 1.034z"/><g><path fill="#EF8200" d="M715.927 631.947c-15.615 0-28.318-14.875-28.318-33.158s12.703-33.157 28.318-33.157 28.318 14.874 28.318 33.157c0 18.284-12.703 33.158-28.318 33.158zm0-63.868c-14.265 0-25.871 13.777-25.871 30.71 0 16.935 11.606 30.711 25.871 30.711s25.871-13.777 25.871-30.711c0-16.933-11.606-30.71-25.871-30.71z"/></g><path fill="#FAA918" d="M708.081 562.092h5.909v6.954h-5.909zM708.081 628.646h5.909v6.381h-5.909z"/></svg>