<svg version="1.1" xmlns="http://www.w3.org/2000/svg" x="0" y="0" width="500" height="500" viewBox="0 0 500 500" xml:space="preserve"><path fill="#F7BC00" d="M13 71.5c-.2-2-.4-4-.4-6 0-10.7 3.4-20.6 9.2-28.8L9.4 28.3C3.8 37.3.5 47.9.5 59.2c0 4.6.6 9.1 1.6 13.5L13 71.5z"/><path fill="#FFCF36" d="M63 15.7V.8c-1-.1-2.5-.1-3.7-.1-19.9 0-37.5 9.9-48.1 25l12.7 8.6C33.1 23 46 15.7 63 15.7z"/><path fill="#F4A300" d="M23.7 97c-5.2-6.4-8.8-14-10.3-22.4L2.9 75.7c2.9 10 8.5 18.9 15.8 25.9l5-4.6z"/><path fill="#ED6000" d="M42.6 115.3c5.2 1.5 11 2.4 16.8 2.4 1.1 0 2.7 0 3.7-.1v-2.2c-7 0-13.1-1.3-18.8-3.6l-1.7 3.5z"/><path fill="#EF7D00" d="M25.7 99.3c4.3 4.7 9.5 8.6 15.3 11.3l-1.4 3.8c-6.9-2.4-13.2-6.1-18.6-10.8l4.7-4.3z"/><path opacity=".12" d="M327.6 71.5c-.2-2-.4-4-.4-6 0-10.7 3.4-20.6 9.2-28.8L324 28.3c-5.6 9-8.9 19.6-8.9 30.9 0 4.6.6 9.1 1.6 13.5l10.9-1.2zM377.6 15.7V.8c-1-.1-2.5-.1-3.7-.1-19.9 0-37.5 9.9-48.1 25l12.7 8.6c9.2-11.3 22.1-18.6 39.1-18.6zM338.3 97c-5.2-6.4-8.8-14-10.3-22.4l-10.5 1.1c2.9 10 8.5 18.9 15.8 25.9l5-4.6zM357.2 115.3c5.2 1.5 11 2.4 16.8 2.4 1.1 0 2.7 0 3.7-.1v-2.2c-7 0-13.1-1.3-18.8-3.6l-1.7 3.5zM340.3 99.3c4.3 4.7 9.5 8.6 15.3 11.3l-1.4 3.8c-6.9-2.4-13.2-6.1-18.6-10.8l4.7-4.3z"/><path fill="#D87000" d="M390.1 71.5c-.2-2-.4-4-.4-6 0-10.7 3.4-20.6 9.2-28.8l-12.4-8.4c-5.6 9-8.9 19.6-8.9 30.9 0 4.6.6 9.1 1.6 13.5l10.9-1.2zM440.1 15.7V.8c-1-.1-2.5-.1-3.7-.1-19.9 0-37.5 9.9-48.1 25l12.7 8.6c9.2-11.3 22.1-18.6 39.1-18.6zM400.8 97c-5.2-6.4-8.8-14-10.3-22.4L380 75.7c2.9 10 8.5 18.9 15.8 25.9l5-4.6zM419.7 115.3c5.2 1.5 11 2.4 16.8 2.4 1.1 0 2.7 0 3.7-.1v-2.2c-7 0-13.1-1.3-18.8-3.6l-1.7 3.5zM402.8 99.3c4.3 4.7 9.5 8.6 15.3 11.3l-1.4 3.8c-6.9-2.4-13.2-6.1-18.6-10.8l4.7-4.3z"/><path fill="#F7BC00" d="M76 71.5c-.2-2-.4-4-.4-6 0-10.7 3.4-20.6 9.2-28.8l-12.3-8.5c-5.6 9-8.9 19.6-8.9 30.9 0 4.6.6 9.1 1.6 13.5L76 71.5z"/><path opacity=".12" d="M126 15.7V.8c-1-.1-2.5-.1-3.7-.1-19.9 0-37.5 9.9-48.1 25l12.7 8.6C96.1 23 109 15.7 126 15.7z"/><path fill="#F4A300" d="M86.7 97c-5.2-6.4-8.8-14-10.3-22.4l-10.5 1.1c2.9 10 8.5 18.9 15.8 25.9l5-4.6z"/><path fill="#ED6000" d="M105.6 115.3c5.2 1.5 11 2.4 16.8 2.4 1.1 0 2.7 0 3.7-.1v-2.2c-7 0-13.1-1.3-18.8-3.6l-1.7 3.5z"/><path fill="#EF7D00" d="M88.7 99.3c4.3 4.7 9.5 8.6 15.3 11.3l-1.4 3.8c-6.9-2.4-13.2-6.1-18.6-10.8l4.7-4.3z"/><path opacity=".12" d="M139 71.5c-.2-2-.4-4-.4-6 0-10.7 3.4-20.6 9.2-28.8l-12.3-8.5c-5.6 9-8.9 19.6-8.9 30.9 0 4.6.6 9.1 1.6 13.5l10.8-1.1zM189 15.7V.8c-1-.1-2.5-.1-3.7-.1-19.9 0-37.5 9.9-48.1 25l12.7 8.6C159.1 23 172 15.7 189 15.7z"/><path fill="#F4A300" d="M149.7 97c-5.2-6.4-8.8-14-10.3-22.4l-10.5 1.1c2.9 10 8.5 18.9 15.8 25.9l5-4.6z"/><path fill="#ED6000" d="M168.6 115.3c5.2 1.5 11 2.4 16.8 2.4 1.1 0 2.7 0 3.7-.1v-2.2c-7 0-13.1-1.3-18.8-3.6l-1.7 3.5z"/><path fill="#EF7D00" d="M151.7 99.3c4.3 4.7 9.5 8.6 15.3 11.3l-1.4 3.8c-6.9-2.4-13.2-6.1-18.6-10.8l4.7-4.3z"/><path opacity=".12" d="M202 71.5c-.2-2-.4-4-.4-6 0-10.7 3.4-20.6 9.2-28.8l-12.3-8.5c-5.6 9-8.9 19.6-8.9 30.9 0 4.6.6 9.1 1.6 13.5l10.8-1.1zM252 15.7V.8c-1-.1-2.5-.1-3.7-.1-19.9 0-37.5 9.9-48.1 25l12.7 8.6C222.1 23 235 15.7 252 15.7zM212.7 97c-5.2-6.4-8.8-14-10.3-22.4l-10.5 1.1c2.9 10 8.5 18.9 15.8 25.9l5-4.6z"/><path fill="#ED6000" d="M231.6 115.3c5.2 1.5 11 2.4 16.8 2.4 1.1 0 2.7 0 3.7-.1v-2.2c-7 0-13.1-1.3-18.8-3.6l-1.7 3.5z"/><path fill="#EF7D00" d="M214.7 99.3c4.3 4.7 9.5 8.6 15.3 11.3l-1.4 3.8c-6.9-2.4-13.2-6.1-18.6-10.8l4.7-4.3z"/><path opacity=".12" d="M265 71.5c-.2-2-.4-4-.4-6 0-10.7 3.4-20.6 9.2-28.8l-12.3-8.5c-5.6 9-8.9 19.6-8.9 30.9 0 4.6.6 9.1 1.6 13.5l10.8-1.1zM315 15.7V.8c-1-.1-2.5-.1-3.7-.1-19.9 0-37.5 9.9-48.1 25l12.7 8.6C285.1 23 298 15.7 315 15.7zM275.7 97c-5.2-6.4-8.8-14-10.3-22.4l-10.5 1.1c2.9 10 8.5 18.9 15.8 25.9l5-4.6z"/><path fill="#ED6000" d="M294.6 115.3c5.2 1.5 11 2.4 16.8 2.4 1.1 0 2.7 0 3.7-.1v-2.2c-7 0-13.1-1.3-18.8-3.6l-1.7 3.5z"/><path opacity=".12" d="M277.7 99.3c4.3 4.7 9.5 8.6 15.3 11.3l-1.4 3.8c-6.9-2.4-13.2-6.1-18.6-10.8l4.7-4.3z"/><g><path opacity=".12" d="M18 162h15v-11.5l-15 2.7zM51 147.2l-15 2.9V162h15z"/><path fill="#ED6000" d="M16 153.6l-16 2.9v5.5h16z"/><path opacity=".12" d="M53 146.9V162h17v-18z"/></g><g><path fill="#EF7D00" d="M90 162h15v-11.5l-15 2.7z"/><path opacity=".12" d="M124 147.2l-17 2.9V162h17z"/><path fill="#ED6000" d="M88 153.6l-16 2.9v5.5h16z"/><path opacity=".12" d="M126 146.9V162h15v-18z"/></g><g><path fill="#EF7D00" d="M162 162h16v-11.5l-16 2.7z"/><path fill="#F4A300" d="M195 147.2l-15 2.9V162h15z"/><path fill="#ED6000" d="M160 153.6l-16 2.9v5.5h16z"/><path opacity=".12" d="M198 146.9V162h16v-18z"/></g><g><path fill="#EF7D00" d="M235 162h15v-11.5l-15 2.7z"/><path fill="#F4A300" d="M268 147.2l-16 2.9V162h16z"/><path fill="#ED6000" d="M233 153.6l-17 2.9v5.5h17z"/><path fill="#FFCF36" d="M270 146.9V162h16v-18z"/></g></svg>